<svg width="29" height="30" viewBox="0 0 29 30" fill="none" xmlns="http://www.w3.org/2000/svg">
<path d="M2.83333 28.3333C2.05417 28.3333 1.38715 28.0559 0.832292 27.501C0.277431 26.9462 0 26.2792 0 25.5V5.66667C0 4.8875 0.277431 4.22049 0.832292 3.66563C1.38715 3.11076 2.05417 2.83333 2.83333 2.83333H4.25V1.41667C4.25 1.01528 4.38576 0.678819 4.65729 0.407292C4.92882 0.135764 5.26528 0 5.66667 0C6.06806 0 6.40451 0.135764 6.67604 0.407292C6.94757 0.678819 7.08333 1.01528 7.08333 1.41667V2.83333H18.4167V1.41667C18.4167 1.01528 18.5524 0.678819 18.824 0.407292C19.0955 0.135764 19.4319 0 19.8333 0C20.2347 0 20.5712 0.135764 20.8427 0.407292C21.1142 0.678819 21.25 1.01528 21.25 1.41667V2.83333H22.6667C23.4458 2.83333 24.1128 3.11076 24.6677 3.66563C25.2226 4.22049 25.5 4.8875 25.5 5.66667V12.2896C25.5 12.691 25.3642 13.0274 25.0927 13.299C24.8212 13.5705 24.4847 13.7063 24.0833 13.7063C23.6819 13.7063 23.3455 13.5705 23.074 13.299C22.8024 13.0274 22.6667 12.691 22.6667 12.2896V11.3333H2.83333V25.5H11.05C11.4514 25.5 11.7878 25.6358 12.0594 25.9073C12.3309 26.1788 12.4667 26.5153 12.4667 26.9167C12.4667 27.3181 12.3309 27.6545 12.0594 27.926C11.7878 28.1976 11.4514 28.3333 11.05 28.3333H2.83333ZM21.25 29.75C19.2903 29.75 17.6198 29.0594 16.2385 27.6781C14.8573 26.2969 14.1667 24.6264 14.1667 22.6667C14.1667 20.7069 14.8573 19.0365 16.2385 17.6552C17.6198 16.274 19.2903 15.5833 21.25 15.5833C23.2097 15.5833 24.8802 16.274 26.2615 17.6552C27.6427 19.0365 28.3333 20.7069 28.3333 22.6667C28.3333 24.6264 27.6427 26.2969 26.2615 27.6781C24.8802 29.0594 23.2097 29.75 21.25 29.75ZM21.9583 22.3833V19.125C21.9583 18.9361 21.8875 18.7708 21.7458 18.6292C21.6042 18.4875 21.4389 18.4167 21.25 18.4167C21.0611 18.4167 20.8958 18.4875 20.7542 18.6292C20.6125 18.7708 20.5417 18.9361 20.5417 19.125V22.3479C20.5417 22.5368 20.5771 22.7198 20.6479 22.8969C20.7188 23.074 20.825 23.2333 20.9667 23.375L23.1271 25.5354C23.2688 25.6771 23.434 25.7479 23.6229 25.7479C23.8118 25.7479 23.9771 25.6771 24.1188 25.5354C24.2604 25.3937 24.3313 25.2285 24.3313 25.0396C24.3313 24.8507 24.2604 24.6854 24.1188 24.5438L21.9583 22.3833Z" fill="white"/>
</svg>
