<svg width="24" height="24" viewBox="0 0 24 24" fill="none" xmlns="http://www.w3.org/2000/svg">
<mask id="mask0_347_250" style="mask-type:alpha" maskUnits="userSpaceOnUse" x="0" y="0" width="24" height="24">
<rect width="24" height="24" fill="#D9D9D9"/>
</mask>
<g mask="url(#mask0_347_250)">
<path d="M12 22C9.20833 22 6.84375 21.0312 4.90625 19.0938C2.96875 17.1562 2 14.7917 2 12C2 9.22917 2.96875 6.86979 4.90625 4.92188C6.84375 2.97396 9.20833 2 12 2C14.7708 2 17.1302 2.97396 19.0781 4.92188C21.026 6.86979 22 9.22917 22 12C22 14.7917 21.026 17.1562 19.0781 19.0938C17.1302 21.0312 14.7708 22 12 22ZM13.25 11.5V8.25C13.25 7.89583 13.1302 7.59896 12.8906 7.35938C12.651 7.11979 12.3542 7 12 7C11.6458 7 11.349 7.11979 11.1094 7.35938C10.8698 7.59896 10.75 7.89583 10.75 8.25V12.0313C10.75 12.1979 10.7865 12.3594 10.8594 12.5156C10.9323 12.6719 11.0208 12.8021 11.125 12.9062L13.9688 15.75C14.2188 16 14.5156 16.125 14.8594 16.125C15.2031 16.125 15.5 16 15.75 15.75C16 15.5 16.125 15.2031 16.125 14.8594C16.125 14.5156 16 14.2188 15.75 13.9688L13.25 11.5Z" fill="white"/>
</g>
</svg>
