<svg width="19" height="15" viewBox="0 0 19 15" fill="none" xmlns="http://www.w3.org/2000/svg">
<path d="M17.5 1.875H15.625V0.625C15.625 0.45924 15.5592 0.300269 15.4419 0.183058C15.3247 0.0658481 15.1658 0 15 0H3.75C3.58424 0 3.42527 0.0658481 3.30806 0.183058C3.19085 0.300269 3.125 0.45924 3.125 0.625V1.875H1.25C0.918479 1.875 0.600537 2.0067 0.366117 2.24112C0.131696 2.47554 0 2.79348 0 3.125V4.375C0 5.2038 0.32924 5.99866 0.915291 6.58471C1.20547 6.87489 1.54997 7.10508 1.92911 7.26212C2.30826 7.41917 2.71462 7.5 3.125 7.5H3.41016C3.77832 8.66673 4.48029 9.70001 5.4293 10.4721C6.37831 11.2443 7.53277 11.7214 8.75 11.8445V13.75H6.875C6.70924 13.75 6.55027 13.8158 6.43306 13.9331C6.31585 14.0503 6.25 14.2092 6.25 14.375C6.25 14.5408 6.31585 14.6997 6.43306 14.8169C6.55027 14.9342 6.70924 15 6.875 15H11.875C12.0408 15 12.1997 14.9342 12.3169 14.8169C12.4342 14.6997 12.5 14.5408 12.5 14.375C12.5 14.2092 12.4342 14.0503 12.3169 13.9331C12.1997 13.8158 12.0408 13.75 11.875 13.75H10V11.8422C12.4953 11.5898 14.5656 9.83906 15.3188 7.5H15.625C16.4538 7.5 17.2487 7.17076 17.8347 6.58471C18.4208 5.99866 18.75 5.2038 18.75 4.375V3.125C18.75 2.79348 18.6183 2.47554 18.3839 2.24112C18.1495 2.0067 17.8315 1.875 17.5 1.875ZM3.125 6.25C2.62772 6.25 2.15081 6.05246 1.79917 5.70083C1.44754 5.34919 1.25 4.87228 1.25 4.375V3.125H3.125V5.625C3.125 5.83333 3.13516 6.04167 3.15547 6.25H3.125ZM17.5 4.375C17.5 4.87228 17.3025 5.34919 16.9508 5.70083C16.5992 6.05246 16.1223 6.25 15.625 6.25H15.5859C15.6116 6.01911 15.6246 5.787 15.625 5.55469V3.125H17.5V4.375Z" fill="white"/>
</svg>
