<svg width="32" height="32" viewBox="0 0 32 32" fill="none" xmlns="http://www.w3.org/2000/svg">
<mask id="mask0_347_225" style="mask-type:alpha" maskUnits="userSpaceOnUse" x="1" y="1" width="30" height="31">
<rect x="1" y="1.00781" width="30" height="30" fill="#D9D9D9"/>
</mask>
<g mask="url(#mask0_347_225)">
<path d="M5.96875 25.7266C4.92708 25.7266 4.04688 25.362 3.32812 24.6328C2.60938 23.9036 2.25 23.0182 2.25 21.9766V14.4766C2.25 13.7891 2.49479 13.2005 2.98438 12.7109C3.47396 12.2214 4.0625 11.9766 4.75 11.9766H11V6.97656C11 6.6224 11.1198 6.32552 11.3594 6.08594C11.599 5.84635 11.8958 5.72656 12.25 5.72656H17.25C18.2917 5.72656 19.1771 6.09115 19.9062 6.82031C20.6354 7.54948 21 8.4349 21 9.47656V14.4766H22.2188V13.0078C22.2188 12.6745 22.2865 12.3516 22.4219 12.0391C22.5573 11.7266 22.7396 11.4557 22.9688 11.2266L24.1875 10.0391C24.4792 9.7474 24.8281 9.63281 25.2344 9.69531C25.6406 9.75781 25.9479 9.97656 26.1562 10.3516L30 17.6328C30.2292 18.0495 30.224 18.4609 29.9844 18.8672C29.7448 19.2734 29.3854 19.4766 28.9062 19.4766H24.7188C24.0312 19.4766 23.4427 19.2318 22.9531 18.7422C22.4635 18.2526 22.2188 17.6641 22.2188 16.9766H20.9688V19.1641C21.3854 19.5182 21.7031 19.9401 21.9219 20.4297C22.1406 20.9193 22.25 21.4349 22.25 21.9766C22.25 23.0182 21.8854 23.9036 21.1562 24.6328C20.4271 25.362 19.5417 25.7266 18.5 25.7266C17.7083 25.7266 16.9896 25.4974 16.3438 25.0391C15.6979 24.5807 15.2292 23.9766 14.9375 23.2266H9.53125C9.23958 23.9766 8.77083 24.5807 8.125 25.0391C7.47917 25.4974 6.76042 25.7266 5.96875 25.7266ZM5.96875 23.2266C6.32292 23.2266 6.625 23.1068 6.875 22.8672C7.125 22.6276 7.25 22.3307 7.25 21.9766C7.25 21.6224 7.13021 21.3255 6.89062 21.0859C6.65104 20.8464 6.35417 20.7266 6 20.7266C5.64583 20.7266 5.34896 20.8464 5.10938 21.0859C4.86979 21.3255 4.75 21.6224 4.75 21.9766C4.75 22.3307 4.86458 22.6276 5.09375 22.8672C5.32292 23.1068 5.61458 23.2266 5.96875 23.2266ZM19.3906 22.8672C19.6302 22.6276 19.75 22.3307 19.75 21.9766C19.75 21.6224 19.6302 21.3255 19.3906 21.0859C19.151 20.8464 18.8542 20.7266 18.5 20.7266C18.1458 20.7266 17.849 20.8464 17.6094 21.0859C17.3698 21.3255 17.25 21.6224 17.25 21.9766C17.25 22.3307 17.3698 22.6276 17.6094 22.8672C17.849 23.1068 18.1458 23.2266 18.5 23.2266C18.8542 23.2266 19.151 23.1068 19.3906 22.8672ZM26.8438 16.9766L24.75 13.0078V16.9766H26.8438ZM13.5 14.4766H18.5V9.47656C18.5 9.1224 18.3802 8.82552 18.1406 8.58594C17.901 8.34635 17.6042 8.22656 17.25 8.22656H13.5V14.4766Z" fill="white"/>
</g>
</svg>
