<svg width="54" height="54" viewBox="0 0 54 54" fill="none" xmlns="http://www.w3.org/2000/svg">
<path d="M9.31543 20.3759C19.5287 15.0537 29.5414 15.5676 40.5736 18.3675" stroke="#2578B6" stroke-width="2.16" stroke-linecap="round" stroke-linejoin="round"/>
<path d="M14.5811 16.3609C19.3591 0.912985 30.9971 4.08016 35.1367 16.4704" stroke="#2578B6" stroke-width="2.16" stroke-linecap="round" stroke-linejoin="round"/>
<path d="M14.9847 21.7346C12.8247 21.8102 14.9847 23.926 16.3347 24.9746C14.9847 37.7996 34.6947 37.5296 33.3447 24.0296C34.2447 23.2196 35.5047 21.4916 33.3447 21.0596" stroke="#2578B6" stroke-width="2.16" stroke-linecap="round" stroke-linejoin="round"/>
<path d="M22.2754 23.4906C22.2754 23.0422 22.2754 22.5904 22.2754 22.1406" stroke="#2578B6" stroke-width="2.16" stroke-linecap="round" stroke-linejoin="round"/>
<path d="M27.27 23.4906C26.9815 23.043 27.0002 22.5942 27.0002 22.1406" stroke="#2578B6" stroke-width="2.16" stroke-linecap="round" stroke-linejoin="round"/>
<path d="M26.8213 28.4844C25.7111 29.3135 23.8991 29.3135 23.084 28.8601" stroke="#2578B6" stroke-width="2.16" stroke-linecap="round" stroke-linejoin="round"/>
<path d="M11.0216 46.3947C10.5412 32.3917 31.9612 33.0042 35.403 38.2269C37.1374 40.8586 37.4804 44.8468 38.0247 48.0599" stroke="#2578B6" stroke-width="2.16" stroke-linecap="round" stroke-linejoin="round"/>
<path d="M17.849 36.002C17.8093 37.6463 17.8739 39.29 17.952 40.9273" stroke="#2578B6" stroke-width="2.16" stroke-linecap="round" stroke-linejoin="round"/>
<path d="M18.3193 41.5499C22.2115 41.0551 26.4714 41.8689 30.2109 41.6009" stroke="#2578B6" stroke-width="2.16" stroke-linecap="round" stroke-linejoin="round"/>
<path d="M31.0757 37.0205C30.2834 40.4398 31.0078 43.7823 31.0078 47.2108" stroke="#2578B6" stroke-width="2.16" stroke-linecap="round" stroke-linejoin="round"/>
<path d="M17.833 38.5488C18.1627 41.3965 17.9181 44.3951 18.2947 47.2107" stroke="#2578B6" stroke-width="2.16" stroke-linecap="round" stroke-linejoin="round"/>
<path d="M34.2362 26.6288C32.5696 44.3582 49.0434 37.2679 43.7764 25.8105" stroke="#2578B6" stroke-width="2.16" stroke-linecap="round" stroke-linejoin="round"/>
<path d="M39.207 26.6602C39.2375 33.7907 39.207 40.9725 39.207 48.0598" stroke="#2578B6" stroke-width="2.16" stroke-linecap="round" stroke-linejoin="round"/>
</svg>
