<svg width="274" height="147" viewBox="0 0 274 147" fill="none" xmlns="http://www.w3.org/2000/svg">
<g opacity="0.3">
<path d="M112.459 65.8435C114.065 62.8467 112.938 59.1155 109.941 57.5096C106.944 55.9036 103.213 57.0311 101.607 60.0279C100.001 63.0247 101.129 66.7559 104.125 68.3618C107.122 69.9678 110.853 68.8403 112.459 65.8435Z" fill="#015CA5"/>
<path d="M104.68 64.6802C105.626 64.5714 106.305 63.7166 106.196 62.7709C106.087 61.8251 105.232 61.1465 104.287 61.2552C103.341 61.3639 102.662 62.2188 102.771 63.1645C102.88 64.1103 103.735 64.7889 104.68 64.6802Z" fill="white"/>
<path d="M87.4259 90.3348C85.3771 90.5704 83.3061 90.3437 81.6246 89.7314C80.8179 89.4523 80.0348 89.1085 79.2858 88.7919C76.9775 87.8488 74.7986 86.9529 72.6134 87.0801C72.1206 87.1058 71.6043 87.1961 71.0573 87.29C69.2602 87.5585 67.0384 87.9069 65.2314 86.4725C63.8335 85.3628 63.1393 83.3667 63.4988 81.3734C63.7983 79.6658 64.7174 78.2279 65.5259 77.1745C67.4299 74.6008 69.4133 73.2574 71.595 73.0996C74.3001 72.9126 76.4375 74.5259 78.395 76.1909L86.2213 82.8203C87.1795 83.6087 88.1447 84.4583 89.2206 84.9233C90.1978 85.3377 91.1939 85.3781 91.8962 85.0185C92.5373 84.666 93.364 84.8498 93.8048 85.4498C94.2726 86.0157 94.2452 86.8554 93.751 87.4079C92.1837 89.1373 89.8417 90.0572 87.4259 90.3348ZM71.7761 84.109C71.9902 84.0844 72.1737 84.0633 72.3877 84.0387C75.3068 83.8271 77.9114 84.9219 80.4478 85.9627C81.2274 86.2759 81.9423 86.5655 82.6572 86.8551C83.8861 87.3026 85.4843 87.4597 86.9827 87.2874C85.9198 86.666 84.9957 85.9047 84.1704 85.194L76.3441 78.5645C74.8674 77.309 73.272 76.0981 71.736 76.2127C70.5093 76.3228 69.2517 77.2419 67.9396 79.0349C67.3241 79.8802 66.665 80.8855 66.4752 81.9298C66.329 82.8141 66.5498 83.6563 67.0918 84.0588C67.7737 84.6 68.8781 84.5041 70.5494 84.219C70.9505 84.2039 71.3786 84.1547 71.7761 84.109Z" fill="#015CA5"/>
<path d="M81.8241 105.48C80.2646 105.659 78.6593 105.441 77.1507 104.716C75.7408 104.041 74.6628 103.019 74.0871 101.783C73.3539 100.257 73.4523 98.4172 74.3549 97.105C75.6529 95.1898 77.9194 94.9602 79.7541 94.7493C79.9682 94.7247 80.2128 94.6966 80.4269 94.672C85.2209 94.0589 89.528 90.5584 91.1083 85.9771C91.3673 85.2656 92.0931 84.8414 92.8517 84.9711C93.6102 85.1008 94.1227 85.7855 94.1153 86.5299C93.96 92.1868 92.4901 97.1893 89.9706 100.608C88.1137 103.053 85.0656 105.107 81.8241 105.48ZM79.8304 97.8389C78.5767 97.983 77.357 98.1542 76.8804 98.8597C76.6167 99.2618 76.5988 99.9145 76.8491 100.474C77.1335 101.061 77.7201 101.583 78.4761 101.961C81.558 103.434 85.4564 101.499 87.4346 98.7619C88.5337 97.2722 89.4001 95.3756 89.9832 93.1707C87.4736 95.597 84.2269 97.2716 80.7443 97.7029C80.4997 97.731 80.255 97.7591 80.041 97.7837C80.0139 97.8178 79.9222 97.8284 79.8304 97.8389Z" fill="#015CA5"/>
<path d="M144.298 110.413C124.145 112.73 103.778 111.012 84.9144 105.403C84.1113 105.155 83.6424 104.31 83.8874 103.477C84.1359 102.673 84.9805 102.205 85.8142 102.45C128.162 115.056 176.767 106.898 212.695 81.1722C213.352 80.6938 213.983 80.2495 214.641 79.7711C220.186 75.7254 225.936 71.5633 232.887 70.5784C233.437 70.5151 233.957 70.4554 234.507 70.3921C236.346 70.2118 238.089 70.0114 239.346 69.0923C241.373 67.5889 241.786 64.4431 240.689 59.209C239.82 55.157 238.368 50.3356 234.744 49.265C233.365 48.8657 231.775 49.0485 230.124 49.2383C229.696 49.2876 229.268 49.3368 228.84 49.386C219.801 50.27 211.249 46.7605 202.955 43.3451C201.849 42.8836 200.742 42.4221 199.639 41.9912C178.624 33.5626 155.54 29.2446 132.896 29.5548C123.769 29.6744 110.359 30.5342 99.1075 36.6921C86.3699 43.6714 76.5036 57.5708 72.1059 74.8386C71.8915 75.6688 71.0504 76.1683 70.2201 75.9539C69.3899 75.7395 68.8904 74.8983 69.1048 74.0681C73.7205 56.0007 84.094 41.3923 97.5915 34.0158C109.423 27.5125 123.357 26.6234 132.823 26.4958C155.872 26.2011 179.367 30.5956 200.74 39.169C201.847 39.6305 202.95 40.0615 204.087 40.5194C212.023 43.79 220.187 47.1583 228.488 46.328C228.886 46.2823 229.314 46.2331 229.711 46.1874C231.607 45.9695 233.591 45.7104 235.582 46.3181C240.748 47.8622 242.623 53.6576 243.651 58.5588C244.526 62.6719 245.228 68.5091 241.147 71.5499C239.235 72.978 236.877 73.2181 234.798 73.4571C234.278 73.5169 233.789 73.5731 233.299 73.6294C227.109 74.4958 221.675 78.4357 216.445 82.2593C215.787 82.7377 215.129 83.2161 214.472 83.6944C196.379 96.6495 174.841 105.508 152.166 109.323C149.52 109.751 146.897 110.114 144.298 110.413Z" fill="#015CA5"/>
<path d="M174.919 128.025C174.796 128.039 174.64 128.026 174.514 128.009C165.906 126.706 157.224 125.039 148.756 123.069C141.18 121.306 132.303 118.206 130.868 110.036C130.708 109.187 131.27 108.41 132.119 108.25C132.968 108.091 133.745 108.652 133.905 109.501C135.044 115.908 142.811 118.516 149.466 120.075C156.947 121.818 164.557 123.329 172.162 124.53C168.463 117.148 162.468 111.082 156.084 108.377C155.301 108.033 154.951 107.144 155.264 106.364C155.577 105.585 156.497 105.231 157.276 105.544C165.094 108.86 172.343 116.671 176.161 125.899C176.374 126.401 176.288 127 175.967 127.439C175.696 127.78 175.316 127.979 174.919 128.025Z" fill="#015CA5"/>
<path d="M192.388 114.211C192.113 114.243 191.838 114.274 191.593 114.302C182.207 115.133 173.159 111.619 167.916 105.095C167.377 104.445 167.482 103.472 168.163 102.929C168.814 102.39 169.786 102.495 170.329 103.176C174.923 108.907 182.994 112.007 191.333 111.234C198.479 110.598 205.965 107.259 212.997 101.586C217.816 97.6863 223.214 93.1618 227.984 88.0279C222.574 88.4019 217.3 86.1886 214.184 81.9922C213.672 81.3075 213.807 80.3314 214.496 79.8495C215.18 79.337 216.156 79.4727 216.638 80.1609C219.867 84.5303 226.033 86.1453 231.657 84.1355C232.313 83.9052 233.051 84.1302 233.427 84.7066C233.834 85.2796 233.796 86.0275 233.363 86.5731C227.725 93.3249 220.868 99.1636 214.917 103.999C207.685 109.819 199.911 113.346 192.388 114.211Z" fill="#015CA5"/>
<path d="M217.415 48.3747C216.742 48.452 216.047 48.0671 215.813 47.3814C212.39 38.3558 204.509 29.9046 195.215 25.3339C185.758 20.689 175.152 18.7168 165.9 17.2087C158.577 16.0365 151.435 15.0914 144.479 16.5726C138.614 17.8356 131.428 21.6359 128.851 28.5937C128.572 29.4004 127.69 29.8116 126.879 29.502C126.073 29.2229 125.661 28.3407 125.971 27.5305C128.474 20.7361 135.324 15.3632 143.822 13.5498C151.291 11.9476 159.062 12.9753 166.388 14.1781C175.827 15.6958 186.719 17.728 196.571 22.5754C206.522 27.4733 214.97 36.541 218.691 46.2759C219 47.077 218.606 47.9589 217.805 48.2678C217.656 48.316 217.537 48.3606 217.415 48.3747Z" fill="#015CA5"/>
<path d="M268.117 91.0982C267.995 91.1123 267.873 91.1263 267.747 91.1098C256.81 89.7644 242.685 84.1378 235.788 72.3822C235.364 71.6564 235.595 70.7003 236.351 70.2726C237.077 69.8483 238.033 70.0792 238.461 70.8356C243.86 80.0679 254.274 85.2224 263.558 87.2846C261.357 84.0364 260.225 79.5809 260.348 74.4544C260.403 71.9694 260.703 69.4562 261.017 67.0654C261.42 63.8278 261.778 60.7501 261.61 57.6711C261.383 53.2665 260.065 49.0803 258.689 44.6529C258.004 42.4698 257.309 40.195 256.739 37.9366C255.562 33.0836 254.831 26.723 257.073 21.167C246.03 26.7122 237.052 36.4816 232.612 47.9912C232.299 48.7708 231.417 49.1821 230.607 48.8724C229.827 48.5592 229.416 47.677 229.725 46.8668C235.051 33.0866 246.473 21.6729 260.24 16.3723C260.892 16.1115 261.63 16.3364 262.037 16.9093C262.444 17.4823 262.409 18.2608 261.973 18.7758C257.432 24.2861 258.582 32.6744 259.687 37.164C260.215 39.3341 260.903 41.5478 261.585 43.7003C262.961 48.1277 264.382 52.6739 264.652 57.4454C264.821 60.8032 264.433 64.1631 264.03 67.4007C263.74 69.7269 263.46 72.1448 263.391 74.5075C263.331 77.4888 263.709 84.8195 268.787 88.2947C269.359 88.6936 269.6 89.4406 269.368 90.1179C269.183 90.6659 268.698 91.0314 268.117 91.0982Z" fill="#015CA5"/>
<path d="M132.76 103.312C132.331 103.361 131.913 103.223 131.568 102.922C130.944 102.343 130.866 101.391 131.441 100.737C136.789 94.6997 139.047 86.0436 137.308 78.1877C136.284 73.5959 134.107 69.4775 131.802 65.0638C131.09 63.7204 130.374 62.3464 129.693 60.9995C127.271 56.1036 124.228 48.7694 125.87 41.4855C126.053 40.6587 126.891 40.1287 127.718 40.3125C128.544 40.4963 129.074 41.3339 128.891 42.1606C127.45 48.4921 130.232 55.1746 132.448 59.6294C133.099 60.9798 133.842 62.3197 134.52 63.636C136.82 68.0191 139.231 72.5445 140.33 77.5304C142.274 86.3543 139.762 96.0312 133.754 102.795C133.479 103.105 133.127 103.269 132.76 103.312Z" fill="#015CA5"/>
<path d="M157.616 89.8901C156.331 90.0378 154.999 90.036 153.622 89.9155C148.106 89.3721 141.967 86.6386 138.783 85.0836C138.027 84.7058 137.704 83.7824 138.081 83.0263C138.459 82.2703 139.383 81.9472 140.139 82.3251C142.536 83.5057 148.686 86.331 153.919 86.8448C157.524 87.2051 162.351 86.3404 165.013 82.8121C167.241 79.8293 167.474 75.6508 167.662 71.6322L167.717 70.7584C167.908 67.2972 168.399 63.2129 170.45 60.0337C158.747 60.1086 147.051 64.8303 138.628 72.9558C138.015 73.5529 137.053 73.5396 136.456 72.9266C135.859 72.3136 135.872 71.3516 136.485 70.7544C146.303 61.2911 160.275 56.1529 173.889 57.0667C174.515 57.1187 175.057 57.5212 175.253 58.1493C175.445 58.7468 175.244 59.4206 174.732 59.8203C171.642 62.3134 171.01 67.0645 170.808 70.9608L170.753 71.8346C170.535 76.1355 170.319 80.9938 167.495 84.7266C165.313 87.5801 161.713 89.4191 157.616 89.8901Z" fill="#015CA5"/>
<path d="M77.5904 98.3135C76.9788 98.3838 76.3556 98.0836 76.0748 97.5272C75.6776 96.7673 75.9426 95.8383 76.7025 95.4411C79.4434 93.9487 81.6979 91.4587 82.8529 88.5684C83.166 87.7888 84.0824 87.4046 84.862 87.7177C85.6416 88.0309 86.0258 88.9473 85.7126 89.7269C84.268 93.3321 81.5735 96.3065 78.1609 98.155C77.9539 98.2407 77.7739 98.2924 77.5904 98.3135Z" fill="#015CA5"/>
<path d="M139.025 75.8828C138.719 75.9179 138.392 75.7696 138.265 75.4743C138.067 75.0944 138.231 74.6417 138.611 74.4431L152.694 67.3091C153.074 67.1105 153.527 67.2754 153.726 67.6553C153.924 68.0353 153.76 68.488 153.38 68.6866L139.296 75.8206C139.208 75.8617 139.116 75.8722 139.025 75.8828Z" fill="#015CA5"/>
<path d="M152.318 76.9578C152.287 76.9613 152.257 76.9648 152.226 76.9683C147.889 76.9712 143.573 77.4362 139.334 78.2953C138.91 78.3751 138.508 78.1115 138.428 77.6869C138.348 77.2623 138.612 76.8602 139.036 76.7804C143.363 75.8802 147.805 75.4316 152.234 75.4182C152.669 75.4302 153.017 75.762 153.005 76.1971C152.989 76.6017 152.685 76.9156 152.318 76.9578Z" fill="#015CA5"/>
<path d="M151.738 82.4468C151.708 82.4504 151.708 82.4504 151.677 82.4539C147.578 82.6462 143.398 81.8564 139.615 80.2153C139.224 80.0434 139.048 79.5988 139.22 79.2072C139.392 78.8157 139.837 78.6406 140.228 78.8125C143.783 80.3559 147.739 81.0785 151.624 80.9108C152.055 80.8922 152.403 81.224 152.422 81.6556C152.437 82.0567 152.136 82.4011 151.738 82.4468Z" fill="#015CA5"/>
<path d="M195.664 107.948C195.633 107.951 195.633 107.951 195.664 107.948C188.599 108.481 181.559 106.533 175.795 102.486C175.458 102.246 175.371 101.76 175.611 101.422C175.851 101.085 176.337 100.998 176.674 101.238C182.066 105.018 188.947 106.923 195.519 106.415C195.95 106.397 196.325 106.694 196.344 107.126C196.363 107.558 196.061 107.902 195.664 107.948Z" fill="#015CA5"/>
<path d="M202.425 103.7C196.217 104.414 189.688 102.871 184.454 99.3832C184.086 99.1467 183.999 98.6609 184.239 98.3235C184.476 97.9555 184.961 97.8686 185.299 98.1087C190.329 101.434 196.664 102.906 202.647 102.125C203.075 102.076 203.45 102.374 203.499 102.802C203.548 103.23 203.251 103.605 202.823 103.654C202.731 103.665 202.578 103.683 202.425 103.7Z" fill="#015CA5"/>
<path d="M209.989 99.1439C209.958 99.1474 209.928 99.1509 209.897 99.1544C204.4 99.0427 198.935 97.595 194.109 94.9584C193.744 94.7525 193.596 94.2738 193.802 93.9093C194.008 93.5448 194.487 93.3968 194.851 93.6027C199.45 96.1415 204.69 97.5222 209.939 97.6314C210.374 97.6434 210.691 97.9787 210.679 98.4138C210.66 98.7878 210.356 99.1017 209.989 99.1439Z" fill="#015CA5"/>
<path d="M215.8 93.0852C215.769 93.0887 215.769 93.0887 215.739 93.0922C211.262 93.2349 206.809 92.2286 202.824 90.177C202.46 89.971 202.315 89.5229 202.487 89.1313C202.693 88.7668 203.141 88.6224 203.533 88.7942C207.286 90.7176 211.488 91.6908 215.685 91.5492C216.117 91.5305 216.465 91.8623 216.483 92.294C216.502 92.7256 216.197 93.0395 215.8 93.0852Z" fill="#015CA5"/>
<path d="M256.186 75.7086C256.156 75.7121 256.156 75.7121 256.186 75.7086C250.478 76.1789 244.723 74.3617 240.341 70.7446C240 70.4739 239.974 69.9811 240.248 69.6708C240.519 69.3298 241.012 69.3041 241.322 69.5783C245.397 72.9519 250.764 74.6278 256.045 74.2066C256.473 74.1574 256.851 74.4857 256.87 74.9173C256.882 75.2878 256.584 75.6629 256.186 75.7086Z" fill="#015CA5"/>
<path d="M236.334 48.2762C236.212 48.2902 236.055 48.2772 235.922 48.1996C235.531 48.0277 235.352 47.5525 235.558 47.188C238.306 41.1711 242.987 36.0783 248.747 32.8136C249.127 32.615 249.576 32.7493 249.802 33.0952C250 33.4751 249.866 33.9243 249.52 34.15C244.052 37.2572 239.591 42.1078 236.964 47.8319C236.84 48.0941 236.609 48.2445 236.334 48.2762Z" fill="#015CA5"/>
<path d="M239.137 51.3934C238.923 51.418 238.699 51.3508 238.525 51.1849C238.211 50.8802 238.219 50.4145 238.524 50.1006C242.181 46.334 246.752 43.5157 251.781 41.9772C252.168 41.8397 252.627 42.0657 252.738 42.4868C252.879 42.9044 252.649 43.3336 252.228 43.4439C247.471 44.9202 243.096 47.561 239.636 51.1501C239.501 51.3206 239.321 51.3723 239.137 51.3934Z" fill="#015CA5"/>
<path d="M241.222 55.4909C240.947 55.5225 240.654 55.4012 240.504 55.1707C240.278 54.8248 240.348 54.352 240.721 54.0923C244.572 51.4807 249.235 50.2631 253.866 50.6602C254.305 50.7028 254.595 51.0722 254.549 51.4802C254.507 51.9189 254.137 52.2093 253.729 52.1632C249.506 51.8121 245.081 52.9404 241.575 55.3264C241.433 55.4357 241.314 55.4803 241.222 55.4909Z" fill="#015CA5"/>
<path d="M252.24 59.7099C248.968 60.086 245.66 60.1563 242.379 59.9138C241.941 59.8713 241.65 59.5019 241.666 59.0973C241.708 58.6586 242.078 58.3683 242.482 58.3838C246.732 58.7008 251.015 58.4874 255.203 57.7271C255.628 57.6473 256.033 57.9415 256.109 58.3355C256.189 58.7601 255.895 59.1657 255.501 59.242C254.434 59.3956 253.34 59.5833 252.24 59.7099Z" fill="#015CA5"/>
<path d="M255.494 68.0721C251.016 68.463 246.546 67.5825 242.561 65.5309C242.166 65.3285 242.021 64.8803 242.224 64.4852C242.426 64.0901 242.874 63.9457 243.269 64.1481C246.954 66.0173 251.234 66.8577 255.376 66.5055C255.804 66.4563 256.183 66.7846 256.201 67.2162C256.19 67.6514 255.892 68.0264 255.494 68.0721Z" fill="#015CA5"/>
<path d="M137.997 28.3799C137.783 28.4046 137.589 28.3339 137.418 28.1986C137.108 27.9244 137.052 27.4351 137.326 27.1248C140.713 23.1722 144.912 19.8081 149.499 17.3908C149.879 17.1923 150.328 17.3265 150.527 17.7065C150.725 18.0864 150.591 18.5356 150.211 18.7342C145.77 21.0727 141.714 24.3276 138.492 28.1061C138.384 28.2425 138.18 28.3589 137.997 28.3799Z" fill="#015CA5"/>
<path d="M148.182 29.3774C147.968 29.402 147.774 29.3313 147.604 29.196C147.263 28.9254 147.237 28.4326 147.511 28.1222C150.201 24.8386 153.716 22.2656 157.653 20.6667C158.037 20.4986 158.493 20.6941 158.661 21.0775C158.829 21.461 158.634 21.9173 158.25 22.0853C154.551 23.595 151.266 26.0175 148.708 29.1001C148.542 29.274 148.366 29.3563 148.182 29.3774Z" fill="#015CA5"/>
<path d="M159.517 29.8716C159.334 29.8927 159.113 29.8562 158.942 29.7209C158.601 29.4502 158.545 28.9609 158.819 28.6506C161.8 24.9307 165.626 21.8263 169.908 19.723C170.287 19.5244 170.74 19.6892 170.939 20.0692C171.137 20.4491 170.973 20.9019 170.593 21.1004C166.518 23.118 162.861 26.079 160.047 29.6249C159.877 29.7683 159.701 29.8505 159.517 29.8716Z" fill="#015CA5"/>
<path d="M168.191 32.0349C167.977 32.0595 167.722 31.9959 167.544 31.7994C167.23 31.4947 167.235 30.9984 167.543 30.7151C171.13 27.1425 175.241 24.0982 179.706 21.695C180.086 21.4964 180.535 21.6307 180.733 22.0106C180.932 22.3906 180.798 22.8398 180.418 23.0384C176.069 25.3664 172.099 28.3013 168.629 31.7987C168.52 31.9351 168.374 32.0138 168.191 32.0349Z" fill="#015CA5"/>
<path d="M177.593 33.7735C177.349 33.8016 177.09 33.7074 176.912 33.5109C176.629 33.2027 176.665 32.7029 177.003 32.416C180.476 29.4761 184.353 27.0786 188.513 25.268C188.897 25.1 189.353 25.2955 189.521 25.6789C189.689 26.0624 189.494 26.5186 189.11 26.6867C185.065 28.422 181.334 30.7408 177.973 33.5749C177.865 33.7113 177.746 33.7559 177.593 33.7735Z" fill="#015CA5"/>
<path d="M185.553 35.895C185.339 35.9196 185.084 35.856 184.907 35.6595C184.623 35.3512 184.598 34.8584 184.906 34.5751C188.11 31.4493 192.006 28.9565 196.195 27.3906C196.582 27.2531 197.038 27.4486 197.175 27.8356C197.313 28.2226 197.118 28.6788 196.731 28.8162C192.749 30.2964 189.026 32.6764 185.961 35.6623C185.886 35.8257 185.737 35.8739 185.553 35.895Z" fill="#015CA5"/>
<path d="M193.604 39.09C193.329 39.1217 193.036 39.0004 192.852 38.7428C192.626 38.3969 192.726 37.9206 193.103 37.6915L200.825 32.8999C201.171 32.6742 201.647 32.7744 201.876 33.1508C202.102 33.4967 202.001 33.973 201.625 34.2022L193.903 38.9937C193.846 39.0313 193.727 39.076 193.604 39.09Z" fill="#015CA5"/>
<path d="M202.961 41.238C202.716 41.2661 202.488 41.1684 202.314 41.0025C202.03 40.6942 202.066 40.1944 202.374 39.9111C204.031 38.4194 205.872 37.1853 207.87 36.2429C208.254 36.0749 208.707 36.2397 208.905 36.6197C209.073 37.0032 208.908 37.4559 208.528 37.6545C206.645 38.5216 204.919 39.6805 203.405 41.0629C203.259 41.1417 203.113 41.2204 202.961 41.238Z" fill="#015CA5"/>
<path d="M148.776 118.636C148.623 118.653 148.497 118.637 148.364 118.559C144.625 116.758 141.368 114.034 138.878 110.695C138.621 110.353 138.691 109.88 139.033 109.624C139.376 109.368 139.848 109.437 140.105 109.78C142.418 112.922 145.5 115.48 149.011 117.183C149.403 117.355 149.551 117.834 149.379 118.226C149.281 118.454 149.02 118.608 148.776 118.636Z" fill="#015CA5"/>
<path d="M156.254 116.847C156.162 116.857 156.067 116.837 155.971 116.817C151.752 115.691 147.932 113.187 145.24 109.716C144.984 109.374 145.054 108.901 145.365 108.648C145.708 108.392 146.18 108.461 146.433 108.773C148.937 111.956 152.457 114.278 156.357 115.317C156.772 115.424 157.008 115.861 156.897 116.246C156.844 116.593 156.559 116.811 156.254 116.847Z" fill="#015CA5"/>
<path d="M161.634 116.477C161.45 116.498 161.29 116.455 161.123 116.35C157.774 114.163 154.572 111.65 151.625 108.921C151.311 108.616 151.289 108.154 151.594 107.84C151.868 107.53 152.361 107.504 152.675 107.809C155.554 110.484 158.656 112.946 161.938 115.079C162.306 115.315 162.393 115.801 162.153 116.139C162.082 116.333 161.878 116.449 161.634 116.477Z" fill="#015CA5"/>
<path d="M141.731 46.0445C141.578 46.062 141.452 46.0455 141.288 45.9714C140.893 45.7689 140.749 45.3207 140.951 44.9257C142.564 41.7039 142.048 37.4874 139.72 34.7497C139.436 34.4414 139.472 33.9416 139.811 33.6548C140.119 33.3715 140.619 33.4069 140.906 33.7458C143.63 36.9647 144.223 41.854 142.331 45.6037C142.236 45.8624 142.006 46.0128 141.731 46.0445Z" fill="#015CA5"/>
<path d="M142.028 63.1765C141.814 63.2011 141.59 63.134 141.416 62.9681C141.105 62.6939 141.08 62.2011 141.384 61.8872C142.515 60.6728 143.1 59.0254 143.067 57.3871C142.999 55.7217 142.29 54.1302 141.106 52.9959C140.792 52.6912 140.8 52.2255 141.075 51.9151C141.379 51.6012 141.845 51.6096 142.155 51.8838C143.65 53.2922 144.531 55.2978 144.61 57.3337C144.689 59.3695 143.935 61.4391 142.527 62.9333C142.388 63.0732 142.212 63.1554 142.028 63.1765Z" fill="#015CA5"/>
<path d="M145.683 100.37C145.469 100.395 145.275 100.324 145.105 100.189C144.794 99.9145 144.738 99.4252 145.012 99.1149C146.65 97.1915 146.928 94.2161 145.716 92.0316C145.518 91.6517 145.652 91.2025 146.028 90.9733C146.408 90.7747 146.857 90.909 147.087 91.2854C148.613 94.0534 148.256 97.6885 146.213 100.123C146.043 100.267 145.867 100.349 145.683 100.37Z" fill="#015CA5"/>
<path d="M149.784 53.8266C149.6 53.8477 149.41 53.8076 149.243 53.7028C148.905 53.4628 148.818 52.977 149.058 52.6396C150.979 49.9401 150.862 45.9567 148.772 43.4084C148.516 43.066 148.555 42.5968 148.893 42.31C149.236 42.0537 149.705 42.0927 149.992 42.4316C152.516 45.5187 152.663 50.3042 150.34 53.5457C150.201 53.6856 149.998 53.802 149.784 53.8266Z" fill="#015CA5"/>
<path d="M159.849 45.1704C159.696 45.188 159.539 45.175 159.407 45.0973C159.042 44.8914 158.867 44.4467 159.069 44.0516C160.385 41.4836 159.58 37.9821 157.276 36.264C156.935 35.9934 156.882 35.5347 157.122 35.1973C157.393 34.8563 157.851 34.8036 158.189 35.0436C161.107 37.2489 162.092 41.5044 160.422 44.7638C160.327 45.0225 160.093 45.1423 159.849 45.1704Z" fill="#015CA5"/>
<path d="M158.91 59.0976C158.726 59.1187 158.505 59.0821 158.365 58.9433C158.024 58.6726 157.972 58.2139 158.212 57.8765C159.693 55.9401 159.897 53.1282 158.661 51.0084C158.432 50.6319 158.567 50.1827 158.943 49.9535C159.319 49.7243 159.769 49.8586 159.998 50.2351C161.541 52.8772 161.296 56.4065 159.436 58.8202C159.297 58.9601 159.093 59.0765 158.91 59.0976Z" fill="#015CA5"/>
<path d="M160.979 98.3946C160.826 98.4122 160.669 98.3992 160.537 98.3215C160.172 98.1156 160.028 97.6674 160.23 97.2723C161.482 94.9595 160.872 91.8073 158.85 90.1188C158.54 89.8446 158.483 89.3554 158.758 89.045C159.032 88.7346 159.521 88.6784 159.831 88.9525C162.372 91.1082 163.138 95.079 161.552 97.988C161.423 98.2196 161.223 98.3665 160.979 98.3946Z" fill="#015CA5"/>
<path d="M173.576 49.2317C173.423 49.2493 173.233 49.2092 173.1 49.1315C172.735 48.9255 172.618 48.4433 172.824 48.0788C174.253 45.6837 173.702 42.2458 171.605 40.442C171.295 40.1678 171.238 39.6785 171.543 39.3646C171.817 39.0543 172.307 38.998 172.62 39.3028C175.304 41.6279 175.977 45.8574 174.156 48.8862C174.021 49.0566 173.79 49.2071 173.576 49.2317Z" fill="#015CA5"/>
<path d="M176.382 75.8025C176.26 75.8166 176.134 75.8 176.005 75.7529C175.617 75.6116 175.408 75.1399 175.579 74.7484C176.677 71.8957 176.191 68.4813 174.306 66.0954C174.05 65.753 174.089 65.2838 174.431 65.0275C174.773 64.7713 175.243 64.8103 175.499 65.1527C177.716 67.9962 178.299 71.9881 177.009 75.3276C176.915 75.5863 176.657 75.7709 176.382 75.8025Z" fill="#015CA5"/>
<path d="M175.074 91.9116C174.891 91.9326 174.731 91.8891 174.564 91.7843C174.196 91.5478 174.109 91.062 174.349 90.7246C175.823 88.4483 175.998 85.3917 174.789 82.9591C174.59 82.5791 174.755 82.1264 175.135 81.9278C175.515 81.7292 175.968 81.894 176.166 82.274C177.615 85.1749 177.415 88.823 175.654 91.566C175.492 91.7706 175.288 91.8869 175.074 91.9116Z" fill="#015CA5"/>
<path d="M184.473 83.6423C184.259 83.6669 184.065 83.5962 183.895 83.4609C183.554 83.1903 183.528 82.6975 183.802 82.3871C185.464 80.3991 185.411 77.2448 183.701 75.3035C183.417 74.9952 183.453 74.4954 183.761 74.2121C184.069 73.9288 184.569 73.9643 184.853 74.2726C187.027 76.7492 187.094 80.8314 184.969 83.3685C184.83 83.5084 184.657 83.6212 184.473 83.6423Z" fill="#015CA5"/>
<path d="M182.47 61.3782C182.287 61.3993 182.096 61.3593 181.929 61.2545C181.592 61.0144 181.505 60.5287 181.745 60.1913C183.631 57.4647 183.354 53.4377 181.092 51.0022C180.808 50.694 180.813 50.1977 181.121 49.9144C181.43 49.6311 181.926 49.636 182.209 49.9442C184.964 52.8809 185.308 57.7677 183.02 61.0362C182.888 61.2373 182.684 61.3536 182.47 61.3782Z" fill="#015CA5"/>
<path d="M189.845 50.057C189.754 50.0676 189.658 50.0475 189.563 50.0275C189.148 49.9203 188.915 49.5132 189.023 49.0981C189.666 46.6075 188.785 43.7962 186.885 42.0936C186.575 41.8195 186.549 41.3267 186.823 41.0163C187.097 40.7059 187.59 40.6803 187.901 40.9544C190.247 43.0395 191.29 46.4517 190.523 49.4834C190.405 49.8067 190.151 50.0219 189.845 50.057Z" fill="#015CA5"/>
<path d="M190.361 72.0589C190.209 72.0764 190.083 72.0599 189.919 71.9858C189.524 71.7833 189.38 71.3352 189.582 70.9401C190.459 69.1352 189.78 66.7345 188.107 65.6565C187.739 65.4199 187.656 64.9647 187.862 64.6002C188.099 64.2322 188.554 64.1489 188.918 64.3549C191.256 65.8213 192.166 69.1559 190.961 71.6181C190.867 71.8768 190.637 72.0272 190.361 72.0589Z" fill="#015CA5"/>
<path d="M192.68 88.7404C192.466 88.765 192.242 88.6978 192.068 88.5319C191.757 88.2578 191.732 87.765 192.036 87.4511C193.634 85.7182 193.762 82.791 192.28 80.9475C192.024 80.6051 192.063 80.1359 192.405 79.8796C192.748 79.6234 193.217 79.6624 193.473 80.0048C195.393 82.4177 195.244 86.2458 193.152 88.5312C193.01 88.6405 192.864 88.7193 192.68 88.7404Z" fill="#015CA5"/>
<path d="M196.546 59.2943C196.363 59.3154 196.203 59.2718 196.036 59.167C195.668 58.9305 195.581 58.4447 195.821 58.1073C197.67 55.3231 197.584 51.3362 195.568 48.6244C195.312 48.2821 195.381 47.8093 195.724 47.5531C196.066 47.2968 196.539 47.3664 196.795 47.7088C199.176 50.9052 199.286 55.6331 197.096 58.9523C196.964 59.1533 196.761 59.2697 196.546 59.2943Z" fill="#015CA5"/>
<path d="M200.308 78.0112C200.155 78.0288 200.029 78.0123 199.896 77.9346C199.505 77.7627 199.357 77.284 199.532 76.923C200.608 74.6924 200.19 71.8591 198.52 70.006C198.237 69.6978 198.272 69.1979 198.581 68.9146C198.889 68.6313 199.389 68.6668 199.672 68.9751C201.761 71.2447 202.264 74.8119 200.939 77.5669C200.814 77.8292 200.583 77.9796 200.308 78.0112Z" fill="#015CA5"/>
<path d="M204.056 68.2844C203.903 68.302 203.713 68.2619 203.58 68.1842C203.215 67.9783 203.098 67.496 203.304 67.1315C204.601 64.9375 204.42 62.0149 202.855 59.9949C202.599 59.6525 202.669 59.1798 203.011 58.9235C203.353 58.6673 203.826 58.7369 204.082 59.0792C206.012 61.5839 206.213 65.2169 204.636 67.9389C204.501 68.1094 204.301 68.2563 204.056 68.2844Z" fill="#015CA5"/>
<path d="M208.974 58.2377C208.821 58.2553 208.63 58.2152 208.497 58.1375C208.133 57.9315 208.016 57.4493 208.222 57.0848C209.647 54.6592 209.134 51.2789 207.057 49.3798C206.747 49.1056 206.721 48.6128 206.995 48.3024C207.269 47.9921 207.762 47.9664 208.072 48.2406C210.668 50.6068 211.31 54.8398 209.55 57.8616C209.418 58.0626 209.218 58.2096 208.974 58.2377Z" fill="#015CA5"/>
<path d="M210.246 79.006C210.123 79.0201 209.967 79.0071 209.834 78.9294C209.442 78.7575 209.267 78.3129 209.439 77.9213C210.478 75.6331 210.147 72.7586 208.586 70.7692C208.33 70.4268 208.369 69.9576 208.711 69.7014C209.054 69.4451 209.523 69.4841 209.779 69.8265C211.668 72.243 212.103 75.7561 210.846 78.5653C210.751 78.824 210.521 78.9744 210.246 79.006Z" fill="#015CA5"/>
<path d="M216.608 69.3825C216.486 69.3966 216.329 69.3836 216.196 69.3059C215.805 69.1341 215.63 68.6894 215.802 68.2979C216.867 65.9755 216.826 63.1917 215.723 60.8708C215.555 60.4874 215.719 60.0346 216.099 59.836C216.483 59.668 216.936 59.8329 217.134 60.2128C218.406 62.9172 218.442 66.1973 217.205 68.9112C217.114 69.2005 216.853 69.3544 216.608 69.3825Z" fill="#015CA5"/>
<path d="M223.525 60.0346C223.342 60.0557 223.151 60.0157 222.984 59.9109C222.647 59.6709 222.56 59.1851 222.8 58.8477C223.52 57.8354 223.699 56.4206 223.256 55.2632C222.813 54.1057 221.772 53.1409 220.561 52.8463C220.146 52.7391 219.913 52.3321 219.99 51.9205C220.097 51.5054 220.504 51.2727 220.916 51.3493C222.637 51.7711 224.056 53.0642 224.681 54.7275C225.306 56.3907 225.062 58.3088 224.051 59.7573C223.912 59.8972 223.709 60.0136 223.525 60.0346Z" fill="#015CA5"/>
<path d="M224.272 72.4664C224.088 72.4875 223.928 72.4439 223.761 72.3391C223.393 72.1026 223.307 71.6168 223.547 71.2794C224.841 69.3335 224.964 66.6239 223.858 64.5512C223.659 64.1712 223.793 63.722 224.17 63.4928C224.55 63.2942 224.999 63.4285 225.228 63.8049C226.608 66.3729 226.464 69.7047 224.852 72.1209C224.689 72.3254 224.486 72.4418 224.272 72.4664Z" fill="#015CA5"/>
<path d="M232.769 65.2319C232.646 65.2459 232.49 65.2329 232.361 65.1858C231.969 65.0139 231.794 64.5693 231.966 64.1777C233.024 61.7943 232.813 58.8751 231.383 56.6847C231.158 56.3388 231.258 55.8625 231.604 55.6369C231.95 55.4112 232.426 55.5114 232.652 55.8572C234.351 58.5124 234.622 61.9514 233.342 64.8252C233.274 65.0498 233.044 65.2002 232.769 65.2319Z" fill="#015CA5"/>
<path d="M12.5913 52.5245C8.70769 52.9709 5.14603 51.3664 3.07396 48.1654C1.53196 45.8019 1.15692 42.8086 2.04019 39.9805C2.92347 37.1524 4.98141 34.84 7.46575 33.8108C11.077 32.3422 14.9472 32.8578 17.7806 35.1348C20.6481 37.4388 21.9603 41.037 21.3424 44.8261C20.7174 48.554 17.6795 51.5058 13.5934 52.3473C13.2911 52.4131 12.9277 52.4858 12.5913 52.5245ZM8.66296 36.6786C7.00674 37.3647 5.63944 38.9471 4.99763 40.9109C4.3864 42.8712 4.61839 44.8894 5.67147 46.5035C7.51436 49.3281 10.6708 49.8328 13.0314 49.3445C15.8472 48.773 17.9438 46.7969 18.373 44.3308C18.8116 41.6778 17.9012 39.1488 15.9202 37.5485C13.8745 35.9246 11.2355 35.6083 8.66296 36.6786Z" fill="#015CA5"/>
<path d="M14.2047 38.5205C13.224 38.0755 12.0044 38.2467 11.2937 39.072C10.5559 39.9314 10.7341 41.2122 11.3865 42.0357C12.0047 42.8322 12.9959 43.3689 14.0086 43.2835C15.0212 43.1981 15.8813 42.3246 15.9558 41.3556C16.0599 40.1043 15.2876 39.0466 14.2047 38.5205C13.8437 38.3451 13.3379 38.5271 13.1966 38.9152C13.0247 39.3067 13.1998 39.7514 13.5914 39.9233C13.6254 39.9503 13.6595 39.9774 13.7207 39.9704C13.5878 39.8927 13.8501 40.0175 13.7207 39.9704C13.8195 40.021 13.8877 40.0751 13.9594 40.1598C13.9935 40.1869 14.0276 40.2139 14.0617 40.241C14.0617 40.241 14.0957 40.2681 14.0993 40.2986C14.0993 40.2986 13.99 40.1563 14.0311 40.2445C14.1028 40.3292 14.1404 40.3869 14.2121 40.4716C14.2462 40.4986 14.2497 40.5292 14.2838 40.5563C14.2873 40.5869 14.3214 40.6139 14.3214 40.6139C14.359 40.6716 14.2768 40.4951 14.2803 40.5257C14.3214 40.6139 14.359 40.6716 14.4002 40.7598C14.4037 40.7904 14.4378 40.8174 14.4413 40.848C14.4448 40.8786 14.4448 40.8786 14.4483 40.9092C14.4859 40.9668 14.4037 40.7904 14.4342 40.7869C14.4648 40.7834 14.4588 41.0009 14.4624 41.0315C14.4659 41.0621 14.4694 41.0927 14.4729 41.1232C14.487 41.2456 14.4789 40.9057 14.4659 41.0621C14.4423 41.1268 14.4529 41.2185 14.4293 41.2832C14.4128 41.409 14.4799 41.1844 14.4529 41.2185C14.4258 41.2526 14.4293 41.2832 14.4329 41.3137C14.4058 41.3478 14.4093 41.3784 14.3822 41.4125L14.3552 41.4466C14.3316 41.5113 14.4634 41.3102 14.4093 41.3784C14.3551 41.4466 14.3316 41.5113 14.274 41.5489L14.2469 41.583C14.1928 41.6512 14.3316 41.5113 14.3316 41.5113C14.3046 41.5454 14.2469 41.583 14.2198 41.6171C14.1928 41.6512 14.1622 41.6547 14.1351 41.6888C14.0198 41.764 14.281 41.6101 14.1928 41.6512L13.9552 41.7405C13.9552 41.7405 14.1386 41.7194 14.074 41.6958C14.0434 41.6993 14.0434 41.6993 14.0128 41.7029C13.9822 41.7064 13.9211 41.7134 13.8905 41.7169C13.8599 41.7204 13.8293 41.7239 13.7987 41.7275C13.707 41.738 13.9211 41.7134 13.9246 41.744C13.9246 41.744 13.8634 41.751 13.8328 41.7545C13.7717 41.7616 13.6764 41.7415 13.6118 41.718C13.5812 41.7215 13.5165 41.6979 13.4859 41.7015C13.4859 41.7015 13.6494 41.7756 13.5812 41.7215C13.5506 41.725 13.5471 41.6944 13.5165 41.6979C13.4518 41.6744 13.3566 41.6544 13.2884 41.6002C13.2543 41.5732 13.2237 41.5767 13.1896 41.5496C13.159 41.5531 13.1555 41.5225 13.1249 41.5261C13.0568 41.4719 13.2919 41.6308 13.1896 41.5496C13.0532 41.4414 12.9204 41.3637 12.7805 41.2248C12.6782 41.1436 12.9204 41.3637 12.7805 41.2248C12.7464 41.1978 12.7429 41.1672 12.7088 41.1401C12.6371 41.0554 12.5995 40.9978 12.5583 40.9095C12.5548 40.879 12.5548 40.879 12.5207 40.8519C12.5207 40.8519 12.603 41.0284 12.5619 40.9401C12.5583 40.9096 12.5243 40.8825 12.5172 40.8213C12.4761 40.7331 12.4655 40.6414 12.4279 40.5837C12.3868 40.4955 12.4726 40.7025 12.442 40.706C12.4385 40.6755 12.435 40.6449 12.435 40.6449C12.4314 40.6143 12.4279 40.5837 12.4209 40.5226C12.4174 40.492 12.4139 40.4614 12.4068 40.4002C12.4033 40.3697 12.3998 40.3391 12.3998 40.3391C12.3998 40.3391 12.3903 40.5261 12.4103 40.4308C12.4304 40.3356 12.4234 40.2744 12.4469 40.2097C12.4634 40.0839 12.3728 40.3732 12.4504 40.2403C12.4775 40.2062 12.474 40.1756 12.4975 40.111L12.5246 40.0769C12.5787 40.0087 12.4198 40.2438 12.501 40.1415C12.5281 40.1074 12.5552 40.0734 12.5822 40.0393L12.6093 40.0052C12.6634 39.937 12.5551 40.0734 12.5551 40.0734C12.5822 40.0393 12.6399 40.0016 12.6669 39.9676C12.694 39.9335 12.7246 39.9299 12.7822 39.8923C12.8399 39.8547 12.6669 39.9676 12.694 39.9335C12.694 39.9335 12.7516 39.8958 12.7822 39.8923C12.8128 39.8888 12.8705 39.8512 12.901 39.8477C12.9316 39.8442 12.9316 39.8442 12.9622 39.8407C13.081 39.796 12.901 39.8477 12.901 39.8477C12.9587 39.8101 13.0845 39.8266 13.1763 39.8161C13.2068 39.8125 13.2986 39.802 13.3292 39.7985C13.3597 39.795 13.1422 39.789 13.2068 39.8125C13.2374 39.809 13.268 39.8055 13.268 39.8055C13.3632 39.8255 13.4585 39.8456 13.5537 39.8656C13.5537 39.8656 13.3903 39.7915 13.4585 39.8456C13.4926 39.8726 13.5232 39.8691 13.5537 39.8656C13.6184 39.8892 13.6525 39.9162 13.6866 39.9433C14.0476 40.1187 14.5534 39.9366 14.6947 39.5486C14.7407 39.1405 14.5963 38.6923 14.2047 38.5205Z" fill="#015CA5"/>
<path d="M37.3387 79.9508C33.0269 80.4465 29.009 78.6465 26.7113 75.0996C24.9812 72.448 24.5675 69.1183 25.5685 65.9668C26.566 62.7848 28.844 60.2301 31.6236 59.0741C35.6489 57.434 39.9578 57.9921 43.1663 60.5668C46.3747 63.1414 47.8313 67.1878 47.1368 71.3884C46.4352 75.528 43.0349 78.8313 38.4972 79.7867C38.1031 79.863 37.7056 79.9087 37.3387 79.9508ZM35.2862 61.2867C34.4605 61.3816 33.6184 61.6023 32.7597 61.9489C30.8047 62.7313 29.1903 64.59 28.4648 66.9043C27.7358 69.1879 28.0406 71.5696 29.2476 73.4448C31.3949 76.7611 35.0887 77.359 37.8399 76.7639C41.1379 76.0749 43.6004 73.7779 44.0721 70.8732C44.5839 67.7779 43.5325 64.8314 41.2106 62.9604C39.5364 61.6037 37.4573 61.0371 35.2862 61.2867Z" fill="#015CA5"/>
<path d="M39.1356 64.3143C38.0868 63.8152 36.7177 64.0345 35.9529 64.928C35.161 65.8556 35.3532 67.2588 36.0467 68.1705C36.7026 69.0246 37.8267 69.639 38.9311 69.5431C40.0355 69.4471 40.9497 68.5055 41.0407 67.4106C41.1648 66.064 40.3208 64.9217 39.1356 64.3143C38.7746 64.1389 38.2688 64.321 38.1275 64.709C37.9556 65.1006 38.1307 65.5452 38.5223 65.7171C38.5564 65.7442 38.621 65.7677 38.6551 65.7948C38.7845 65.8419 38.5223 65.7171 38.6892 65.8218C38.788 65.8725 38.8903 65.9536 38.962 66.0384C38.9961 66.0654 39.0302 66.0925 39.0643 66.1196L39.1019 66.1772C39.1019 66.1772 38.9961 66.0654 39.0337 66.1231C39.1054 66.2078 39.1771 66.2925 39.2488 66.3772C39.2829 66.4043 39.2864 66.4348 39.324 66.4925C39.3276 66.5231 39.3616 66.5501 39.3652 66.5807C39.4028 66.6384 39.324 66.4925 39.324 66.4925C39.3346 66.5842 39.4063 66.6689 39.4474 66.7572C39.4509 66.7877 39.4885 66.8454 39.492 66.876C39.4955 66.9065 39.4955 66.9065 39.4991 66.9371C39.5402 67.0253 39.485 66.8148 39.4885 66.8454C39.4991 66.9371 39.5096 67.0289 39.5201 67.1206C39.5237 67.1512 39.5307 67.2123 39.5342 67.2429C39.5483 67.3652 39.5437 67.0559 39.5307 67.2123C39.5107 67.3076 39.5212 67.3993 39.4977 67.464C39.5012 67.4946 39.4706 67.4981 39.4741 67.5287C39.4741 67.5287 39.5483 67.3652 39.4941 67.4334C39.4671 67.4675 39.4706 67.4981 39.4436 67.5322C39.4165 67.5663 39.42 67.5969 39.3964 67.6615C39.3999 67.6921 39.3694 67.6956 39.3729 67.7262C39.3493 67.7909 39.4811 67.5898 39.427 67.658C39.3729 67.7262 39.3188 67.7944 39.2646 67.8626L39.2376 67.8967C39.1834 67.9649 39.3223 67.825 39.2917 67.8285C39.234 67.8661 39.207 67.9002 39.1799 67.9343C39.1529 67.9684 39.1223 67.9719 39.0646 68.0095C38.9494 68.0847 39.2105 67.9308 39.0952 68.006C39.007 68.0471 38.9152 68.0577 38.827 68.0988C38.827 68.0988 39.0105 68.0777 38.9188 68.0883C38.8882 68.0918 38.8882 68.0918 38.8576 68.0953C38.827 68.0988 38.7658 68.1058 38.7047 68.1129C38.6741 68.1164 38.613 68.1234 38.5824 68.1269C38.4907 68.1375 38.7082 68.1434 38.6776 68.147C38.6471 68.1505 38.6165 68.154 38.5824 68.1269C38.4871 68.1069 38.426 68.1139 38.3307 68.0939C38.3001 68.0974 38.2355 68.0738 38.1708 68.0503C38.1708 68.0503 38.3307 68.0939 38.2661 68.0703C38.2355 68.0738 38.2014 68.0468 38.1708 68.0503C38.0755 68.0303 38.0073 67.9761 37.9121 67.9561C37.878 67.929 37.8439 67.902 37.7828 67.909C37.7522 67.9125 37.7486 67.8819 37.7181 67.8855C37.6193 67.8348 37.8544 67.9937 37.7521 67.9125C37.5852 67.8078 37.4453 67.6689 37.3089 67.5607C37.2067 67.4795 37.4183 67.703 37.3089 67.5607C37.2748 67.5336 37.2407 67.5066 37.2337 67.4454C37.162 67.3607 37.1209 67.2725 37.0492 67.1877C37.0456 67.1572 37.0151 67.1607 37.0116 67.1301C37.0116 67.1301 37.0903 67.276 37.0527 67.2183C37.0492 67.1877 37.0116 67.1301 37.008 67.0995C36.9669 67.0113 36.9564 66.9196 36.9117 66.8008C36.8741 66.7431 36.9223 66.8925 36.9223 66.8925C36.9188 66.8619 36.9153 66.8313 36.9117 66.8008C36.9082 66.7702 36.9012 66.709 36.8977 66.6784C36.8942 66.6479 36.8871 66.5867 36.8836 66.5561C36.8801 66.5255 36.8766 66.495 36.8731 66.4644C36.8766 66.495 36.8636 66.6514 36.8801 66.5255C36.9001 66.4303 36.8896 66.3385 36.9131 66.2739C36.839 66.4373 36.9297 66.148 36.9131 66.2739C36.9402 66.2398 36.9638 66.1751 36.9603 66.1445C36.9567 66.1139 36.9873 66.1104 36.9838 66.0799C37.0379 66.0117 36.8755 66.2162 36.9567 66.1139C36.9838 66.0798 37.0108 66.0458 37.0379 66.0117L37.065 65.9776C37.1191 65.9094 37.0379 66.0117 37.0073 66.0152C37.0379 66.0117 37.0921 65.9435 37.1191 65.9094C37.1462 65.8753 37.2074 65.8682 37.2344 65.8342C37.2921 65.7965 37.1462 65.8753 37.1462 65.8753C37.1768 65.8718 37.2038 65.8377 37.2344 65.8342C37.2956 65.8271 37.3226 65.793 37.3838 65.786C37.4144 65.7825 37.4144 65.7825 37.4449 65.779C37.5637 65.7343 37.445 65.779 37.3838 65.786C37.4755 65.7754 37.5638 65.7343 37.6896 65.7508C37.7508 65.7438 37.8154 65.7674 37.8731 65.7298C37.8731 65.7298 37.6861 65.7203 37.7813 65.7403C37.8119 65.7368 37.8425 65.7333 37.8766 65.7603C37.9718 65.7804 38.1318 65.8239 38.1929 65.8169C38.1929 65.8169 38.033 65.7733 38.0977 65.7969C38.1318 65.824 38.1623 65.8204 38.1964 65.8475C38.2611 65.8711 38.2952 65.8981 38.3599 65.9217C38.7209 66.0971 39.2267 65.915 39.368 65.5269C39.6717 64.9343 39.5307 64.5167 39.1356 64.3143Z" fill="#015CA5"/>
</g>
</svg>
