<svg width="32" height="32" viewBox="0 0 32 32" fill="none" xmlns="http://www.w3.org/2000/svg">
<mask id="mask0_354_295" style="mask-type:alpha" maskUnits="userSpaceOnUse" x="0" y="0" width="32" height="32">
<rect width="32" height="32" fill="#D9D9D9"/>
</mask>
<g mask="url(#mask0_354_295)">
<path d="M9.33366 18.6663V26.6663C9.33366 27.0441 9.20588 27.3608 8.95033 27.6163C8.69477 27.8719 8.3781 27.9997 8.00033 27.9997C7.62255 27.9997 7.30588 27.8719 7.05033 27.6163C6.79477 27.3608 6.66699 27.0441 6.66699 26.6663V6.66634C6.66699 6.28856 6.79477 5.9719 7.05033 5.71634C7.30588 5.46079 7.62255 5.33301 8.00033 5.33301H17.567C17.8781 5.33301 18.1559 5.43301 18.4003 5.63301C18.6448 5.83301 18.8003 6.08856 18.867 6.39967L19.2003 7.99967H25.3337C25.7114 7.99967 26.0281 8.12745 26.2837 8.38301C26.5392 8.63856 26.667 8.95523 26.667 9.33301V19.9997C26.667 20.3775 26.5392 20.6941 26.2837 20.9497C26.0281 21.2052 25.7114 21.333 25.3337 21.333H18.4337C18.1225 21.333 17.8448 21.233 17.6003 21.033C17.3559 20.833 17.2003 20.5775 17.1337 20.2663L16.8003 18.6663H9.33366Z" fill="#3072B6"/>
</g>
</svg>
