<svg width="1440" height="154" viewBox="0 0 1440 154" fill="none" xmlns="http://www.w3.org/2000/svg">
<path d="M1440 8.14544C1432.36 9.57423 1424.51 11.5782 1416.3 14.1053C1402.56 18.3335 1388.83 22.5617 1375.09 23.5144C1362.49 24.3885 1348.12 20.1505 1331.18 15.1507C1309.81 8.84437 1284.33 1.32615 1253.09 1.32615C1230.78 1.32615 1211.65 6.43882 1193.23 11.3622C1165.4 18.7986 1139.18 25.8032 1106.09 14.1053C1051.09 -5.33735 1016.59 -4.80044 971.09 16.4625C925.59 37.7254 888.515 33.7537 858.251 24.0776C855.319 23.1405 852.418 22.1583 849.537 21.1832C838.05 17.295 826.894 13.5185 815.501 13.1501C799.532 12.5599 783.563 17.9218 767.594 23.2837C755.062 27.4913 742.531 31.6989 730 33.0303C714.151 34.7142 698.303 31.7567 682.454 28.7992C669.803 26.4384 657.151 24.0776 644.5 24.0776C631.335 24.0776 618.17 26.6341 605.005 29.1905C589.67 32.1683 574.335 35.1462 559 34.0836C545.264 33.1317 531.527 28.9073 517.791 24.6829C503.027 20.1426 488.264 15.6024 473.5 15.125C451.7 14.3193 432.878 18.7266 414.101 23.1232C391.012 28.5295 367.993 33.9196 339.591 29.5808C324.241 27.236 309.566 23.4467 295.087 19.7079C260.546 10.789 227.117 2.15706 188.3 14.1053C174.563 18.3335 160.827 22.5617 147.09 23.5144C131.755 24.5779 116.42 21.5974 101.085 18.6169C73.4948 13.2545 51.2879 13.0608 23.6367 18.2253C7.78796 21.1855 -8.06079 24.1456 -23.9096 22.4602C-36.4406 21.1276 -48.9717 16.9162 -61.5027 12.7049C-95.9401 1.13146 -118.408 1.09298 -152.16 13.4995C-155.267 14.6418 -158.494 15.9191 -161.787 17.2229C-173.596 21.8976 -186.267 26.9135 -197.41 27.2741C-281.985 27.2741 -281.96 29.0645 -280.756 114.567C-280.594 126.117 -280.41 139.194 -280.41 154L1440 154V8.14544Z" fill="#93DCEC"/>
</svg>
