<svg width="1440" height="154" viewBox="0 0 1440 154" fill="none" xmlns="http://www.w3.org/2000/svg">
<path d="M0 8.14544C7.64319 9.57423 15.4906 11.5782 23.7003 14.1053C37.4368 18.3335 51.1732 22.5617 64.9098 23.5144C77.5128 24.3885 91.876 20.1505 108.821 15.1507C130.194 8.84437 155.674 1.32615 186.91 1.32615C209.217 1.32615 228.35 6.43882 246.775 11.3622C274.605 18.7986 300.818 25.8032 333.91 14.1053C388.91 -5.33735 423.41 -4.80044 468.91 16.4625C514.41 37.7254 551.485 33.7537 581.749 24.0776C584.681 23.1405 587.582 22.1583 590.463 21.1832C601.95 17.295 613.106 13.5185 624.499 13.1501C640.468 12.5599 656.437 17.9218 672.406 23.2837C684.938 27.4913 697.469 31.6989 710 33.0303C725.849 34.7142 741.697 31.7567 757.546 28.7992C770.197 26.4384 782.849 24.0776 795.5 24.0776C808.665 24.0776 821.83 26.6341 834.995 29.1905C850.33 32.1683 865.665 35.1462 881 34.0836C894.736 33.1317 908.473 28.9073 922.209 24.6829C936.973 20.1426 951.736 15.6024 966.5 15.125C988.3 14.3193 1007.12 18.7266 1025.9 23.1232C1048.99 28.5295 1072.01 33.9196 1100.41 29.5808C1115.76 27.236 1130.43 23.4467 1144.91 19.7079C1179.45 10.789 1212.88 2.15706 1251.7 14.1053C1265.44 18.3335 1279.17 22.5617 1292.91 23.5144C1308.24 24.5779 1323.58 21.5974 1338.91 18.6169C1366.51 13.2545 1388.71 13.0608 1416.36 18.2253C1432.21 21.1855 1448.06 24.1456 1463.91 22.4602C1476.44 21.1276 1488.97 16.9162 1501.5 12.7049C1535.94 1.13146 1558.41 1.09298 1592.16 13.4995C1595.27 14.6418 1598.49 15.9191 1601.79 17.2229C1613.6 21.8976 1626.27 26.9135 1637.41 27.2741C1721.99 27.2741 1721.96 29.0645 1720.76 114.567C1720.59 126.117 1720.41 139.194 1720.41 154L0 154V8.14544Z" fill="#93DCEC"/>
</svg>
