<svg width="1440" height="154" viewBox="0 0 1440 154" fill="none" xmlns="http://www.w3.org/2000/svg">
<path d="M1494 8.14544C1486.36 9.57423 1478.51 11.5782 1470.3 14.1053C1456.56 18.3335 1442.83 22.5617 1429.09 23.5144C1416.49 24.3885 1402.12 20.1505 1385.18 15.1507C1363.81 8.84437 1338.33 1.32615 1307.09 1.32615C1284.78 1.32615 1265.65 6.43882 1247.23 11.3622C1219.4 18.7986 1193.18 25.8032 1160.09 14.1053C1105.09 -5.33735 1070.59 -4.80044 1025.09 16.4625C979.59 37.7254 942.515 33.7537 912.251 24.0776C909.319 23.1405 906.418 22.1583 903.537 21.1832C892.05 17.295 880.894 13.5185 869.501 13.1501C853.532 12.5599 837.563 17.9218 821.594 23.2837C809.062 27.4913 796.531 31.6989 784 33.0303C768.151 34.7142 752.303 31.7567 736.454 28.7992C723.803 26.4384 711.151 24.0776 698.5 24.0776C685.335 24.0776 672.17 26.6341 659.005 29.1905C643.67 32.1683 628.335 35.1462 613 34.0836C599.264 33.1317 585.527 28.9073 571.791 24.6829C557.027 20.1426 542.264 15.6024 527.5 15.125C505.7 14.3193 486.878 18.7266 468.101 23.1232C445.012 28.5295 421.993 33.9196 393.591 29.5808C378.241 27.236 363.566 23.4467 349.087 19.7079C314.546 10.789 281.117 2.15706 242.3 14.1053C228.563 18.3335 214.827 22.5617 201.09 23.5144C185.755 24.5779 170.42 21.5974 155.085 18.6169C127.495 13.2545 105.288 13.0608 77.6367 18.2253C61.788 21.1855 45.9392 24.1456 30.0904 22.4602C17.5594 21.1276 5.02834 16.9162 -7.50273 12.7049C-41.9401 1.13146 -64.408 1.09298 -98.1595 13.4995C-101.267 14.6418 -104.494 15.9191 -107.787 17.2229C-119.596 21.8976 -132.267 26.9135 -143.41 27.2741C-227.985 27.2741 -227.96 29.0645 -226.756 114.567C-226.594 126.117 -226.41 139.194 -226.41 154L1494 154V8.14544Z" fill="#93DCEC"/>
</svg>
