<svg width="86" height="86" viewBox="0 0 86 86" fill="none" xmlns="http://www.w3.org/2000/svg">
<mask id="mask0_354_316" style="mask-type:alpha" maskUnits="userSpaceOnUse" x="0" y="0" width="86" height="86">
<rect width="86" height="86" fill="#D9D9D9"/>
</mask>
<g mask="url(#mask0_354_316)">
<path d="M29.0253 76.0118C24.6656 74.1305 20.8732 71.5774 17.6482 68.3524C14.4232 65.1274 11.8701 61.3351 9.98887 56.9753C8.10762 52.6156 7.16699 47.9573 7.16699 43.0003C7.16699 38.0434 8.10762 33.385 9.98887 29.0253C11.8701 24.6656 14.4232 20.8732 17.6482 17.6482C20.8732 14.4232 24.6656 11.8701 29.0253 9.98887C33.385 8.10762 38.0434 7.16699 43.0003 7.16699C47.9573 7.16699 52.6156 8.10762 56.9753 9.98887C61.3351 11.8701 65.1274 14.4232 68.3524 17.6482C71.5774 20.8732 74.1305 24.6656 76.0118 29.0253C77.893 33.385 78.8337 38.0434 78.8337 43.0003C78.8337 47.9573 77.893 52.6156 76.0118 56.9753C74.1305 61.3351 71.5774 65.1274 68.3524 68.3524C65.1274 71.5774 61.3351 74.1305 56.9753 76.0118C52.6156 77.893 47.9573 78.8337 43.0003 78.8337C38.0434 78.8337 33.385 77.893 29.0253 76.0118ZM43.0003 71.667C46.3448 71.667 49.4951 71.1444 52.4514 70.0993C55.4076 69.0541 58.1101 67.576 60.5587 65.6649L55.4524 60.5587C53.7205 61.8128 51.7944 62.7833 49.6743 63.4701C47.5541 64.1569 45.3295 64.5003 43.0003 64.5003C37.0281 64.5003 31.9517 62.41 27.7712 58.2295C23.5906 54.0489 21.5003 48.9725 21.5003 43.0003C21.5003 37.0281 23.5906 31.9517 27.7712 27.7712C31.9517 23.5906 37.0281 21.5003 43.0003 21.5003C48.9725 21.5003 54.0489 23.5906 58.2295 27.7712C62.41 31.9517 64.5003 37.0281 64.5003 43.0003C64.5003 45.3295 64.142 47.5691 63.4253 49.7191C62.7087 51.8691 61.7232 53.8101 60.4691 55.542L65.5753 60.6482C67.4864 58.1996 68.9795 55.4823 70.0545 52.4962C71.1295 49.5101 71.667 46.3448 71.667 43.0003C71.667 34.9975 68.8899 28.2191 63.3357 22.6649C57.7816 17.1107 51.0031 14.3337 43.0003 14.3337C34.9975 14.3337 28.2191 17.1107 22.6649 22.6649C17.1107 28.2191 14.3337 34.9975 14.3337 43.0003C14.3337 51.0031 17.1107 57.7816 22.6649 63.3357C28.2191 68.8899 34.9975 71.667 43.0003 71.667ZM43.0003 57.3337C44.3142 57.3337 45.5833 57.1694 46.8076 56.841C48.0319 56.5125 49.1816 56.0198 50.2566 55.3628L44.792 49.8982C44.4934 50.0177 44.1948 50.0923 43.8962 50.1222C43.5975 50.1521 43.2989 50.167 43.0003 50.167C41.0295 50.167 39.3423 49.4653 37.9389 48.0618C36.5354 46.6583 35.8337 44.9712 35.8337 43.0003C35.8337 41.0295 36.5354 39.3423 37.9389 37.9389C39.3423 36.5354 41.0295 35.8337 43.0003 35.8337C44.9712 35.8337 46.6583 36.5354 48.0618 37.9389C49.4653 39.3423 50.167 41.0295 50.167 43.0003C50.167 43.3587 50.1521 43.7021 50.1222 44.0305C50.0923 44.359 50.0177 44.6726 49.8982 44.9712L55.2732 50.3462C55.9302 49.2712 56.4378 48.1215 56.7962 46.8972C57.1545 45.6729 57.3337 44.3739 57.3337 43.0003C57.3337 39.0587 55.9302 35.6844 53.1232 32.8774C50.3163 30.0705 46.942 28.667 43.0003 28.667C39.0587 28.667 35.6844 30.0705 32.8774 32.8774C30.0705 35.6844 28.667 39.0587 28.667 43.0003C28.667 46.942 30.0705 50.3163 32.8774 53.1232C35.6844 55.9302 39.0587 57.3337 43.0003 57.3337Z" fill="white"/>
</g>
</svg>
