<svg width="32" height="32" viewBox="0 0 32 32" fill="none" xmlns="http://www.w3.org/2000/svg">
<mask id="mask0_354_303" style="mask-type:alpha" maskUnits="userSpaceOnUse" x="0" y="0" width="32" height="32">
<rect width="32" height="32" fill="#D9D9D9"/>
</mask>
<g mask="url(#mask0_354_303)">
<path d="M16.1339 27.9994C15.7561 27.9994 15.4395 27.8716 15.1839 27.6161C14.9284 27.3605 14.8006 27.0439 14.8006 26.6661C14.8006 26.5105 14.8339 26.3494 14.9006 26.1827C14.9673 26.0161 15.0673 25.8661 15.2006 25.7327L20.9006 20.0327C21.0339 19.8994 21.1006 19.7383 21.1006 19.5494C21.1006 19.3605 21.0339 19.1994 20.9006 19.0661C20.7673 18.9327 20.6061 18.8716 20.4173 18.8827C20.2284 18.8939 20.0673 18.9661 19.9339 19.0994L14.2673 24.7661C14.1339 24.8994 13.9895 24.9994 13.8339 25.0661C13.6784 25.1327 13.5117 25.1661 13.3339 25.1661C12.9561 25.1661 12.6395 25.0383 12.3839 24.7827C12.1284 24.5272 12.0006 24.2105 12.0006 23.8327C12.0006 23.6105 12.0339 23.4272 12.1006 23.2827C12.1673 23.1383 12.2561 23.0105 12.3673 22.8994L18.0673 17.1994C18.2006 17.0661 18.2673 16.9105 18.2673 16.7327C18.2673 16.555 18.2006 16.3994 18.0673 16.2661C17.9339 16.1327 17.7784 16.0661 17.6006 16.0661C17.4228 16.0661 17.2673 16.1327 17.1339 16.2661L11.4339 21.9327C11.3006 22.0661 11.1561 22.1661 11.0006 22.2327C10.845 22.2994 10.6673 22.3327 10.4673 22.3327C10.1117 22.3327 9.80059 22.1994 9.53392 21.9327C9.26725 21.6661 9.13392 21.355 9.13392 20.9994C9.13392 20.8216 9.16725 20.655 9.23392 20.4994C9.30059 20.3439 9.40059 20.1994 9.53392 20.0661L15.2006 14.3994C15.3339 14.2661 15.4006 14.105 15.4006 13.9161C15.4006 13.7272 15.3339 13.5661 15.2006 13.4327C15.0673 13.2994 14.9117 13.2327 14.7339 13.2327C14.5561 13.2327 14.4006 13.2994 14.2673 13.4327L8.60059 19.1327C8.48948 19.2439 8.35614 19.3327 8.20059 19.3994C8.04503 19.4661 7.85614 19.4994 7.63392 19.4994C7.25614 19.4994 6.93948 19.3716 6.68392 19.1161C6.42836 18.8605 6.30059 18.5439 6.30059 18.1661C6.30059 17.9883 6.33392 17.8216 6.40059 17.6661C6.46725 17.5105 6.56725 17.3661 6.70059 17.2327L13.2339 10.6994C13.4784 10.455 13.7839 10.3439 14.1506 10.3661C14.5173 10.3883 14.8228 10.5216 15.0673 10.7661L19.1339 14.8327C19.3784 15.0772 19.6673 15.2716 20.0006 15.4161C20.3339 15.5605 20.6673 15.6327 21.0006 15.6327C21.7117 15.6327 22.3339 15.3827 22.8673 14.8827C23.4006 14.3827 23.6673 13.7439 23.6673 12.9661C23.6673 12.655 23.6117 12.3327 23.5006 11.9994C23.3895 11.6661 23.1895 11.355 22.9006 11.0661L18.3339 6.49941C18.0895 6.25497 17.9284 5.9883 17.8506 5.69941C17.7728 5.41053 17.8117 5.13275 17.9673 4.86608C18.1673 4.53275 18.4228 4.2883 18.7339 4.13275C19.045 3.97719 19.3895 3.89941 19.7673 3.89941C20.2339 3.89941 20.7117 4.01053 21.2006 4.23275C21.6895 4.45497 22.1339 4.76608 22.5339 5.16608L28.1673 10.8327C28.5673 11.2327 28.8617 11.6772 29.0506 12.1661C29.2395 12.655 29.3339 13.2216 29.3339 13.8661C29.3339 14.3105 29.2339 14.7605 29.0339 15.2161C28.8339 15.6716 28.545 16.0883 28.1673 16.4661L17.0673 27.5994C16.8895 27.7772 16.7339 27.8883 16.6006 27.9327C16.4673 27.9772 16.3117 27.9994 16.1339 27.9994ZM3.86725 16.1661C3.44503 15.855 3.12836 15.4827 2.91725 15.0494C2.70614 14.6161 2.60059 14.155 2.60059 13.6661C2.60059 13.155 2.70614 12.655 2.91725 12.1661C3.12836 11.6772 3.43392 11.2327 3.83392 10.8327L9.46725 5.16608C9.84503 4.7883 10.2617 4.49941 10.7173 4.29941C11.1728 4.09941 11.6561 3.99941 12.1673 3.99941C12.7228 3.99941 13.2617 4.09941 13.7839 4.29941C14.3061 4.49941 14.7561 4.7883 15.1339 5.16608L21.9673 11.9994C22.0784 12.1105 22.1728 12.2494 22.2506 12.4161C22.3284 12.5827 22.3673 12.755 22.3673 12.9327C22.3673 13.3105 22.2395 13.6272 21.9839 13.8827C21.7284 14.1383 21.4117 14.2661 21.0339 14.2661C20.8561 14.2661 20.6839 14.2272 20.5173 14.1494C20.3506 14.0716 20.2117 13.9772 20.1006 13.8661L16.0006 9.79941C15.4895 9.2883 14.8617 9.03275 14.1173 9.03275C13.3728 9.03275 12.745 9.2883 12.2339 9.79941L5.96725 16.0661C5.67836 16.355 5.33948 16.505 4.95059 16.5161C4.5617 16.5272 4.20059 16.4105 3.86725 16.1661Z" fill="#3072B6"/>
</g>
</svg>
