<svg width="32" height="32" viewBox="0 0 32 32" fill="none" xmlns="http://www.w3.org/2000/svg">
<mask id="mask0_347_204" style="mask-type:alpha" maskUnits="userSpaceOnUse" x="1" y="1" width="30" height="31">
<rect x="1" y="1.00781" width="30" height="30" fill="#D9D9D9"/>
</mask>
<g mask="url(#mask0_347_204)">
<path d="M8.85938 25.5703C6.95313 23.612 6 21.1745 6 18.2578C6 16.9661 6.29167 15.6745 6.875 14.3828C7.45833 13.0911 8.1875 11.8516 9.0625 10.6641C9.9375 9.47656 10.8854 8.36198 11.9062 7.32031C12.9271 6.27865 13.875 5.3724 14.75 4.60156C14.9167 4.4349 15.1094 4.3151 15.3281 4.24219C15.5469 4.16927 15.7708 4.13281 16 4.13281C16.2292 4.13281 16.4531 4.16927 16.6719 4.24219C16.8906 4.3151 17.0833 4.4349 17.25 4.60156C18.125 5.3724 19.0729 6.27865 20.0938 7.32031C21.1146 8.36198 22.0625 9.47656 22.9375 10.6641C23.8125 11.8516 24.5417 13.0911 25.125 14.3828C25.7083 15.6745 26 16.9661 26 18.2578C26 21.1745 25.0469 23.612 23.1406 25.5703C21.2344 27.5286 18.8542 28.5078 16 28.5078C13.1458 28.5078 10.7656 27.5286 8.85938 25.5703ZM16.3438 24.7578C16.5938 24.737 16.8073 24.638 16.9844 24.4609C17.1615 24.2839 17.25 24.0703 17.25 23.8203C17.25 23.5286 17.1563 23.2943 16.9688 23.1172C16.7813 22.9401 16.5417 22.862 16.25 22.8828C15.3958 22.9453 14.4896 22.7109 13.5312 22.1797C12.5729 21.6484 11.9688 20.6849 11.7188 19.2891C11.6771 19.0599 11.5677 18.8724 11.3906 18.7266C11.2135 18.5807 11.0104 18.5078 10.7812 18.5078C10.4896 18.5078 10.25 18.6172 10.0625 18.8359C9.875 19.0547 9.8125 19.3099 9.875 19.6016C10.2292 21.4974 11.0625 22.8516 12.375 23.6641C13.6875 24.4766 15.0104 24.8411 16.3438 24.7578Z" fill="white"/>
</g>
</svg>
