<svg width="190" height="130" viewBox="0 0 190 130" fill="none" xmlns="http://www.w3.org/2000/svg">
<g opacity="0.3">
<path d="M124.701 42.8787C123.431 41.5604 123.47 39.4622 124.788 38.1921C126.106 36.922 128.204 36.961 129.474 38.2792C130.745 39.5974 130.706 41.6956 129.387 42.9658C128.069 44.2359 125.971 44.1969 124.701 42.8787Z" fill="#015CA5"/>
<path d="M128.554 41.1737C128.048 41.2557 127.571 40.9116 127.489 40.4052C127.407 39.8987 127.751 39.4217 128.258 39.3398C128.764 39.2578 129.241 39.602 129.323 40.1084C129.405 40.6148 129.061 41.0918 128.554 41.1737Z" fill="white"/>
<path d="M87.3732 91.8513C98.4603 90.0572 108.724 86.3434 114.534 81.9387C123.527 75.1368 131.635 67.0883 144.199 47.9891C144.269 47.8922 144.339 47.7953 144.388 47.7019C145.076 46.6708 146.027 45.2766 145.567 43.4905C145.284 42.4028 144.486 41.5695 143.502 41.3011C143.8 39.8413 143.571 38.2957 142.564 37.0901C141.342 35.6197 139.518 35.1876 137.896 34.8086C137.362 34.6811 136.873 34.5677 136.402 34.4301C133.542 33.5455 131.356 31.3972 129.041 29.1198C127.797 27.9096 126.502 26.6436 125.087 25.5679C119.581 21.4117 111.897 19.2548 101.545 18.9837C93.577 18.776 83.0988 18.7821 72.5456 20.7036C59.7658 23.0068 49.6751 27.6551 42.5728 34.5144C39.9265 37.0599 37.6394 39.9749 35.4221 42.7931C32.7231 46.2025 29.9576 49.7297 26.6021 52.5182C26.2258 52.8357 25.846 53.1324 25.4489 53.4533C22.7976 55.5718 19.8083 57.9803 19.4128 61.6158C18.9953 65.5115 21.7394 68.7245 24.7939 71.6092C31.2897 77.7866 37.4447 82.6505 48.1098 87.8966C57.6842 92.6134 70.7443 94.1571 84.8723 92.2559C85.7476 92.1143 86.5604 91.9828 87.3732 91.8513ZM142.822 43.3144C142.843 43.311 142.885 43.3043 142.909 43.3217C143.131 43.3714 143.404 43.6052 143.513 44.0153C143.731 44.8354 143.308 45.5241 142.637 46.5309C142.567 46.6277 142.501 46.7454 142.431 46.8423C130.038 65.6785 122.08 73.5959 113.257 80.2632C101.233 89.3519 68.9735 95.7696 49.0629 85.9887C38.654 80.8722 32.6201 76.0957 26.2762 70.0648C23.7988 67.7068 21.1915 64.9422 21.5429 61.8271C21.844 59.0624 24.3629 57.0508 26.8051 55.0944C27.2023 54.7735 27.5995 54.4526 27.9758 54.1351C31.502 51.212 34.3408 47.6089 37.1097 44.1026C39.292 41.3329 41.5475 38.4871 44.0823 36.0452C60.6786 20.0575 90.357 20.8155 101.524 21.1043C111.404 21.3661 118.701 23.372 123.844 27.2662C125.158 28.2511 126.381 29.4647 127.576 30.64C129.967 32.9906 132.454 35.4111 135.809 36.4508C136.35 36.62 136.904 36.744 137.438 36.8715C138.86 37.1975 140.194 37.5162 140.964 38.4396C142.055 39.7602 141.454 41.996 140.223 43.2431C138.751 44.7216 136.534 45.4227 134.577 46.0173C134.028 46.1917 133.716 46.7768 133.873 47.3502C134.047 47.8994 134.632 48.2111 135.206 48.0542C137.302 47.3942 139.888 46.5908 141.726 44.7322C142.113 44.3488 142.448 43.9096 142.732 43.4146C142.732 43.4146 142.732 43.4146 142.749 43.3904C142.742 43.3487 142.76 43.3245 142.822 43.3144Z" fill="#015CA5"/>
<path d="M128.359 62.1872C129.131 62.0624 129.912 61.8717 130.646 61.6461C131.195 61.4717 131.503 60.8658 131.329 60.3166C131.154 59.7674 130.548 59.4591 129.999 59.6335C129.349 59.8456 128.668 59.9986 127.981 60.1099C123.041 60.9091 117.66 59.1067 114.314 55.3494C110.524 51.0867 109.52 44.491 111.864 39.2786C112.099 38.7487 111.869 38.1229 111.339 37.8878C110.809 37.6528 110.183 37.8824 109.948 38.4123C107.251 44.345 108.406 51.8785 112.746 56.7581C116.561 61.0382 122.712 63.1011 128.359 62.1872Z" fill="#015CA5"/>
<path d="M111.122 69.5752C111.477 69.5179 111.783 69.2972 111.917 68.9334C112.152 68.4035 111.881 67.7844 111.351 67.5493C109.539 66.7946 108.096 65.1461 107.574 63.2416C107.052 61.3372 107.475 59.1943 108.635 57.6379C108.987 57.1745 108.88 56.5076 108.416 56.1549C107.953 55.8021 107.286 55.91 106.933 56.3735C105.351 58.4901 104.817 61.2711 105.527 63.8081C106.216 66.3485 108.08 68.4849 110.512 69.5029C110.741 69.5942 110.935 69.6055 111.122 69.5752Z" fill="#015CA5"/>
<path d="M94.8372 72.4246C95.2332 72.3605 95.6258 72.2756 96.0184 72.1907C100.146 71.2662 103.807 69.1767 107.336 67.1942C107.844 66.8981 108.02 66.2708 107.745 65.7593C107.449 65.2511 106.822 65.0746 106.31 65.3499C102.9 67.2704 99.3745 69.2738 95.5561 70.1269C91.4285 71.0514 87.5408 70.4187 84.878 68.3688C82.6786 66.6717 81.5862 64.2821 81.032 62.5753C80.3411 60.4202 80.2125 57.5111 81.8723 55.8738C83.5879 54.1847 86.6585 54.3936 88.8021 54.6883C94.8199 55.5324 100.625 57.309 106.096 59.931C106.63 60.1869 107.255 59.9573 107.515 59.4449C107.771 58.9116 107.541 58.2857 107.029 58.0265C101.37 55.3065 95.3432 53.4801 89.1035 52.5864C86.5196 52.2133 82.7861 52.0047 80.387 54.3605C78.3959 56.3294 77.8806 59.6207 79.016 63.2009C79.9291 66.0686 81.5076 68.4223 83.5859 70.0322C86.4942 72.2776 90.5441 73.1193 94.8372 72.4246Z" fill="#015CA5"/>
<path d="M32.4834 49.3425C32.8794 49.2784 33.2174 48.9885 33.3443 48.583C33.4892 48.0249 33.1588 47.4368 32.6007 47.2919C28.1465 46.0665 22.9062 43.0222 19.2819 39.5239C17.8411 38.1531 17.2293 36.8833 17.4566 35.7772C17.741 34.3625 19.4446 32.9961 22.2611 31.8988C36.2045 26.4774 51.0376 22.9865 65.3807 19.639C67.4412 19.1559 69.5849 18.6593 71.684 18.8115C73.5438 18.9383 74.7133 19.69 77.1414 21.4785C77.6048 21.8313 78.2717 21.7234 78.6244 21.26C78.9772 20.7965 78.8692 20.1296 78.4058 19.7769C75.9778 17.9884 74.3899 16.898 71.8571 16.7091C69.4561 16.5415 67.0448 17.1028 64.9218 17.596C50.4987 20.9778 35.603 24.4789 21.5172 29.9447C17.9149 31.3403 15.8585 33.1701 15.4246 35.3789C15.0618 37.234 15.8824 39.133 17.862 41.0582C21.7904 44.8494 27.2419 48.0093 32.0981 49.3407C32.1849 49.3481 32.3375 49.3661 32.4834 49.3425Z" fill="#015CA5"/>
<path d="M82.6014 101.352C88.145 100.455 93.0652 99.2735 96.3797 97.8175C99.3917 96.4747 105.212 90.5498 106.389 86.0608C106.534 85.5026 106.204 84.9145 105.646 84.7696C105.088 84.6246 104.5 84.9551 104.355 85.5132C103.291 89.5134 97.8445 94.843 95.5107 95.8836C85.2782 100.448 58.7785 102.02 47.4555 101.564C36.3928 101.13 33.2679 99.9246 29.4729 98.0151C25.1414 95.8289 22.2517 91.8482 22.1004 87.8734C21.9129 82.7497 25.7458 78.8146 29.4706 75.004L29.5438 74.928C29.9484 74.5203 29.9446 73.8366 29.5162 73.4354C29.1085 73.0309 28.4248 73.0346 28.0236 73.4631L27.9504 73.5391C23.9152 77.678 19.7509 81.9447 19.9967 87.9572C20.186 92.6957 23.5306 97.3727 28.5165 99.9022C33.1252 102.215 36.761 103.273 47.3692 103.674C55.2672 103.978 70.4514 103.318 82.6014 101.352Z" fill="#015CA5"/>
<path d="M13.1925 85.9546C14.5888 85.7286 16.0028 84.6871 17.438 82.8509C18.5519 81.4089 19.5274 79.9037 20.4713 78.4678C22.097 75.9592 23.6355 73.5716 26.0029 71.2852C26.4283 70.8742 26.4279 70.2113 26.0378 69.7825C25.6267 69.3571 24.9638 69.3575 24.5351 69.7477C22.0003 72.1895 20.3255 74.7916 18.6998 77.3002C17.7418 78.7812 16.8537 80.1653 15.7713 81.5381C14.3744 83.3467 13.17 84.0976 12.203 83.805C11.4613 83.5828 10.997 82.6956 10.8514 81.9278C10.703 81.0109 10.843 80.0258 11.0179 78.9924L11.0575 78.708C12.5934 68.7715 11.378 58.6173 7.52414 49.3391C6.86176 47.7567 6.22542 45.8066 7.16688 44.8844C8.50951 43.5337 11.4736 45.7273 12.0614 46.1882C13.41 47.2532 14.6927 48.3074 15.9235 49.3059C18.6342 51.5191 21.1753 53.6101 24.4238 55.8433C24.9046 56.1718 25.5682 56.043 25.8967 55.5622C26.2252 55.0813 26.0965 54.4177 25.6156 54.0892C22.4397 51.9085 19.9262 49.8558 17.264 47.6775C16.0298 46.6582 14.7262 45.6073 13.3743 44.5215C10.2864 42.0913 7.41466 41.6578 5.68497 43.3919C3.64146 45.4335 5.01067 48.7406 5.60102 50.1421C9.31079 59.0587 10.4863 68.8344 8.99392 78.3789L8.95439 78.6633C8.77883 79.8252 8.58918 81.0321 8.79152 82.2825C9.08889 83.9881 10.1895 85.3712 11.5862 85.8081C12.1094 86.0015 12.6506 86.0422 13.1925 85.9546Z" fill="#015CA5"/>
<path d="M83.0508 111.137C83.0717 111.134 83.1134 111.127 83.1342 111.124C95.4631 108.017 105.56 97.5933 108.298 85.174C108.419 84.5984 108.071 84.0345 107.496 83.9138C106.92 83.793 106.356 84.1409 106.235 84.7165C103.671 96.3592 94.1773 106.15 82.6094 109.07C82.0326 109.206 81.7001 109.795 81.8537 110.347C81.983 110.883 82.509 111.225 83.0508 111.137Z" fill="#015CA5"/>
<path d="M85.9755 117.851C86.038 117.84 86.1005 117.83 86.1597 117.799C92.5046 115.511 98.4336 110.916 102.836 104.814C107.328 98.6123 109.921 91.2423 110.132 84.0866C110.145 83.507 109.703 83.0225 109.099 82.9919C108.52 82.9787 108.035 83.4207 108.005 84.0245C107.603 97.6696 97.8798 111.326 85.409 115.804C84.8632 115.999 84.5757 116.601 84.771 117.147C84.9803 117.648 85.4753 117.931 85.9755 117.851Z" fill="#015CA5"/>
<path d="M35.4466 45.0578C35.5924 45.0342 35.7073 44.9515 35.7947 44.8304C35.9485 44.5916 35.8946 44.2582 35.6558 44.1043C31.7603 41.4412 27.5222 39.304 23.0941 37.7109C22.8204 37.6054 22.5247 37.7602 22.4193 38.0339C22.3139 38.3076 22.4687 38.6034 22.7423 38.7088C27.0978 40.2495 31.2458 42.3585 35.0686 44.9693C35.1897 45.0566 35.3215 45.078 35.4466 45.0578Z" fill="#015CA5"/>
<path d="M38.0041 41.0506C38.15 41.027 38.2858 40.9409 38.3697 40.799C38.5202 40.5394 38.4488 40.2301 38.1892 40.0797C34.3994 37.8058 30.3189 36.1136 26.0309 34.9896C25.7397 34.9084 25.4682 35.0807 25.387 35.3718C25.3058 35.663 25.478 35.9345 25.7692 36.0158C29.9429 37.094 33.9367 38.7789 37.6504 40.9795C37.7473 41.0494 37.8791 41.0708 38.0041 41.0506Z" fill="#015CA5"/>
<path d="M40.3983 38.5252C40.5442 38.5016 40.6591 38.4188 40.7465 38.2977C40.9212 38.0556 40.8463 37.7255 40.6076 37.5717C37.0235 35.1148 33.1599 33.0453 29.1345 31.4298C28.8608 31.3244 28.5617 31.4583 28.4529 31.7112C28.3475 31.9849 28.4814 32.284 28.7343 32.3928C32.6938 33.9976 36.4848 36.0147 40.0204 38.4366C40.1173 38.5065 40.2733 38.5454 40.3983 38.5252Z" fill="#015CA5"/>
<path d="M43.5991 35.3123C43.7033 35.2954 43.7832 35.2611 43.8565 35.1851C44.083 34.9987 44.0915 34.6552 43.9052 34.4287C41.5298 31.7762 38.5026 29.7211 35.1625 28.5079C34.8889 28.4025 34.5931 28.5573 34.4877 28.831C34.3823 29.1047 34.5371 29.4004 34.8107 29.5058C37.9915 30.6593 40.8734 32.6096 43.1209 35.133C43.2521 35.2829 43.4323 35.3392 43.5991 35.3123Z" fill="#015CA5"/>
<path d="M47.678 32.2361C47.803 32.2159 47.9213 32.1539 48.0087 32.0329C48.1834 31.7907 48.1328 31.4781 47.9115 31.3001C45.9368 29.8018 43.8572 28.4488 41.6763 27.2619C41.42 27.1323 41.09 27.2071 40.9603 27.4633C40.8307 27.7195 40.9055 28.0496 41.1617 28.1792C43.2734 29.3346 45.3288 30.6701 47.2551 32.1334C47.397 32.2174 47.553 32.2563 47.678 32.2361Z" fill="#015CA5"/>
<path d="M51.3143 29.188C51.4185 29.1711 51.5368 29.1092 51.6101 29.0332C51.8089 28.8085 51.8 28.4892 51.5754 28.2903C50.3209 27.1459 48.9025 26.1778 47.3927 25.4384C47.1365 25.3087 46.8132 25.4252 46.6835 25.6815C46.5539 25.9377 46.6704 26.261 46.9266 26.3906C48.3671 27.0985 49.6887 27.9968 50.8705 29.0887C51.0124 29.1727 51.1684 29.2116 51.3143 29.188Z" fill="#015CA5"/>
<path d="M56.2963 26.5419C56.4422 26.5183 56.5779 26.4322 56.6619 26.2903C56.8124 26.0307 56.7409 25.7215 56.4813 25.571L52.4979 23.1574C52.2383 23.0069 51.929 23.0783 51.7786 23.3379C51.6281 23.5975 51.6995 23.9067 51.9591 24.0572L55.9426 26.4708C56.0603 26.5373 56.1921 26.5588 56.2963 26.5419Z" fill="#015CA5"/>
<path d="M60.6015 24.883C60.7474 24.8594 60.8832 24.7733 60.9705 24.6522C61.1243 24.4134 61.0496 24.0834 60.8108 23.9295L58.5443 22.4784C58.3056 22.3246 57.9755 22.3994 57.8216 22.6381C57.6678 22.8769 57.7426 23.207 57.9813 23.3608L60.2478 24.8119C60.3447 24.8818 60.4765 24.9032 60.6015 24.883Z" fill="#015CA5"/>
<path d="M65.291 23.4411C65.4368 23.4175 65.5726 23.3314 65.6599 23.2103C65.8138 22.9715 65.739 22.6415 65.5002 22.4876L62.6177 20.6657C62.3789 20.5119 62.0489 20.5867 61.895 20.8254C61.7412 21.0642 61.816 21.3943 62.0547 21.5481L64.9373 23.37C65.0341 23.4399 65.1659 23.4613 65.291 23.4411Z" fill="#015CA5"/>
<path d="M70.9207 22.0359C71.0666 22.0123 71.2023 21.9261 71.2863 21.7842C71.4401 21.5455 71.3654 21.2154 71.1058 21.0649L67.9737 19.1551C67.735 19.0012 67.4049 19.076 67.2544 19.3356C67.1006 19.5744 67.1754 19.9045 67.435 20.0549L70.567 21.9648C70.6847 22.0313 70.8165 22.0527 70.9207 22.0359Z" fill="#015CA5"/>
<path d="M22.7077 58.1971C22.8119 58.1803 22.9302 58.1183 23.0035 58.0423C23.2057 57.8385 23.1935 57.4983 22.9896 57.2961C20.032 54.4812 16.4258 52.2845 12.5727 50.9405C12.299 50.8351 12.0032 50.9899 11.8978 51.2635C11.7924 51.5372 11.9472 51.833 12.2209 51.9384C15.9388 53.2401 19.4031 55.3528 22.2572 58.0562C22.385 58.1852 22.541 58.2241 22.7077 58.1971Z" fill="#015CA5"/>
<path d="M21.0016 59.4135C21.21 59.3798 21.3774 59.2244 21.4304 59.0234C21.4907 58.7356 21.3185 58.464 21.0481 58.3795L12.7001 56.3513C12.4124 56.2909 12.1408 56.4632 12.0562 56.7335C11.9717 57.0038 12.1681 57.2928 12.4385 57.3774L20.7865 59.4056C20.8766 59.4338 20.9391 59.4236 21.0016 59.4135Z" fill="#015CA5"/>
<path d="M20.4685 62.067C20.7185 62.0265 20.9174 61.8018 20.9186 61.545C20.9131 61.2465 20.6851 61.0268 20.3866 61.0323L13.4899 61.1004C13.1913 61.1059 12.9716 61.3339 12.9772 61.6325C12.9827 61.931 13.2107 62.1507 13.5092 62.1452L20.4059 62.0771C20.4059 62.0771 20.4476 62.0704 20.4685 62.067Z" fill="#015CA5"/>
<path d="M15.639 66.1825C17.5147 65.879 19.329 65.3288 21.0578 64.5144C21.3153 64.3872 21.4348 64.0684 21.3076 63.811C21.1804 63.5536 20.8616 63.434 20.6042 63.5612C18.7362 64.4409 16.7343 65.0215 14.6785 65.2686C14.3833 65.295 14.1912 65.5613 14.2176 65.8565C14.2439 66.1516 14.5103 66.3438 14.8054 66.3174C15.0764 66.2736 15.3473 66.2297 15.639 66.1825Z" fill="#015CA5"/>
<path d="M15.3031 74.0228C15.3864 74.0093 15.4664 73.975 15.543 73.9198C18.076 71.8632 20.3156 69.4477 22.1436 66.7353C22.3183 66.4932 22.2435 66.1631 22.0047 66.0093C21.7626 65.8346 21.4325 65.9094 21.2787 66.1481C19.4997 68.7671 17.3333 71.1065 14.877 73.108C14.6505 73.2943 14.6177 73.6204 14.8041 73.8469C14.9319 73.9759 15.1155 74.0532 15.3031 74.0228Z" fill="#015CA5"/>
<path d="M24.7952 86.8152C24.9203 86.7949 25.0594 86.7296 25.1468 86.6086L31.9526 77.1239C32.1273 76.8818 32.0733 76.5483 31.8346 76.3945C31.5924 76.2198 31.259 76.2738 31.1052 76.5125L24.2993 85.9972C24.1246 86.2393 24.1786 86.5728 24.4173 86.7266C24.5176 86.8173 24.6702 86.8354 24.7952 86.8152Z" fill="#015CA5"/>
<path d="M28.2585 89.9763C28.3835 89.9561 28.5018 89.8942 28.5891 89.7731C31.0785 86.6543 33.4367 83.3855 35.6113 80.0396C35.7652 79.8008 35.7112 79.4674 35.4516 79.3169C35.2129 79.1631 34.8794 79.217 34.729 79.4766C32.5718 82.7984 30.2311 86.0429 27.78 89.1342C27.6019 89.3554 27.6351 89.6923 27.8564 89.8703C27.9808 89.9785 28.1126 89.9999 28.2585 89.9763Z" fill="#015CA5"/>
<path d="M31.3083 94.4225C31.35 94.4158 31.3917 94.409 31.43 94.3814C33.7739 93.4033 35.2014 90.991 36.2406 89.2188L40.0682 82.7397C40.2187 82.4801 40.1264 82.1742 39.8876 82.0204C39.628 81.8699 39.3222 81.9622 39.1683 82.2009L35.3407 88.6801C34.0987 90.7845 32.8961 92.6044 31.0355 93.3973C30.7747 93.5037 30.6344 93.8258 30.7616 94.0833C30.8229 94.33 31.0791 94.4596 31.3083 94.4225Z" fill="#015CA5"/>
<path d="M38.5601 96.4157C38.706 96.3921 38.821 96.3094 38.9083 96.1883L46.1251 85.6748C46.2998 85.4326 46.225 85.1025 45.9862 84.9487C45.7441 84.774 45.414 84.8488 45.2602 85.0876L38.0434 95.6011C37.8687 95.8432 37.9435 96.1733 38.1823 96.3272C38.2825 96.4179 38.4351 96.4359 38.5601 96.4157Z" fill="#015CA5"/>
<path d="M42.3963 98.854C42.5214 98.8338 42.6397 98.7719 42.727 98.6508C45.3218 95.2583 47.6644 91.6285 49.7056 87.855C49.8353 87.5988 49.7396 87.2721 49.4834 87.1425C49.2272 87.0129 48.9005 87.1085 48.7709 87.3647C46.7611 91.0689 44.4361 94.6745 41.8762 98.0186C41.6982 98.2399 41.7521 98.5733 41.9734 98.7514C42.0945 98.8387 42.2504 98.8777 42.3963 98.854Z" fill="#015CA5"/>
<path d="M48.4749 100.072C48.6416 100.045 48.774 99.9378 48.858 99.7959L53.9812 89.4287C54.1109 89.1725 53.9944 88.8491 53.7382 88.7195C53.4819 88.5899 53.1586 88.7064 53.029 88.9626L47.9232 99.3056C47.7936 99.5618 47.9101 99.8852 48.1663 100.015C48.2598 100.064 48.3707 100.089 48.4749 100.072Z" fill="#015CA5"/>
<path d="M52.3687 100.597C52.4937 100.577 52.6329 100.512 52.7202 100.391C54.8722 97.4333 56.5258 94.1716 57.6286 90.6783C57.7132 90.408 57.5584 90.1123 57.2847 90.0069C57.0144 89.9223 56.7186 90.0771 56.6132 90.3508C55.5352 93.7331 53.9272 96.8805 51.8485 99.7618C51.6738 100.004 51.7278 100.337 51.9666 100.491C52.0876 100.579 52.2436 100.617 52.3687 100.597Z" fill="#015CA5"/>
<path d="M57.3525 99.5538C57.5192 99.5268 57.6516 99.4198 57.7356 99.2779L61.8521 91.148C61.9818 90.8918 61.8861 90.5651 61.6299 90.4355C61.3737 90.3058 61.047 90.4015 60.9173 90.6577L56.8008 98.7876C56.6712 99.0438 56.7668 99.3705 57.023 99.5001C57.1373 99.5458 57.2483 99.5706 57.3525 99.5538Z" fill="#015CA5"/>
<path d="M61.6257 100.319C61.7716 100.295 61.9073 100.209 61.9947 100.088C63.5331 97.7005 64.6498 94.9534 65.2044 92.169C65.2647 91.8813 65.0716 91.6131 64.7838 91.5527C64.496 91.4924 64.2279 91.6855 64.1675 91.9733C63.6377 94.6467 62.5842 97.2552 61.1123 99.5251C60.9584 99.7638 61.0332 100.094 61.272 100.248C61.3689 100.318 61.5006 100.339 61.6257 100.319Z" fill="#015CA5"/>
<path d="M66.3631 99.593C66.5506 99.5626 66.7005 99.4314 66.7777 99.2479L69.2363 92.37C69.3417 92.0963 69.1869 91.8006 68.9132 91.6952C68.6395 91.5898 68.3438 91.7445 68.2383 92.0182L65.7798 98.8961C65.6744 99.1698 65.8292 99.4655 66.1029 99.5709C66.193 99.5991 66.2797 99.6065 66.3631 99.593Z" fill="#015CA5"/>
<path d="M71.3614 100.346C71.5698 100.313 71.7372 100.157 71.7902 99.9561L73.7647 91.9376C73.8251 91.6498 73.6529 91.3783 73.3825 91.2937C73.0947 91.2333 72.8232 91.4056 72.7386 91.6759L70.7641 99.6944C70.7037 99.9822 70.876 100.254 71.1463 100.338C71.233 100.346 71.2989 100.356 71.3614 100.346Z" fill="#015CA5"/>
<path d="M76.6117 99.4957C76.8201 99.4619 76.9874 99.3065 77.0404 99.1055L78.7656 92.4533C78.8468 92.1621 78.6745 91.8906 78.3834 91.8094C78.0922 91.7282 77.8207 91.9004 77.7395 92.1916L76.0143 98.8438C75.9331 99.135 76.1054 99.4065 76.3965 99.4877C76.4624 99.4984 76.5491 99.5058 76.6117 99.4957Z" fill="#015CA5"/>
<path d="M81.4734 98.0893C81.6818 98.0556 81.8492 97.9002 81.8988 97.6783L83.2684 91.3402C83.3288 91.0524 83.1565 90.7809 82.8688 90.7206C82.581 90.6602 82.3094 90.8324 82.2491 91.1202L80.8794 97.4583C80.819 97.7461 80.9913 98.0176 81.2791 98.078C81.3484 98.1095 81.4109 98.0994 81.4734 98.0893Z" fill="#015CA5"/>
<path d="M86.407 97.506C86.6154 97.4723 86.7828 97.3169 86.8324 97.095L88.2533 90.9412C88.3136 90.6534 88.1414 90.3818 87.8502 90.3006C87.5624 90.2403 87.2909 90.4125 87.2097 90.7037L85.7888 96.8576C85.7285 97.1454 85.9007 97.4169 86.1919 97.4981C86.2786 97.5054 86.3445 97.5162 86.407 97.506Z" fill="#015CA5"/>
<path d="M92.0098 95.7867C92.2182 95.753 92.389 95.6184 92.4386 95.3965L93.9296 89.8087C94.0108 89.5176 93.8386 89.246 93.5474 89.1648C93.2563 89.0836 92.9847 89.2559 92.9035 89.547L91.4125 95.1349C91.3313 95.426 91.5035 95.6975 91.7947 95.7787C91.8606 95.7895 91.9473 95.7968 92.0098 95.7867Z" fill="#015CA5"/>
<path d="M96.4192 94.4953C96.6276 94.4616 96.795 94.3062 96.8446 94.0843L97.9857 89.1091C98.046 88.8213 97.8738 88.5498 97.5826 88.4686C97.2948 88.4082 97.0233 88.5805 96.9421 88.8717L95.801 93.8468C95.7406 94.1346 95.9129 94.4061 96.2041 94.4873C96.2733 94.5189 96.3567 94.5054 96.4192 94.4953Z" fill="#015CA5"/>
<path d="M106.249 61.8093C106.416 61.7823 106.569 61.672 106.65 61.5092C106.776 61.2321 106.642 60.933 106.386 60.8034C101.897 58.8351 96.9493 57.7323 92.0352 57.6293C91.7333 57.614 91.4961 57.8662 91.4983 58.1439C91.5038 58.4424 91.7352 58.683 92.0129 58.6808C96.7777 58.7866 101.59 59.8471 105.965 61.7698C106.037 61.8222 106.145 61.8261 106.249 61.8093Z" fill="#015CA5"/>
<path d="M105.722 63.177C105.973 63.1365 106.154 62.9361 106.173 62.655C106.167 62.3565 105.936 62.1159 105.658 62.1181L90.0201 61.8256C89.7216 61.8311 89.4811 62.0625 89.4832 62.3402C89.4887 62.6387 89.7202 62.8792 89.9978 62.8771L105.636 63.1696C105.66 63.1871 105.681 63.1837 105.722 63.177Z" fill="#015CA5"/>
<path d="M95.276 68.0092C99.3607 67.3482 103.381 66.2913 107.255 64.8519C107.536 64.7421 107.659 64.4442 107.574 64.18C107.464 63.8984 107.166 63.7755 106.902 63.861C102.1 65.6431 97.0967 66.8377 92.0129 67.4037C91.7177 67.4301 91.5048 67.6998 91.552 67.9916C91.5783 68.2867 91.8481 68.4997 92.1398 68.4525C93.1678 68.3289 94.234 68.1778 95.276 68.0092Z" fill="#015CA5"/>
<path d="M80.8775 72.9931C83.045 72.6424 85.1713 72.17 87.2183 71.6036C87.5033 71.5147 87.6712 71.2309 87.5823 70.9458C87.4934 70.6608 87.2096 70.4929 86.9246 70.5818C77.8434 73.1419 67.5616 73.437 57.1866 71.4374C54.846 70.9821 52.4536 70.471 50.1304 69.9915C40.8277 68.0108 31.1922 65.9557 21.6249 67.0975C21.3297 67.1239 21.1376 67.3903 21.164 67.6854C21.1903 67.9805 21.4567 68.1727 21.7518 68.1463C31.1524 67.0315 40.6978 69.0584 49.9138 71.0317C52.2403 71.532 54.6327 72.0431 56.9942 72.4951C65.1779 74.0366 73.3125 74.2173 80.8775 72.9931Z" fill="#015CA5"/>
<path d="M97.8707 35.662C97.9332 35.6519 97.9748 35.6451 98.034 35.6142C98.2881 35.4661 98.3867 35.1507 98.2387 34.8967C97.1653 32.889 97.3999 30.2419 98.8452 28.4682C99.0233 28.2469 98.9901 27.9101 98.7689 27.7321C98.5476 27.554 98.2107 27.5871 98.0327 27.8084C96.3395 29.9002 96.054 33.026 97.3165 35.4095C97.4302 35.5835 97.6623 35.6957 97.8707 35.662Z" fill="#015CA5"/>
<path d="M100.298 45.6425C100.423 45.6222 100.521 45.5637 100.611 45.4635C100.81 45.2388 100.781 44.9228 100.577 44.7206C99.2254 43.5064 98.8713 41.3181 99.7707 39.7397C99.9212 39.4801 99.829 39.1742 99.5694 39.0238C99.3098 38.8733 99.0039 38.9656 98.8534 39.2252C97.7021 41.2293 98.1472 43.9802 99.8719 45.519C99.9755 45.6305 100.131 45.6695 100.298 45.6425Z" fill="#015CA5"/>
<path d="M89.8226 39.06C89.906 39.0465 89.986 39.0122 90.0626 38.957C90.2891 38.7707 90.3218 38.4446 90.1563 38.2148C89.0005 36.755 88.8306 34.5156 89.7684 32.9096C89.9188 32.65 89.8266 32.3441 89.5878 32.1903C89.3282 32.0398 89.0224 32.1321 88.8685 32.3708C87.6963 34.3783 87.892 37.0413 89.3411 38.8599C89.4515 39.0132 89.6559 39.087 89.8226 39.06Z" fill="#015CA5"/>
<path d="M80.6989 34.7412C80.7823 34.7277 80.8623 34.6934 80.918 34.6416C81.1479 34.476 81.2015 34.1466 81.0326 33.8959C79.8707 32.2661 80.0455 29.7784 81.4406 28.355C81.6428 28.1512 81.6306 27.811 81.4267 27.6087C81.2229 27.4065 80.8827 27.4187 80.6805 27.6226C78.9192 29.426 78.6828 32.4583 80.1724 34.527C80.3069 34.6977 80.5113 34.7715 80.6989 34.7412Z" fill="#015CA5"/>
<path d="M84.7778 47.4027C84.8403 47.3926 84.9203 47.3583 84.9794 47.3273C85.2301 47.1585 85.2871 46.8498 85.1391 46.5958C84.4601 45.5722 84.3277 44.2249 84.7877 43.1025C84.8931 42.8288 84.7591 42.5297 84.4854 42.4243C84.2117 42.3189 83.9126 42.4528 83.8072 42.7265C83.2311 44.1885 83.4001 45.8934 84.2512 47.1885C84.3616 47.3418 84.5694 47.4365 84.7778 47.4027Z" fill="#015CA5"/>
<path d="M94.1704 50.4607C94.2538 50.4472 94.3337 50.4129 94.4104 50.3577C94.6368 50.1714 94.6696 49.8453 94.5041 49.6154C93.4586 48.3089 92.8104 46.6816 92.6481 45.0183C92.6218 44.7232 92.3729 44.5068 92.0778 44.5332C91.7826 44.5596 91.5663 44.8084 91.5926 45.1036C91.7644 46.9578 92.5089 48.7834 93.6647 50.2431C93.7818 50.438 93.9828 50.4911 94.1704 50.4607Z" fill="#015CA5"/>
<path d="M71.2475 34.7513C71.3101 34.7412 71.39 34.7068 71.4492 34.6759C71.6999 34.507 71.7535 34.1775 71.588 33.9477C70.6299 32.5201 70.8029 30.4177 71.9923 29.1773C72.1946 28.9735 72.1823 28.6333 71.9785 28.431C71.7747 28.2287 71.4345 28.241 71.2322 28.4448C69.7149 30.0377 69.5045 32.7022 70.721 34.5371C70.8347 34.7111 71.0391 34.785 71.2475 34.7513Z" fill="#015CA5"/>
<path d="M74.0316 44.1604C74.0941 44.1503 74.1533 44.1193 74.2124 44.0884C74.4665 43.9403 74.5409 43.6075 74.3929 43.3534C73.6904 42.1839 73.8092 40.5394 74.6887 39.4988C74.8668 39.2775 74.8545 38.9373 74.6332 38.7593C74.4086 38.5604 74.0718 38.5935 73.8937 38.8148C72.7071 40.2044 72.5408 42.3486 73.4983 43.9045C73.5945 44.1028 73.8232 44.1941 74.0316 44.1604Z" fill="#015CA5"/>
<path d="M73.4428 56.9157C73.5261 56.9022 73.6061 56.8679 73.6619 56.8161C73.8918 56.6506 73.9454 56.3211 73.7765 56.0704C72.6281 54.524 72.4407 52.3088 73.2957 50.5878C73.4253 50.3316 73.3297 50.0049 73.0526 49.8786C72.7964 49.749 72.4697 49.8446 72.3434 50.1217C71.2889 52.1957 71.5263 54.852 72.9196 56.7224C73.0717 56.8688 73.2552 56.9461 73.4428 56.9157Z" fill="#015CA5"/>
<path d="M62.4133 38.7043C62.455 38.6975 62.4966 38.6908 62.5558 38.6598C62.8132 38.5326 62.9361 38.2347 62.8264 37.9531C62.0261 36.1792 61.9598 34.0513 62.6695 32.2256C62.7749 31.9519 62.641 31.6528 62.3673 31.5473C62.0936 31.4419 61.7944 31.5759 61.689 31.8496C60.8739 33.949 60.939 36.3337 61.8699 38.3859C61.952 38.6292 62.184 38.7414 62.4133 38.7043Z" fill="#015CA5"/>
<path d="M65.0777 51.3409C65.1402 51.3308 65.1819 51.324 65.2411 51.2931C65.4985 51.1659 65.5972 50.8505 65.4666 50.5722C64.5621 48.8152 64.6873 46.5494 65.7676 44.899C65.9214 44.6602 65.8675 44.3268 65.6079 44.1763C65.3691 44.0225 65.0357 44.0764 64.8852 44.336C63.5812 46.3221 63.4508 48.9523 64.5411 51.0642C64.6373 51.2625 64.8693 51.3746 65.0777 51.3409Z" fill="#015CA5"/>
<path d="M69.2978 65.6488C69.3604 65.6386 69.4195 65.6077 69.4787 65.5767C69.7327 65.4287 69.8106 65.1167 69.6625 64.8626C68.857 63.4532 68.4588 61.7853 68.5602 60.165C68.5789 59.8839 68.3649 59.6191 68.063 59.6038C67.782 59.5851 67.5172 59.7991 67.5019 60.1009C67.3926 61.9365 67.8245 63.8127 68.7437 65.3962C68.8816 65.5878 69.0894 65.6825 69.2978 65.6488Z" fill="#015CA5"/>
<path d="M77.1151 70.8852C77.2193 70.8683 77.3168 70.8098 77.4108 70.7304C77.6131 70.5266 77.6217 70.183 77.4179 69.9807C76.347 68.9136 75.7364 67.3871 75.7921 65.8811C75.8074 65.5792 75.576 65.3386 75.2775 65.3441C74.9756 65.3288 74.735 65.5602 74.7406 65.8587C74.687 67.6424 75.4107 69.4715 76.6854 70.7409C76.7924 70.8733 76.9692 70.9088 77.1151 70.8852Z" fill="#015CA5"/>
<path d="M60.5016 62.0476C60.6058 62.0307 60.7241 61.9688 60.7973 61.8928C60.9996 61.689 60.9873 61.3488 60.7835 61.1465C59.3702 59.814 58.9751 57.5041 59.8509 55.7798C59.9806 55.5236 59.8849 55.1969 59.6079 55.0706C59.3516 54.941 59.0249 55.0366 58.8987 55.3137C57.816 57.4778 58.2887 60.2671 60.0544 61.9275C60.1788 62.0357 60.3348 62.0746 60.5016 62.0476Z" fill="#015CA5"/>
<path d="M56.6159 49.2669C56.6576 49.2602 56.7201 49.2501 56.7793 49.2191C57.0367 49.0919 57.1354 48.7765 57.0082 48.5191C56.2827 47.0753 56.232 45.3085 56.8673 43.8156C56.9727 43.5419 56.8596 43.2394 56.5825 43.1131C56.3088 43.0077 56.0063 43.1208 55.8801 43.3979C55.1186 45.1678 55.1781 47.254 56.0376 48.9969C56.1547 49.1919 56.3867 49.304 56.6159 49.2669Z" fill="#015CA5"/>
<path d="M52.6771 41.9693C52.7396 41.9592 52.8021 41.9491 52.8405 41.9215C53.0945 41.7734 53.1932 41.4581 53.0451 41.204C51.7719 38.8865 51.7791 35.8912 53.05 33.5684C53.1796 33.3121 53.1048 32.9821 52.8486 32.8524C52.589 32.702 52.2623 32.7976 52.1327 33.0538C50.6972 35.6814 50.6916 39.0827 52.1438 41.7134C52.2367 41.8909 52.4687 42.003 52.6771 41.9693Z" fill="#015CA5"/>
<path d="M51.9043 58.0922C52.0085 58.0753 52.1094 58.0376 52.1826 57.9616C52.3849 57.7578 52.3968 57.4351 52.2104 57.2086C51.6925 56.6508 51.3875 55.8234 51.4193 54.9628C51.4511 54.1022 51.795 53.3194 52.3736 52.798C52.5967 52.5908 52.6086 52.2681 52.4014 52.045C52.1942 51.8219 51.8715 51.81 51.6484 52.0172C50.8642 52.7215 50.3941 53.7813 50.3436 54.923C50.293 56.0646 50.6836 57.1563 51.4087 57.9371C51.5574 58.0628 51.7376 58.1192 51.9043 58.0922Z" fill="#015CA5"/>
<path d="M54.9221 68.148C55.0055 68.1345 55.0855 68.1002 55.1621 68.045C55.3886 67.8587 55.4422 67.5292 55.2558 67.3027C54.39 66.1811 53.8514 64.8353 53.688 63.4289C53.6616 63.1338 53.3953 62.9416 53.1001 62.968C52.805 62.9944 52.6129 63.2607 52.6392 63.5558C52.8122 65.1532 53.4436 66.6764 54.4198 67.9513C54.5543 68.122 54.7554 68.175 54.9221 68.148Z" fill="#015CA5"/>
<path d="M45.3322 48.3968C45.3948 48.3867 45.4539 48.3557 45.5131 48.3248C45.7671 48.1767 45.8416 47.8439 45.6936 47.5898C44.7327 46.013 44.9829 43.727 46.2873 42.4038C46.4895 42.2 46.4772 41.8598 46.2734 41.6576C46.0696 41.4553 45.7294 41.4676 45.5271 41.6714C43.8741 43.3504 43.5763 46.136 44.7781 48.1443C44.916 48.3358 45.1447 48.4272 45.3322 48.3968Z" fill="#015CA5"/>
<path d="M45.3375 61.2496C45.4417 61.2328 45.5426 61.1951 45.6124 61.0982C45.8147 60.8944 45.8233 60.5508 45.6194 60.3486C44.0306 58.7237 43.5223 56.1113 44.3583 54.0085C44.4637 53.7348 44.3297 53.4357 44.056 53.3303C43.7823 53.2248 43.4832 53.3588 43.3778 53.6325C42.3908 56.1233 42.9941 59.1908 44.8661 61.112C45.0114 61.2169 45.1708 61.2766 45.3375 61.2496Z" fill="#015CA5"/>
<path d="M39.6339 65.2541C39.759 65.2339 39.8981 65.1686 39.9646 65.0509C40.1393 64.8088 40.0887 64.4962 39.8674 64.3182C39.0166 63.6859 38.7416 62.3831 39.2562 61.4658C39.4067 61.2062 39.311 60.8795 39.0548 60.7498C38.7952 60.5994 38.4685 60.695 38.3389 60.9512C37.5792 62.336 37.9694 64.2189 39.2352 65.169C39.3563 65.2563 39.488 65.2778 39.6339 65.2541Z" fill="#015CA5"/>
<path d="M39.2129 54.5849C39.2755 54.5747 39.3346 54.5438 39.3937 54.5128C39.6478 54.3648 39.7223 54.0319 39.5776 53.7987C38.6617 52.236 38.4315 50.2844 38.988 48.569C39.0726 48.2986 38.9178 48.0029 38.6441 47.8975C38.3737 47.8129 38.078 47.9677 37.9726 48.2414C37.3349 50.2479 37.5949 52.5156 38.6588 54.3323C38.7967 54.5239 39.0045 54.6186 39.2129 54.5849Z" fill="#015CA5"/>
<path d="M83.2453 83.2607C83.3704 83.2405 83.5095 83.1752 83.576 83.0575C83.7507 82.8154 83.7001 82.5028 83.4788 82.3247C81.9951 81.2175 81.2692 79.1108 81.7706 77.3188C81.8518 77.0276 81.6795 76.7561 81.4092 76.6715C81.118 76.5903 80.8465 76.7625 80.7619 77.0329C80.1196 79.2754 80.9755 81.7888 82.8466 83.1755C82.9676 83.2629 83.0994 83.2843 83.2453 83.2607Z" fill="#015CA5"/>
<path d="M72.0884 82.2427C72.1509 82.2326 72.2309 82.1982 72.2901 82.1673C72.5407 81.9984 72.5944 81.6689 72.4289 81.4391C71.75 80.4155 71.6665 78.9747 72.2408 77.898C72.3704 77.6418 72.2748 77.3151 72.0186 77.1855C71.7623 77.0558 71.4356 77.1515 71.306 77.4077C70.5564 78.8549 70.638 80.6809 71.541 82.0319C71.6722 82.1817 71.88 82.2764 72.0884 82.2427Z" fill="#015CA5"/>
<path d="M65.8311 88.1099C65.977 88.0863 66.1127 88.0002 66.2001 87.8792C66.3539 87.6404 66.2791 87.3103 66.0403 87.1565C65.016 86.5096 64.5823 85.0186 65.0907 83.9311C65.2203 83.6749 65.1039 83.3516 64.8268 83.2253C64.5706 83.0957 64.2472 83.2122 64.121 83.4892C63.3916 85.0615 63.9998 87.1017 65.4565 88.0422C65.5951 88.1054 65.706 88.1302 65.8311 88.1099Z" fill="#015CA5"/>
<path d="M56.5249 79.6289C56.6083 79.6154 56.6674 79.5844 56.744 79.5293C56.9739 79.3638 57.0483 79.0309 56.8828 78.8011C56.1071 77.7076 55.7978 76.3248 56.0331 75.0035C56.0935 74.7157 55.9004 74.4476 55.6126 74.3872C55.3248 74.3269 55.0566 74.52 54.9963 74.8077C54.7181 76.3926 55.0954 78.0638 56.0158 79.3905C56.1329 79.5854 56.3374 79.6592 56.5249 79.6289Z" fill="#015CA5"/>
<path d="M47.947 78.9642C48.0095 78.9541 48.072 78.944 48.1103 78.9164C48.3644 78.7683 48.4631 78.453 48.315 78.1989C47.5546 76.8035 47.518 74.9916 48.2535 73.5894C48.3831 73.3332 48.2875 73.0065 48.0313 72.8769C47.775 72.7472 47.4483 72.8429 47.3187 73.0991C46.4254 74.8476 46.4501 76.9823 47.3929 78.7117C47.51 78.9066 47.7386 78.9979 47.947 78.9642Z" fill="#015CA5"/>
<path d="M91.9406 79.7588C92.1073 79.7318 92.2397 79.6248 92.3237 79.4829C92.4533 79.2267 92.3368 78.9034 92.0806 78.7737C91.3604 78.4198 90.8188 77.7161 90.5696 76.8368C90.3412 75.9542 90.4564 75.0801 90.9038 74.4089C91.0577 74.1701 91.0037 73.8367 90.765 73.6829C90.5262 73.529 90.1928 73.583 90.0389 73.8217C89.441 74.7525 89.2688 75.9352 89.5652 77.1063C89.8825 78.274 90.6347 79.2216 91.6145 79.726C91.7288 79.7716 91.8364 79.7756 91.9406 79.7588Z" fill="#015CA5"/>
<path d="M102.609 82.3932C102.755 82.3696 102.891 82.2835 102.975 82.1416C103.129 81.9028 103.054 81.5727 102.794 81.4223C100.919 80.2715 99.7912 77.9304 100.079 75.7452C100.119 75.4608 99.9048 75.196 99.6204 75.1565C99.3359 75.1169 99.0712 75.3309 99.0316 75.6153C98.7002 78.1925 100.023 80.951 102.256 82.3221C102.373 82.3886 102.505 82.4101 102.609 82.3932Z" fill="#015CA5"/>
<path d="M107.033 63.7342C107.096 63.724 107.137 63.7173 107.197 63.6863C110.102 62.2111 112.686 60.2103 114.863 57.8049C115.062 57.5803 115.033 57.2643 114.829 57.062C114.604 56.8631 114.288 56.8929 114.086 57.0967C111.982 59.426 109.509 61.3233 106.725 62.7574C106.468 62.8846 106.369 63.2 106.497 63.4574C106.593 63.6557 106.804 63.7713 107.033 63.7342Z" fill="#015CA5"/>
<path d="M170.863 35.9342C173.801 35.4587 176.119 33.5226 176.975 30.7535C177.623 28.681 177.277 26.406 176.026 24.4912C174.775 22.5764 172.796 21.3141 170.725 21.0718C167.762 20.7385 165.001 21.9124 163.383 24.2059C161.745 26.5027 161.515 29.4483 162.777 32.0886C164.01 34.6905 166.87 36.2381 170.043 36.024C170.338 35.9977 170.613 35.9747 170.863 35.9342ZM170.531 23.1776C171.967 23.3302 173.379 24.2566 174.288 25.6492C175.195 27.0209 175.437 28.6499 174.989 30.1124C174.189 32.7013 171.862 33.7836 169.935 33.9029C167.63 34.0621 165.577 33.0042 164.725 31.1746C163.811 29.2266 163.953 27.065 165.141 25.4185C166.325 23.7512 168.287 22.9206 170.531 23.1776Z" fill="#015CA5"/>
<path d="M166.766 25.9452C167.366 25.4204 168.31 25.3104 168.981 25.7578C169.677 26.2227 169.811 27.1847 169.523 27.9157C169.249 28.6016 168.621 29.2164 167.875 29.3587C167.128 29.5009 166.349 29.0495 166.064 28.3471C165.749 27.4571 166.094 26.5459 166.766 25.9452C166.972 25.7622 167.34 25.7882 167.505 26.0181C167.691 26.2446 167.659 26.5706 167.432 26.757C167.415 26.7812 167.376 26.8088 167.359 26.833C167.282 26.8882 167.432 26.757 167.342 26.8572C167.286 26.909 167.233 26.9817 167.202 27.0509C167.184 27.0751 167.167 27.0993 167.149 27.1236L167.135 27.1686C167.135 27.1686 167.184 27.0751 167.17 27.1202C167.139 27.1894 167.107 27.2587 167.076 27.328C167.058 27.3522 167.061 27.373 167.047 27.4181C167.051 27.4389 167.033 27.4631 167.037 27.484C167.023 27.529 167.047 27.4181 167.047 27.4181C167.057 27.4806 167.026 27.5499 167.015 27.6158C167.019 27.6366 167.004 27.6817 167.008 27.7025C167.011 27.7234 167.011 27.7233 167.015 27.7442C167.004 27.8101 167.001 27.6608 167.004 27.6817C167.015 27.7442 167.025 27.8067 167.035 27.8692C167.038 27.8901 167.045 27.9317 167.048 27.9526C167.062 28.0359 167.007 27.8309 167.045 27.9318C167.076 27.9909 167.086 28.0534 167.114 28.0917C167.117 28.1126 167.138 28.1092 167.141 28.13C167.141 28.13 167.062 28.036 167.11 28.0709C167.134 28.0884 167.138 28.1092 167.162 28.1267C167.186 28.1441 167.19 28.165 167.217 28.2033C167.221 28.2241 167.241 28.2207 167.245 28.2416C167.272 28.2799 167.148 28.1717 167.196 28.2067C167.245 28.2416 167.293 28.2765 167.342 28.3115L167.366 28.3289C167.414 28.3639 167.297 28.2974 167.317 28.294C167.362 28.3081 167.387 28.3256 167.411 28.343C167.435 28.3605 167.456 28.3571 167.501 28.3712C167.591 28.3994 167.39 28.3464 167.48 28.3746C167.546 28.3853 167.609 28.3752 167.674 28.3859C167.674 28.3859 167.549 28.4062 167.612 28.396C167.633 28.3927 167.633 28.3927 167.654 28.3893C167.674 28.3859 167.716 28.3792 167.758 28.3724C167.779 28.3691 167.82 28.3623 167.841 28.3589C167.904 28.3488 167.761 28.3933 167.782 28.3899C167.803 28.3865 167.824 28.3832 167.841 28.3589C167.9 28.328 167.942 28.3212 168.001 28.2903C168.022 28.2869 168.06 28.2593 168.099 28.2317C168.099 28.2317 168.001 28.2903 168.039 28.2627C168.06 28.2593 168.078 28.2351 168.099 28.2317C168.158 28.2008 168.193 28.1524 168.252 28.1214C168.269 28.0972 168.287 28.073 168.328 28.0662C168.349 28.0629 168.346 28.042 168.367 28.0386C168.423 27.9868 168.297 28.1355 168.349 28.0629C168.44 27.9626 168.506 27.8449 168.576 27.7481C168.629 27.6755 168.531 27.8624 168.576 27.7481C168.594 27.7239 168.611 27.6997 168.605 27.658C168.636 27.5887 168.647 27.5228 168.678 27.4536C168.675 27.4327 168.696 27.4293 168.693 27.4085C168.693 27.4085 168.668 27.5195 168.682 27.4744C168.678 27.4536 168.693 27.4085 168.689 27.3877C168.7 27.3218 168.69 27.2593 168.697 27.1725C168.711 27.1275 168.707 27.235 168.707 27.235C168.704 27.2142 168.7 27.1934 168.697 27.1725C168.694 27.1517 168.687 27.11 168.684 27.0892C168.68 27.0683 168.673 27.0266 168.67 27.0058C168.667 26.985 168.663 26.9641 168.66 26.9433C168.663 26.9641 168.701 27.0649 168.667 26.985C168.636 26.9258 168.626 26.8633 168.598 26.825C168.677 26.9191 168.564 26.745 168.598 26.825C168.574 26.8075 168.546 26.7692 168.543 26.7484C168.54 26.7275 168.519 26.7309 168.515 26.7101C168.467 26.6751 168.612 26.7799 168.54 26.7275C168.515 26.71 168.491 26.6926 168.467 26.6751L168.443 26.6576C168.394 26.6227 168.467 26.6751 168.488 26.6717C168.467 26.6751 168.418 26.6402 168.394 26.6227C168.37 26.6052 168.328 26.612 168.304 26.5945C168.259 26.5804 168.37 26.6052 168.37 26.6052C168.349 26.6086 168.325 26.5911 168.304 26.5945C168.262 26.6013 168.238 26.5838 168.197 26.5905C168.176 26.5939 168.176 26.5939 168.155 26.5973C168.068 26.5899 168.155 26.5973 168.197 26.5905C168.134 26.6007 168.068 26.5899 167.988 26.6243C167.946 26.631 167.908 26.6586 167.863 26.6445C167.863 26.6445 167.985 26.6034 167.926 26.6344C167.905 26.6377 167.884 26.6411 167.867 26.6653C167.807 26.6963 167.71 26.7548 167.668 26.7616C167.668 26.7616 167.766 26.703 167.727 26.7306C167.71 26.7548 167.689 26.7582 167.672 26.7824C167.633 26.81 167.616 26.8342 167.578 26.8618C167.372 27.0448 167.004 27.0187 166.839 26.7889C166.528 26.4542 166.54 26.1315 166.766 25.9452Z" fill="#015CA5"/>
<path d="M162.413 58.5156C164.726 58.1413 166.514 56.633 167.187 54.4496C167.695 52.8277 167.426 51.032 166.436 49.5453C165.468 48.0553 163.915 47.0449 162.284 46.881C159.974 46.6133 157.814 47.5401 156.542 49.3285C155.271 51.1169 155.086 53.4137 156.065 55.5007C157.038 57.5461 159.267 58.768 161.764 58.5993C162.017 58.5797 162.205 58.5493 162.413 58.5156ZM162.199 47.9427L162.09 48.9868C163.093 49.1026 164.072 49.7355 164.702 50.7241C165.071 51.2847 165.624 52.4569 165.184 53.8327C164.624 55.6557 162.989 56.3907 161.635 56.4815C160.027 56.5919 158.583 55.8632 157.993 54.5901C157.343 53.2196 157.461 51.7034 158.279 50.5445C159.114 49.3615 160.498 48.7954 162.066 48.9694L162.199 47.9427Z" fill="#015CA5"/>
<path d="M159.221 50.6902C159.726 50.2448 160.483 50.1651 161.037 50.546C161.611 50.9236 161.718 51.7189 161.472 52.3147C161.244 52.8863 160.742 53.3525 160.141 53.4711C159.54 53.5898 158.882 53.2257 158.66 52.6416C158.396 51.9357 158.68 51.1839 159.221 50.6902C159.426 50.5072 159.794 50.5332 159.96 50.7631C160.146 50.9896 160.113 51.3156 159.887 51.502C159.869 51.5262 159.848 51.5296 159.831 51.5538C159.758 51.6298 159.922 51.4536 159.848 51.5296C159.81 51.5572 159.796 51.6022 159.758 51.6298C159.719 51.6574 159.705 51.7024 159.691 51.7475C159.639 51.8201 159.758 51.6298 159.705 51.7024C159.688 51.7267 159.691 51.7475 159.674 51.7717C159.66 51.8168 159.642 51.841 159.628 51.886C159.631 51.9069 159.614 51.9311 159.614 51.9311C159.586 52.0212 159.635 51.7993 159.628 51.886C159.621 51.9728 159.613 52.0595 159.606 52.1462C159.599 52.1045 159.613 52.0595 159.603 51.997C159.596 52.0837 159.609 52.1671 159.644 52.2471C159.637 52.2054 159.609 52.1671 159.599 52.1046C159.606 52.1462 159.634 52.1845 159.64 52.2262C159.644 52.2471 159.668 52.2645 159.671 52.2854C159.706 52.3654 159.613 52.1879 159.64 52.2262C159.668 52.2645 159.695 52.3028 159.72 52.3203C159.747 52.3586 159.817 52.3902 159.671 52.2854C159.695 52.3028 159.695 52.3028 159.72 52.3203C159.744 52.3378 159.792 52.3727 159.817 52.3902C159.671 52.2854 159.771 52.3761 159.837 52.3868C159.862 52.4043 159.882 52.4009 159.903 52.3975C159.765 52.3344 159.792 52.3727 159.858 52.3834C159.903 52.3975 159.945 52.3908 159.99 52.4049C159.948 52.4116 159.903 52.3975 159.841 52.4076C159.924 52.3942 159.987 52.384 160.07 52.3706C160.028 52.3773 159.99 52.4049 159.927 52.415C159.99 52.4049 160.049 52.3739 160.108 52.343C160.129 52.3396 160.167 52.312 160.188 52.3086C160.032 52.3981 160.129 52.3396 160.167 52.312C160.227 52.2811 160.282 52.2293 160.317 52.1808C160.373 52.129 160.335 52.1566 160.317 52.1808C160.3 52.205 160.244 52.2568 160.317 52.1808C160.335 52.1566 160.352 52.1324 160.391 52.1048C160.408 52.0806 160.516 51.9562 160.492 51.9387C160.492 51.9387 160.429 52.0772 160.457 51.9871C160.454 51.9663 160.475 51.9629 160.471 51.9421C160.489 51.9179 160.503 51.8728 160.52 51.8486C160.538 51.8244 160.531 51.7827 160.548 51.7585C160.562 51.7134 160.527 51.8903 160.538 51.8244C160.534 51.8035 160.555 51.8002 160.552 51.7793C160.562 51.7134 160.573 51.6475 160.56 51.5642C160.566 51.6059 160.552 51.6509 160.562 51.7134C160.57 51.6267 160.556 51.5433 160.519 51.4425C160.525 51.4842 160.553 51.5225 160.563 51.585C160.556 51.5433 160.529 51.505 160.522 51.4633C160.519 51.4425 160.494 51.425 160.491 51.4042C160.46 51.345 160.574 51.5191 160.522 51.4633C160.519 51.4425 160.446 51.3901 160.443 51.3693C160.446 51.3901 160.564 51.4566 160.491 51.4042C160.467 51.3867 160.467 51.3867 160.443 51.3693C160.418 51.3518 160.418 51.3518 160.394 51.3343C160.515 51.4217 160.488 51.3834 160.443 51.3693C160.398 51.3552 160.373 51.3377 160.328 51.3236C160.262 51.3129 160.46 51.3451 160.394 51.3343C160.373 51.3377 160.349 51.3202 160.328 51.3236C160.283 51.3095 160.242 51.3163 160.2 51.323C160.242 51.3163 160.287 51.3303 160.349 51.3202C160.242 51.3163 160.158 51.3297 160.057 51.3674C160.099 51.3607 160.137 51.3331 160.2 51.323C160.137 51.3331 160.057 51.3674 159.998 51.3984C159.977 51.4018 159.918 51.4327 159.998 51.3984C160.075 51.3432 160.019 51.395 159.998 51.3984C159.96 51.426 159.942 51.4502 159.904 51.4778C159.699 51.6608 159.331 51.6347 159.165 51.4049C158.982 51.1992 158.994 50.8765 159.221 50.6902Z" fill="#015CA5"/>
</g>
</svg>
