<svg width="234" height="50" viewBox="0 0 234 50" fill="none" xmlns="http://www.w3.org/2000/svg">
<path d="M72.7767 22.5846L69.6397 21.6668C67.0768 20.9396 66.8094 19.6775 66.8094 18.989C66.8094 17.4207 68.2626 16.273 70.2138 16.273C71.3997 16.273 72.853 16.6935 73.9625 18.1092C74.8804 19.2564 76.1049 19.6393 77.4819 18.7596C78.4384 18.1474 78.9739 16.9234 78.3235 15.6607C76.9083 12.9067 74.0775 11.2616 70.2906 11.2616C65.2406 11.2616 61.2239 14.4368 61.2239 19.142C61.2239 21.5137 62.219 24.8414 68.0333 26.6395L71.2085 27.5192C73.8863 28.2845 74.4217 29.3173 74.3831 30.5031C74.3449 32.225 72.7767 33.2959 70.5199 33.2959C68.1477 33.2959 66.8475 31.9951 66.2739 30.8092C65.7379 29.7002 64.3227 28.8962 62.8308 29.4703C61.53 29.9677 60.9177 31.2684 61.3388 32.6073C62.4865 36.0118 65.8528 38.2686 70.5199 38.2686C75.187 38.2686 79.9304 35.7825 80.0067 30.5412C80.0835 28.0165 79.1651 24.4208 72.7767 22.5846Z" fill="#DBE3F1"/>
<path d="M93.4328 19.7153C91.7496 19.7153 89.1868 20.6337 88.4601 22.8524V12.524C88.4601 11.1851 87.2356 10.1518 85.7823 10.1518C84.3666 10.1518 83.1426 11.2233 83.1045 12.524V35.7436C83.1426 37.0443 84.3666 38.1152 85.7823 38.1152C87.2356 38.1152 88.4601 37.0825 88.4601 35.7436V28.4754C88.4601 25.7595 90.2958 24.8798 91.979 24.8798C93.5859 24.8798 95.269 26.0656 95.269 28.3992V35.7436C95.3072 37.0443 96.5317 38.1152 97.9469 38.1152C99.4002 38.1152 100.624 37.0825 100.624 35.7436V28.208C100.624 22.8142 98.1381 19.7153 93.4328 19.7153Z" fill="#DBE3F1"/>
<path d="M114.662 19.7153C112.826 19.7153 110.952 20.8631 109.957 24.1913V22.2401C109.957 20.9012 108.733 19.8684 107.279 19.8684C105.864 19.8684 104.64 20.9393 104.602 22.2401V35.7435C104.64 37.0443 105.864 38.1152 107.279 38.1152C108.733 38.1152 109.957 37.0825 109.957 35.7435V31.3444C110.034 26.8691 111.029 24.5736 114.012 24.5736C114.356 24.5736 114.93 24.6118 115.313 24.6118C116.499 24.6118 117.761 23.9995 117.952 22.6612C118.297 20.1364 116.422 19.7153 114.662 19.7153Z" fill="#DBE3F1"/>
<path d="M122.695 10.3428C120.897 10.3428 119.367 11.6817 119.367 13.4417C119.367 15.2011 120.897 16.5781 122.695 16.5781C124.493 16.5781 125.947 15.2011 125.947 13.4417C125.947 11.6817 124.493 10.3428 122.695 10.3428Z" fill="#DBE3F1"/>
<path d="M122.695 19.8684C121.28 19.8684 120.056 20.9393 120.018 22.2401V35.7435C120.056 37.0443 121.28 38.1152 122.695 38.1152C124.149 38.1152 125.373 37.0825 125.373 35.7435V22.2401C125.373 20.9012 124.149 19.8684 122.695 19.8684Z" fill="#DBE3F1"/>
<path d="M150.62 19.6772C149.357 19.6772 146.718 20.2508 145.417 23.0817C144.231 20.6337 142.357 19.7153 139.526 19.7153C137.614 19.7153 135.701 20.7863 134.859 22.6612V22.2401C134.859 20.9012 133.635 19.8684 132.182 19.8684C130.766 19.8684 129.542 20.9393 129.504 22.2401V35.7436C129.542 37.0443 130.766 38.1152 132.182 38.1152C133.635 38.1152 134.859 37.0825 134.859 35.7436V28.4754C134.859 25.7595 136.351 24.8411 137.958 24.8411C139.488 24.8411 140.903 26.0275 140.903 28.2842V35.7436C140.942 37.0443 142.166 38.1152 143.581 38.1152C145.035 38.1152 146.259 37.0825 146.259 35.7436V28.4754C146.259 25.8744 147.598 24.8411 149.281 24.8411C150.849 24.8411 152.265 26.0656 152.265 28.3992V35.7436C152.303 37.0443 153.527 38.1152 154.943 38.1152C156.396 38.1152 157.62 37.0825 157.62 35.7436V27.7869C157.582 22.3932 154.866 19.6772 150.62 19.6772Z" fill="#DBE3F1"/>
<path d="M171.353 33.5254C168.943 33.5254 166.992 31.3831 166.992 29.0114C166.992 26.6397 168.943 24.4979 171.353 24.4979C174.031 24.4979 175.561 26.6397 175.561 29.0114C175.561 31.3831 174.031 33.5254 171.353 33.5254ZM172.386 19.7158C171.238 19.7158 168.561 20.2132 167.03 22.5848V22.2406C166.992 20.9398 165.768 19.8689 164.352 19.8689C162.899 19.8689 161.675 20.9017 161.675 22.2406V44.2748C161.675 45.6137 162.899 46.6465 164.352 46.6465C165.768 46.6465 166.992 45.5756 167.03 44.2748V35.3998C168.178 37.2741 170.358 38.2688 172.386 38.2688C176.938 38.2688 181.069 34.9025 181.069 28.9732C181.069 23.044 176.938 19.7158 172.386 19.7158Z" fill="#DBE3F1"/>
<path d="M187.112 10.1518C185.697 10.1518 184.472 11.2233 184.435 12.5235V35.7436C184.472 37.0443 185.697 38.1152 187.112 38.1152C188.566 38.1152 189.79 37.0825 189.79 35.7436V12.5235C189.79 11.1846 188.566 10.1518 187.112 10.1518Z" fill="#DBE3F1"/>
<path d="M212.434 20.0596H210.598V18.6444C210.598 16.5402 211.248 15.2394 213.084 15.2394H213.544C214.882 15.2013 215.992 14.0923 215.992 12.7915C215.992 11.4526 214.921 10.343 213.544 10.343H213.084C207.959 10.343 205.242 13.3651 205.242 18.8356V20.0596H203.56C202.488 20.0596 201.646 21.0161 201.646 22.1633C201.646 23.2729 202.488 24.2294 203.56 24.2675H205.242V35.7435C205.28 37.0443 206.505 38.1152 207.92 38.1152C209.374 38.1152 210.598 37.0825 210.598 35.7435V24.2675H212.434C213.505 24.2294 214.347 23.2729 214.347 22.1633C214.347 21.0161 213.505 20.0596 212.434 20.0596Z" fill="#DBE3F1"/>
<path d="M230.967 19.6264C229.353 19.4734 227.989 20.7371 227.989 22.3222V22.3527V26.7039V28.7401C227.989 32.1777 226.51 33.5853 224.556 33.5853C222.568 33.5853 221.41 32.1777 221.41 28.7401V22.4726C221.41 21.0552 220.376 19.7909 218.964 19.6569C217.35 19.5039 215.985 20.7676 215.985 22.3527V30.3344C215.985 36.2952 219.567 38.2873 223.143 38.2873C225.24 38.2873 226.868 37.5976 227.989 36.2952V37.4925C227.989 38.3303 228.008 39.173 227.979 40.0156C227.926 41.7821 227.486 43.2665 226.102 44.454C224.733 45.6273 222.865 46.1921 221.08 45.7803C220.438 45.6365 219.816 45.3685 219.323 44.9279C218.829 44.4921 218.475 43.8793 218.437 43.2185C218.394 42.5627 218.695 41.8731 219.251 41.519C220.452 40.7575 222.1 41.9978 222.344 43.2954C222.401 43.5781 222.755 43.7023 222.952 43.4914C223.186 43.2376 223.383 42.8165 223.287 42.122C223.115 40.8774 222.19 39.8718 220.998 39.4791C219.079 38.857 216.919 39.2449 215.569 40.8343C214.549 42.0349 214.186 43.6467 214.584 45.1697C215.213 47.5844 217.63 49.1439 219.935 49.6859C221.329 50.0139 222.785 50.077 224.206 49.9125C226.877 49.6037 229.484 48.4157 231.088 46.2096C232.5 44.2698 233.024 41.8535 233.236 39.5052C233.285 38.9643 233.317 38.4223 233.339 37.8798C233.351 37.6804 233.363 37.4811 233.371 37.2817C233.404 36.396 233.414 35.5054 233.414 34.6099V26.7039V22.4726V22.4415C233.414 21.0247 232.379 19.7604 230.967 19.6264Z" fill="#DBE3F1"/>
<path d="M196.715 10.3555C194.917 10.3555 193.387 11.6944 193.387 13.4544C193.387 15.2138 194.917 16.5908 196.715 16.5908C198.513 16.5908 199.966 15.2138 199.966 13.4544C199.966 11.6944 198.513 10.3555 196.715 10.3555Z" fill="#DBE3F1"/>
<path d="M197.491 19.982C197.233 19.909 196.959 19.8687 196.675 19.8687C195.26 19.8687 194.036 20.9396 193.997 22.2404V35.7438C194.029 36.8055 194.85 37.7135 195.921 38.0115C196.174 38.0861 196.44 38.127 196.715 38.127C198.168 38.127 199.392 37.0942 199.392 35.7553V22.2518C199.392 21.1607 198.579 20.2734 197.491 19.982Z" fill="#DBE3F1"/>
<path d="M35.7986 17.106C35.31 19.4864 34.1285 21.5983 32.3043 23.4318C32.1915 23.5451 32.2416 23.7303 32.3985 23.7619C33.4166 23.9667 34.4357 24.2287 35.3912 24.5626C35.4375 24.5784 35.4838 24.5784 35.529 24.5605C38.8784 23.2123 43.8429 20.2594 46.5022 14.2359C46.5409 14.1482 46.5164 14.0388 46.4429 13.9778C43.1822 11.2727 39.1045 9.77801 35.3683 8.96094C35.213 8.92716 35.0839 9.0726 35.1352 9.22294C35.889 11.4514 36.3902 14.2278 35.7986 17.106Z" fill="#DBE3F1"/>
<path d="M32.1767 37.8541C31.0742 37.6259 30.0518 36.9956 29.2527 36.1208C28.4749 35.2694 27.3457 34.7743 26.198 34.7307C25.285 34.6959 23.524 35.0363 23.0925 36.0026C22.5113 37.3034 24.7398 38.821 25.6298 39.369C25.3602 39.3227 25.114 39.2965 24.8879 39.2883C23.0778 39.2202 22.1878 41.5124 23.4766 42.7859C25.6576 44.9425 29.7871 45.1124 32.8424 44.8847C33.1104 44.8646 33.2776 44.6053 33.209 44.3449C32.6534 42.2282 32.5085 40.0259 32.5188 38.2523C32.5199 38.048 32.3766 37.8955 32.1767 37.8541Z" fill="#DBE3F1"/>
<path d="M38.1589 35.4297C38.0897 35.3795 37.9993 35.3981 37.9432 35.4618C36.9518 36.5823 35.8428 37.2441 34.7762 37.6183C34.7103 37.6412 34.6678 37.6946 34.6662 37.7643C34.6242 39.5885 34.7315 42.1209 35.3781 44.3292C35.4386 44.5356 35.6401 44.6615 35.8515 44.6201C37.2503 44.3455 42.3521 43.169 45.226 40.1665C45.3137 40.0744 45.2919 39.9497 45.1797 39.8898C42.6179 38.5182 40.0921 36.8214 38.1589 35.4297Z" fill="#DBE3F1"/>
<path d="M51.9146 29.045C48.9388 30.3087 45.81 30.702 43.1572 30.702C42.2007 30.702 41.3183 30.6513 40.5181 30.5794C40.4119 30.5696 40.3236 30.623 40.2937 30.7249C40.1733 31.1291 39.8247 32.237 39.2745 33.4697C39.2506 33.5242 39.2631 33.5873 39.3116 33.6222C41.4338 35.1534 44.312 37.0795 47.0781 38.4658C47.1304 38.492 47.1957 38.4794 47.2371 38.4386C50.3039 35.417 51.6117 32.0415 52.0949 29.179C52.1123 29.0782 52.0088 29.0047 51.9146 29.045Z" fill="#DBE3F1"/>
<path d="M48.3269 15.8184C48.2713 15.7432 48.1624 15.7628 48.121 15.8467C45.6246 20.9137 41.5931 23.8889 38.2475 25.5966C38.0993 25.6723 38.0993 25.8651 38.235 25.961C39.1234 26.5863 39.8027 27.3445 40.1513 28.2646C40.1791 28.3387 40.2384 28.3909 40.3174 28.3986C43.3793 28.7052 48.1259 28.6835 52.2118 26.5498C52.2902 26.509 52.3414 26.4223 52.3387 26.3341C52.1862 21.3097 48.9822 16.709 48.3269 15.8184Z" fill="#DBE3F1"/>
<path d="M19.1086 14.5671C18.3259 14.5671 17.6858 13.9271 17.6858 13.1443C17.6858 12.3616 18.3259 11.7215 19.1086 11.7215C19.8914 11.7215 20.514 12.3616 20.514 13.1443C20.514 13.9271 19.8914 14.5671 19.1086 14.5671ZM33.5871 11.5968C33.1601 9.6756 31.5063 8.27079 29.5317 8.12807C26.739 7.91509 24.8358 8.03928 24.8358 8.03928C21.3676 8.09266 17.8994 8.41296 14.4486 8.80406C13.2388 8.9288 12.0295 9.08895 10.8197 9.24909C9.91278 9.37329 8.7923 9.72899 7.88481 9.55141C5.69724 9.08895 4.91449 6.34958 6.40864 4.76664C7.61844 3.48602 9.64587 3.21911 11.3181 3.16573C11.3535 3.16573 24.8897 2.64988 24.8897 2.64988L11.3181 2.29419C8.18713 2.06323 3.15343 2.88084 3.5271 7.11436C3.61589 8.2174 4.18511 9.24909 5.05666 9.90711C5.53709 10.2808 6.08834 10.5297 6.5154 10.9388C6.7469 11.1523 7.51168 12.2368 7.01327 12.5217C6.81772 12.6285 5.94617 12.166 5.73265 12.0767C5.00382 11.757 4.32783 11.3119 3.7586 10.7427C1.8374 8.82204 1.30358 5.65561 3.26019 3.14775C4.41662 1.67158 6.26647 0.924774 8.15172 0.871393L27.3262 0.426363L7.70723 -0.000148773C5.94617 0.0706654 4.2385 0.586508 2.85111 1.6536C-0.350174 4.10863 -1.00873 8.43039 1.65982 11.5614C3.18938 13.3399 5.14599 13.9271 7.2622 14.6919C9.77061 15.5808 12.1183 16.844 14.2171 18.4804C17.4189 20.9528 21.3142 22.6959 25.3342 23.2292C28.1977 23.6028 31.0439 22.3936 32.6268 19.9391C34.2631 17.3599 34.2277 14.5317 33.5871 11.5968Z" fill="#DBE3F1"/>
</svg>
