<svg width="236" height="110" viewBox="0 0 236 110" fill="none" xmlns="http://www.w3.org/2000/svg">
<g opacity="0.3">
<path d="M96.0734 69.5443C97.228 67.3423 96.379 64.6213 94.1771 63.4667C91.9751 62.312 89.2541 63.161 88.0994 65.363C86.9448 67.5649 87.7938 70.286 89.9958 71.4406C92.1977 72.5953 94.9188 71.7462 96.0734 69.5443Z" fill="#015CA5"/>
<path d="M90.3764 68.7556C91.0662 68.67 91.556 68.0414 91.4704 67.3516C91.3848 66.6618 90.7562 66.1719 90.0664 66.2575C89.3766 66.3431 88.8868 66.9717 88.9724 67.6615C89.0579 68.3513 89.6865 68.8411 90.3764 68.7556Z" fill="white"/>
<path d="M180.235 87.0969C168.681 88.5304 157.085 87.6521 145.287 86.5305C131.32 85.2148 119.708 84.997 108.695 85.8756C106.689 86.0269 104.594 86.2381 102.57 86.4404C94.5507 87.2646 86.24 88.1006 78.6644 86.2113C75.5669 85.4249 73.6981 83.73 73.799 81.7908C73.8784 80.2688 75.081 78.3635 79.8436 77.0409C78.9731 76.905 78.0875 76.8442 77.226 76.7803C74.023 76.5192 70.6998 76.273 69.2918 72.9844C67.9138 69.7408 70.2617 66.2545 73.2297 64.2278C84.9663 56.2108 99.6504 52.0964 114.576 52.6835C122.394 52.9818 130.39 54.5262 138.134 56.0044C144.63 57.2472 151.35 58.5352 157.828 59.0485C174.975 60.4332 188.484 58.4401 199.146 52.971C210.361 47.2382 221.306 34.8074 220.539 19.9762C220.516 19.3938 220.892 18.8838 221.459 18.7402C222.027 18.5966 222.597 18.8673 222.858 19.3959C226.96 28.0818 228.437 37.63 227.161 47.0074C225.94 56.0367 222.072 64.3701 216.347 70.5192C206.31 81.2276 192.521 85.2799 182.754 86.76C181.889 86.8673 181.075 86.9926 180.235 87.0969ZM103.277 55.5732C92.8523 56.8665 82.9389 60.511 74.5758 66.2314C72.8455 67.4217 70.5975 69.9444 71.4903 72.0287C72.2781 73.8578 74.2353 74.1027 77.3873 74.3458C79.8489 74.5282 82.6587 74.7649 85.044 76.2981C85.467 76.5627 85.6767 77.0733 85.5682 77.5745C85.4596 78.0758 85.066 78.4417 84.5616 78.5043C77.8059 79.4888 76.2492 81.2916 76.2006 81.883C76.1641 82.3753 77.1089 83.3068 79.2249 83.8492C86.3984 85.642 94.4659 84.8118 102.296 84.0354C104.344 83.8301 106.439 83.6189 108.493 83.4617C119.653 82.5893 131.409 82.7892 145.5 84.114C158.011 85.2933 170.22 86.1931 182.333 84.3489C191.74 82.9135 204.967 79.0528 214.53 68.8423C224.72 57.993 227.759 40.8116 222.669 25.5411C221.019 37.404 212.554 48.7953 200.219 55.1305C189.142 60.7974 175.204 62.8681 157.616 61.4651C150.988 60.9216 144.195 59.6425 137.649 58.3816C130.004 56.9156 122.109 55.4073 114.463 55.1121C110.711 54.9435 106.976 55.1142 103.277 55.5732Z" fill="#015CA5"/>
<path d="M114.225 81.7012C113.912 81.74 113.585 81.6586 113.315 81.4482C112.799 81.0245 112.707 80.2798 113.128 79.7399C115.466 76.7669 116.574 72.9222 116.182 69.1662C115.765 65.4131 113.865 61.8929 110.934 59.5005C110.418 59.0767 110.346 58.3051 110.77 57.7892C111.194 57.2732 111.966 57.2018 112.482 57.6256C115.901 60.4207 118.119 64.5357 118.614 68.9132C119.084 73.2937 117.789 77.7958 115.072 81.2547C114.81 81.5067 114.513 81.6655 114.225 81.7012Z" fill="#015CA5"/>
<path d="M166.263 61.1731C165.951 61.2118 165.599 61.1335 165.35 60.8961C164.834 60.4723 164.763 59.7007 165.187 59.1847C169.473 54.019 174.917 51.9044 180.711 49.6491C183.038 48.7506 185.456 47.7922 187.871 46.6145C189.456 45.8324 191.057 45.1704 192.613 44.5384C199.109 41.8544 205.254 39.2873 210.277 28.2741C212.025 24.472 212.371 19.795 211.277 15.4919C210.185 11.2129 207.786 7.80328 204.674 6.11624C204.152 5.83956 203.907 5.2359 204.105 4.67468C204.28 4.11645 204.848 3.77774 205.418 3.85331C213.631 4.98062 220.134 11.0028 223.293 20.3423C223.517 20.973 223.162 21.6511 222.532 21.8757C221.901 22.1003 221.223 21.7454 220.998 21.1148C218.873 14.7934 215.079 10.1666 210.251 7.81453C214.521 13.3333 215.693 22.1877 212.474 29.2698C207.047 41.1622 200.182 44.014 193.523 46.7668C192.016 47.3929 190.463 48.0489 188.919 48.777C186.435 49.9876 183.97 50.952 181.597 51.8805C175.873 54.1029 170.942 56.0317 167.059 60.7085C166.824 60.9815 166.551 61.1373 166.263 61.1731Z" fill="#015CA5"/>
<path d="M206.306 85.3249C202.679 85.7749 198.84 85.1049 195.182 83.3393C194.585 83.0475 194.324 82.3238 194.616 81.7266C194.908 81.1295 195.632 80.8689 196.229 81.1607C199.782 82.8661 203.486 83.431 206.942 82.7827C212.971 81.6444 219.882 75.2261 224.078 66.779C227.554 59.8112 232.14 45.6574 223.818 28.9099C223.524 28.3122 223.774 27.5739 224.372 27.2803C224.97 26.9866 225.708 27.2365 226.002 27.8342C229.451 34.7962 231.107 42.0539 230.899 49.4209C230.71 55.7612 229.11 62.1303 226.262 67.8738C221.651 77.1041 214.251 83.9001 207.411 85.1878C207 85.2144 206.642 85.2832 206.306 85.3249Z" fill="#015CA5"/>
<path d="M152.65 43.8378C151.761 43.948 150.894 44.0313 150.044 44.0635C140.167 44.4598 130.201 39.8184 123.403 31.6134C123.088 31.2378 123.022 30.7094 123.263 30.2893C123.476 29.8482 123.957 29.5934 124.425 29.6329C146.132 31.403 158.284 25.554 170.021 19.9027C174.256 17.8651 178.65 15.7346 183.347 14.0788C190.053 11.7102 202.626 8.27229 211.635 11.691C212.25 11.9317 212.58 12.6225 212.342 13.2617C212.102 13.8769 211.411 14.2065 210.772 13.9688C202.504 10.824 190.549 14.1364 184.146 16.3941C179.591 18.0081 175.446 19.9857 171.076 22.1132C159.594 27.6597 147.742 33.3739 127.242 32.2833C133.432 38.5394 141.739 41.9965 149.941 41.6617C155.862 41.415 162.742 39.0736 169.994 36.5885C183.307 32.0345 197.088 27.3247 208.33 34.1979C208.909 34.5407 209.077 35.3004 208.731 35.8554C208.385 36.4105 207.629 36.6019 207.074 36.2562C196.782 29.9723 183.562 34.4904 170.763 38.8588C164.352 41.0445 158.247 43.1434 152.65 43.8378Z" fill="#015CA5"/>
<path d="M151.745 50.1206C149.079 50.4513 146.386 50.5659 143.651 50.3443C129.341 49.2174 116.307 38.3228 112.678 24.4076C112.579 24.0052 112.694 23.552 112.976 23.2731C113.28 22.9671 113.703 22.8414 114.105 22.9378C123.59 25.078 133.632 25.0272 143.085 22.7813C149.295 21.3279 155.638 18.1995 162.351 14.9033C174.602 8.87124 188.511 2.04813 205.321 3.8648C205.988 3.92846 206.477 4.52633 206.389 5.19572C206.325 5.86213 205.727 6.35092 205.058 6.26325C188.941 4.53127 175.377 11.1896 163.4 17.0658C156.573 20.4249 150.112 23.5922 143.62 25.1294C134.45 27.2915 124.792 27.4899 115.547 25.7101C119.574 37.7223 131.156 46.9435 143.816 47.9338C152.806 48.6475 161.743 45.5875 170.401 42.6353C171.08 42.4048 171.735 42.1772 172.413 41.9467C181.705 38.7939 193.581 35.6376 203.055 39.2668C203.671 39.5075 204 40.1983 203.762 40.8375C203.525 41.4768 202.831 41.7824 202.192 41.5446C193.435 38.1922 182.105 41.232 173.189 44.265C172.51 44.4955 171.855 44.7231 171.177 44.9537C164.879 47.0764 158.399 49.2951 151.745 50.1206Z" fill="#015CA5"/>
<path d="M211.474 79.7812C211.426 79.7872 211.402 79.7902 211.354 79.7961C209.286 79.6381 207.22 79.309 205.203 78.7788C204.876 78.6974 204.687 78.355 204.769 78.0278C204.85 77.7007 205.193 77.5119 205.52 77.5932C207.462 78.1084 209.455 78.4464 211.448 78.5894C211.793 78.6197 212.024 78.9081 212.015 79.2263C211.976 79.4995 211.762 79.7455 211.474 79.7812Z" fill="#015CA5"/>
<path d="M214.392 75.9801C212.855 76.1709 211.306 76.0704 209.793 75.6727C209.466 75.5914 209.277 75.249 209.362 74.9458C209.443 74.6187 209.785 74.4298 210.088 74.5142C211.751 74.942 213.489 74.9946 215.174 74.6149C215.507 74.5492 215.825 74.7536 215.891 75.0869C215.957 75.4202 215.752 75.7382 215.419 75.804C215.086 75.8697 214.728 75.9384 214.392 75.9801Z" fill="#015CA5"/>
<path d="M219.33 71.1733C219.306 71.1762 219.258 71.1822 219.234 71.1852L215.035 70.9502C214.692 70.9439 214.437 70.6584 214.468 70.3132C214.498 69.968 214.759 69.7161 215.105 69.7464L219.304 69.9814C219.647 69.9877 219.902 70.2732 219.871 70.6184C219.835 70.9155 219.595 71.1405 219.33 71.1733Z" fill="#015CA5"/>
<path d="M221.803 66.1349C220.794 66.26 219.767 66.2411 218.749 66.099C218.425 66.0417 218.194 65.7533 218.249 65.4051C218.303 65.0569 218.595 64.85 218.943 64.9044C220.233 65.0857 221.593 65.0389 222.87 64.7098C223.2 64.6201 223.518 64.8245 223.608 65.1548C223.698 65.4851 223.493 65.8032 223.163 65.8929C222.712 65.9976 222.259 66.0782 221.803 66.1349Z" fill="#015CA5"/>
<path d="M225.201 60.4923C225.177 60.4952 225.177 60.4952 225.201 60.4923L222.219 60.8378C221.883 60.8795 221.586 60.6481 221.544 60.3118C221.503 59.9755 221.734 59.6785 222.07 59.6368L225.052 59.2913C225.388 59.2496 225.685 59.481 225.727 59.8173C225.744 60.1565 225.513 60.4535 225.201 60.4923Z" fill="#015CA5"/>
<path d="M226.685 55.7484L226.661 55.7514L224.367 55.9384C224.028 55.9561 223.755 55.7217 223.713 55.3854C223.695 55.0462 223.93 54.7732 224.266 54.7315L226.56 54.5444C226.899 54.5267 227.172 54.7612 227.214 55.0974C227.232 55.4367 226.997 55.7097 226.685 55.7484Z" fill="#015CA5"/>
<path d="M179.335 59.989C179.215 60.0039 179.092 59.9948 178.987 59.9347C178.699 59.7753 178.582 59.4239 178.714 59.1148C179.677 57.2394 180.795 55.4421 182.049 53.7501C182.259 53.4801 182.619 53.4354 182.886 53.6218C183.156 53.8321 183.201 54.1924 183.015 54.4595C181.803 56.0975 180.727 57.8408 179.782 59.6652C179.707 59.8452 179.527 59.9652 179.335 59.989Z" fill="#015CA5"/>
<path d="M186.242 58.6692C186.17 58.6782 186.095 58.6631 185.996 58.651C185.669 58.5696 185.48 58.2272 185.586 57.8971C186.158 55.8261 187.039 53.8876 188.206 52.0844C188.389 51.7933 188.771 51.7216 189.038 51.908C189.329 52.0914 189.4 52.4727 189.214 52.7397C188.108 54.4379 187.286 56.2715 186.723 58.2194C186.681 58.4685 186.483 58.6394 186.242 58.6692Z" fill="#015CA5"/>
<path d="M192.558 57.0798C192.462 57.0917 192.363 57.0796 192.261 57.0435C191.952 56.9111 191.811 56.5628 191.92 56.2566C192.855 53.9699 193.608 51.5839 194.19 49.1947C194.271 48.8675 194.589 48.6817 194.914 48.739C195.241 48.8204 195.427 49.1388 195.369 49.463C194.773 51.9272 193.975 54.3432 193.024 56.705C192.952 56.909 192.774 57.053 192.558 57.0798Z" fill="#015CA5"/>
<path d="M199.542 53.9969C199.47 54.0058 199.371 53.9937 199.296 53.9786C198.966 53.8732 198.801 53.5278 198.909 53.2217L201.342 45.5055C201.447 45.1753 201.793 45.0105 202.099 45.1189C202.429 45.2243 202.594 45.5697 202.485 45.8758L200.053 53.592C199.98 53.7961 199.782 53.967 199.542 53.9969Z" fill="#015CA5"/>
<path d="M206.925 49.6164C206.853 49.6253 206.778 49.6102 206.703 49.5951C206.376 49.5138 206.187 49.1714 206.269 48.8442C206.943 46.4191 207.216 43.8976 207.146 41.3697C207.128 41.0305 207.387 40.7545 207.726 40.7368C208.065 40.7191 208.341 40.9775 208.359 41.3168C208.444 43.9647 208.135 46.5883 207.451 49.1365C207.364 49.4156 207.166 49.5866 206.925 49.6164Z" fill="#015CA5"/>
<path d="M213.091 43.29C213.043 43.296 212.971 43.3049 212.92 43.2869C212.596 43.2296 212.362 42.9171 212.42 42.5929C212.818 40.1045 212.871 37.5858 212.586 35.0848C212.544 34.7485 212.775 34.4515 213.112 34.4098C213.448 34.368 213.745 34.5995 213.787 34.9358C214.084 37.5329 214.022 40.1747 213.614 42.7861C213.575 43.0593 213.356 43.2573 213.091 43.29Z" fill="#015CA5"/>
<path d="M218.283 35.7916C218.259 35.7946 218.235 35.7976 218.21 35.8006C217.868 35.7943 217.616 35.5328 217.599 35.1936C217.583 32.5127 217.18 29.8554 216.375 27.2969C216.285 26.9666 216.463 26.6275 216.769 26.5407C217.096 26.4269 217.438 26.6284 217.525 26.9347C218.369 29.6103 218.787 32.3877 218.793 35.1917C218.808 35.5069 218.595 35.7529 218.283 35.7916Z" fill="#015CA5"/>
<path d="M220.936 25.7307C220.648 25.7664 220.357 25.5831 220.273 25.3008C219.687 23.3248 218.671 21.4266 217.33 19.8612C217.102 19.5968 217.154 19.2246 217.394 18.9997C217.658 18.7717 218.031 18.8231 218.256 19.0635C219.71 20.761 220.792 22.7975 221.447 24.9356C221.537 25.2659 221.36 25.605 221.03 25.6947C221.008 25.7217 220.96 25.7277 220.936 25.7307Z" fill="#015CA5"/>
<path d="M178.104 17.6319C177.912 17.6558 177.708 17.5835 177.567 17.4303C176.598 16.3066 175.281 15.5188 173.828 15.2113C173.504 15.154 173.291 14.8145 173.349 14.4903C173.406 14.1662 173.745 13.9533 174.069 14.0107C175.795 14.3575 177.35 15.2866 178.492 16.6326C178.72 16.897 178.669 17.2692 178.428 17.4941C178.317 17.5811 178.224 17.617 178.104 17.6319Z" fill="#015CA5"/>
<path d="M172.965 19.8557C172.797 19.8765 172.596 19.8283 172.458 19.6991C171.432 18.7044 170.193 17.9558 168.824 17.5403C168.494 17.4349 168.332 17.1135 168.413 16.7863C168.519 16.4562 168.84 16.2944 169.167 16.3757C170.713 16.8425 172.135 17.6904 173.299 18.8142C173.548 19.0516 173.548 19.4419 173.307 19.6669C173.226 19.7989 173.109 19.8378 172.965 19.8557Z" fill="#015CA5"/>
<path d="M166.923 22.4563C166.779 22.4742 166.629 22.444 166.494 22.3388L163.05 19.7418C162.78 19.5314 162.735 19.1711 162.921 18.9041C163.132 18.6341 163.492 18.5894 163.759 18.7758L167.203 21.3728C167.473 21.5832 167.518 21.9435 167.331 22.2105C167.25 22.3425 167.091 22.4354 166.923 22.4563Z" fill="#015CA5"/>
<path d="M161.096 25.8381C160.88 25.8649 160.649 25.7716 160.526 25.5674C159.713 24.3267 158.471 23.3589 157.07 22.8743C156.764 22.766 156.575 22.4235 156.683 22.1174C156.792 21.8113 157.134 21.6225 157.44 21.7308C159.097 22.3058 160.552 23.4179 161.517 24.9078C161.697 25.1782 161.622 25.5534 161.351 25.7332C161.261 25.7932 161.192 25.8262 161.096 25.8381Z" fill="#015CA5"/>
<path d="M154.254 28.6651C154.013 28.6949 153.779 28.5776 153.657 28.3733C152.913 27.0997 151.779 26.021 150.474 25.3293C150.186 25.1699 150.069 24.8185 150.202 24.5094C150.361 24.2214 150.712 24.1046 151.021 24.237C152.534 25.0249 153.857 26.251 154.699 27.7318C154.858 28.0292 154.755 28.3834 154.485 28.5632C154.398 28.6472 154.326 28.6561 154.254 28.6651Z" fill="#015CA5"/>
<path d="M147.509 29.9398C147.269 29.9696 147.035 29.8523 146.909 29.624C146.277 28.4586 145.35 27.476 144.237 26.7605C143.946 26.5771 143.874 26.1958 144.061 25.9287C144.244 25.6377 144.625 25.566 144.892 25.7524C146.189 26.5672 147.259 27.727 147.985 29.0516C148.143 29.3489 148.041 29.7031 147.744 29.8619C147.654 29.9219 147.582 29.9308 147.509 29.9398Z" fill="#015CA5"/>
<path d="M139.489 30.9595C139.225 30.9923 138.964 30.854 138.859 30.5987C138.392 29.5835 137.696 28.6943 136.784 28.027C136.514 27.8166 136.469 27.4563 136.656 27.1893C136.842 26.9222 137.226 26.8746 137.493 27.0609C138.543 27.8575 139.383 28.924 139.946 30.1224C140.081 30.4227 139.955 30.7798 139.654 30.9147C139.609 30.9446 139.537 30.9536 139.489 30.9595Z" fill="#015CA5"/>
<path d="M196.871 36.0115C196.751 36.0264 196.628 36.0173 196.523 35.9572C196.235 35.7978 196.118 35.4464 196.251 35.1373L197.842 32.0376C198.001 31.7495 198.352 31.6328 198.661 31.7651C198.949 31.9245 199.066 32.2759 198.934 32.585L197.343 35.6847C197.247 35.8918 197.063 35.9877 196.871 36.0115Z" fill="#015CA5"/>
<path d="M189.606 36.8364C189.486 36.8513 189.387 36.8392 189.282 36.779C188.973 36.6467 188.853 36.2713 188.988 35.9862L190.817 32.0521C190.95 31.743 191.325 31.6233 191.61 31.7586C191.919 31.891 192.039 32.2664 191.904 32.5514L190.075 36.4856C189.978 36.6926 189.798 36.8125 189.606 36.8364Z" fill="#015CA5"/>
<path d="M182.881 37.6712C182.761 37.6861 182.662 37.674 182.557 37.6138C182.248 37.4815 182.128 37.1061 182.263 36.821L183.96 33.196C184.092 32.8869 184.467 32.7672 184.752 32.9025C185.062 33.0349 185.181 33.4103 185.046 33.6954L183.349 37.3204C183.253 37.5274 183.073 37.6473 182.881 37.6712Z" fill="#015CA5"/>
<path d="M176.571 39.4809C176.451 39.4958 176.352 39.4837 176.247 39.4236C175.938 39.2912 175.818 38.9158 175.953 38.6308L177.782 34.6966C177.914 34.3876 178.29 34.2678 178.575 34.4032C178.884 34.5355 179.004 34.9109 178.868 35.196L177.04 39.1301C176.967 39.3342 176.787 39.4541 176.571 39.4809Z" fill="#015CA5"/>
<path d="M170.507 41.5244C170.411 41.5363 170.288 41.5272 170.183 41.467C169.874 41.3347 169.733 40.9863 169.889 40.6742L171.703 36.62C171.836 36.3109 172.208 36.1672 172.496 36.3265C172.805 36.4589 172.946 36.8073 172.79 37.1194L170.976 41.1736C170.903 41.3777 170.699 41.5006 170.507 41.5244Z" fill="#015CA5"/>
<path d="M164.187 43.8447C164.042 43.8625 163.868 43.8353 163.757 43.7272C163.487 43.5168 163.443 43.1565 163.629 42.8895C164.405 41.8664 164.913 40.6571 165.097 39.3903C165.155 39.0661 165.467 38.8323 165.791 38.8896C166.115 38.947 166.349 39.2594 166.292 39.5836C166.059 41.0514 165.476 42.4408 164.574 43.6258C164.49 43.7338 164.355 43.8238 164.187 43.8447Z" fill="#015CA5"/>
<path d="M157.599 45.4167C157.479 45.4316 157.356 45.4225 157.251 45.3623C156.963 45.2029 156.822 44.8546 156.979 44.5425L158.663 41.2117C158.822 40.9236 159.171 40.7828 159.483 40.9392C159.771 41.0986 159.912 41.447 159.755 41.7591L158.071 45.0899C157.972 45.2729 157.792 45.3928 157.599 45.4167Z" fill="#015CA5"/>
<path d="M150.071 46.2554C149.903 46.2762 149.702 46.228 149.588 46.0958C149.339 45.8584 149.343 45.4922 149.58 45.2432L152.585 42.1388C152.822 41.8898 153.189 41.8931 153.438 42.1305C153.687 42.3679 153.683 42.7342 153.446 42.9832L150.441 46.0876C150.33 46.1746 150.216 46.2375 150.071 46.2554Z" fill="#015CA5"/>
<path d="M142.385 46.2318C142.121 46.2646 141.86 46.1263 141.755 45.871C141.62 45.5707 141.77 45.2106 142.071 45.0757C143.692 44.3867 145.173 43.3494 146.379 42.0535C146.616 41.8046 146.979 41.7839 147.228 42.0213C147.477 42.2587 147.498 42.622 147.26 42.8709C145.947 44.2777 144.31 45.4321 142.55 46.187C142.505 46.217 142.457 46.2229 142.385 46.2318Z" fill="#015CA5"/>
<path d="M135.858 43.944C135.81 43.95 135.762 43.9559 135.714 43.9619C135.378 44.0036 135.078 43.7482 135.06 43.4089C135.018 43.0726 135.253 42.7996 135.589 42.7579C135.589 42.7579 135.589 42.7579 135.613 42.7549C136.457 42.6747 137.295 42.3512 137.962 41.8294C138.229 41.6255 138.601 41.6769 138.805 41.9443C139.009 42.2116 138.958 42.5839 138.69 42.7878C137.867 43.4265 136.891 43.8159 135.858 43.944Z" fill="#015CA5"/>
<path d="M128.693 39.0772C128.453 39.107 128.233 39.1097 127.99 39.1155C127.648 39.1092 127.372 38.8508 127.378 38.5085C127.385 38.1663 127.643 37.8903 127.985 37.8967C128.862 37.8854 129.733 37.6311 130.457 37.1754C130.751 36.9926 131.105 37.0949 131.285 37.3653C131.468 37.6597 131.366 38.0138 131.095 38.1937C130.374 38.6734 129.558 38.9699 128.693 39.0772Z" fill="#015CA5"/>
<path d="M131.594 31.0099C131.402 31.0338 131.222 30.9586 131.084 30.8293L128.7 28.3204C128.475 28.08 128.475 27.6897 128.715 27.4648C128.956 27.2399 129.346 27.2402 129.571 27.4806L131.955 29.9895C132.18 30.2299 132.18 30.6202 131.94 30.8451C131.831 30.9561 131.714 30.995 131.594 31.0099Z" fill="#015CA5"/>
<path d="M125.029 31.3622C124.908 31.3771 124.809 31.365 124.704 31.3049L119.864 29.0519C119.555 28.9195 119.435 28.5441 119.571 28.2591C119.703 27.95 120.078 27.8302 120.363 27.9656L125.204 30.2186C125.513 30.351 125.633 30.7263 125.497 31.0114C125.425 31.2155 125.221 31.3384 125.029 31.3622Z" fill="#015CA5"/>
<path d="M126.975 78.8984C125.678 79.0593 124.273 78.941 122.856 78.5314C120.479 77.8507 118.463 76.5399 116.501 75.2713C115.943 74.9015 115.778 74.1658 116.148 73.6077C116.518 73.0497 117.254 72.8853 117.812 73.255C119.615 74.4215 121.472 75.6301 123.498 76.2323C125.572 76.8287 127.643 76.6204 129.013 75.67C130.675 74.5127 131.625 72.1509 131.565 69.3048C131.557 68.6473 131.411 66.4947 130.124 65.9471C129.452 65.6403 128.503 65.8556 127.677 66.08C124.473 66.9897 121.433 68.6351 118.484 70.2205C117.889 70.5382 117.154 70.3123 116.839 69.7416C116.521 69.1469 116.747 68.4116 117.318 68.0969C120.382 66.4486 123.535 64.7402 126.998 63.7497C128.154 63.4355 129.676 63.1247 131.069 63.7324C132.848 64.5116 133.903 66.527 133.952 69.277C134.02 72.9757 132.718 76.0396 130.335 77.6766C129.44 78.3243 128.272 78.7375 126.975 78.8984Z" fill="#015CA5"/>
<path d="M119.986 71.5223C119.434 71.5909 118.879 71.6354 118.347 71.6769C118.008 71.6946 117.732 71.4362 117.717 71.1209C117.699 70.7817 117.934 70.5087 118.273 70.491C120.936 70.3314 123.57 69.7363 126.059 68.7689C126.363 68.6581 126.723 68.8086 126.833 69.1119C126.944 69.4152 126.794 69.7753 126.491 69.8861C124.394 70.6828 122.22 71.2452 119.986 71.5223Z" fill="#015CA5"/>
<path d="M125.306 74.3019C122.808 74.6118 120.221 74.2012 117.94 73.1183C117.631 72.9859 117.511 72.6105 117.647 72.3255C117.779 72.0164 118.154 71.8966 118.44 72.032C120.927 73.2111 123.767 73.4929 126.445 72.8679C126.779 72.8021 127.094 72.9826 127.184 73.3129C127.249 73.6462 127.069 73.9612 126.739 74.051C126.264 74.1586 125.787 74.2423 125.306 74.3019Z" fill="#015CA5"/>
<path d="M15.6497 90.6886C12.5992 91.0671 9.78734 89.8307 8.13546 87.3284C6.90628 85.4809 6.59022 83.13 7.26474 80.9C7.93926 78.6701 9.54105 76.8372 11.4872 76.0104C14.3163 74.8302 17.3631 75.2082 19.6071 76.9785C21.878 78.7699 22.9352 81.5899 22.4762 84.5735C22.0111 87.5092 19.6433 89.8517 16.4364 90.5422C16.2022 90.6201 15.9139 90.6558 15.6497 90.6886ZM14.1244 77.8051C13.572 77.8737 13.0044 78.0172 12.4248 78.2599C11.1274 78.8111 10.0635 80.065 9.57272 81.6136C9.10597 83.1593 9.30265 84.7446 10.1421 86.0063C11.6111 88.2142 14.0965 88.5887 15.9492 88.1881C18.1592 87.7188 19.7938 86.1502 20.1138 84.2081C20.44 82.1189 19.7062 80.1369 18.1373 78.8926C17.0003 77.9849 15.5896 77.6233 14.1244 77.8051Z" fill="#015CA5"/>
<path d="M16.8194 79.6643C16.0451 79.3213 15.0873 79.4646 14.5343 80.1185C13.9603 80.7995 14.1095 81.8053 14.6283 82.4482C15.12 83.0701 15.9032 83.4851 16.6988 83.4108C17.4945 83.3365 18.1646 82.6436 18.2163 81.8811C18.2893 80.8965 17.6506 80.0733 16.8194 79.6643C16.5343 79.5289 16.1379 79.6757 16.0295 79.9818C15.8971 80.2909 16.0379 80.6393 16.347 80.7716C16.374 80.7927 16.401 80.8137 16.4491 80.8078C16.344 80.7476 16.5511 80.8439 16.4491 80.8078C16.5271 80.8468 16.5811 80.8889 16.6381 80.955C16.6651 80.9761 16.6921 80.9971 16.7191 81.0181C16.7191 81.0181 16.7461 81.0392 16.749 81.0632C16.749 81.0632 16.6621 80.952 16.695 81.0211C16.752 81.0872 16.782 81.1323 16.839 81.1984C16.866 81.2194 16.869 81.2434 16.896 81.2645C16.8989 81.2885 16.9259 81.3095 16.9259 81.3095C16.9559 81.3546 16.89 81.2164 16.893 81.2405C16.9259 81.3095 16.9559 81.3546 16.9889 81.4237C16.9919 81.4477 17.0189 81.4687 17.0218 81.4928C17.0248 81.5168 17.0248 81.5168 17.0278 81.5408C17.0578 81.5859 16.9919 81.4477 17.0159 81.4447C17.0399 81.4417 17.0367 81.6129 17.0397 81.6369C17.0427 81.6609 17.0457 81.6849 17.0487 81.7089C17.0606 81.805 17.0518 81.5378 17.0427 81.6609C17.0246 81.7119 17.0336 81.784 17.0155 81.835C17.0034 81.9341 17.0546 81.757 17.0336 81.784C17.0125 81.811 17.0155 81.835 17.0185 81.859C16.9975 81.886 17.0004 81.91 16.9794 81.937L16.9584 81.964C16.9403 82.0151 17.0425 81.856 17.0004 81.91C16.9584 81.964 16.9403 82.0151 16.8952 82.045L16.8742 82.072C16.8321 82.126 16.9403 82.0151 16.9403 82.0151C16.9193 82.0421 16.8742 82.072 16.8532 82.099C16.8321 82.126 16.8081 82.129 16.7871 82.156C16.6969 82.216 16.9012 82.0931 16.8321 82.126L16.6459 82.1979C16.6459 82.1979 16.79 82.18 16.739 82.162C16.715 82.165 16.715 82.165 16.691 82.1679C16.667 82.1709 16.6189 82.1769 16.5949 82.1799C16.5709 82.1828 16.5469 82.1858 16.5228 82.1888C16.4508 82.1977 16.6189 82.1769 16.6219 82.2009C16.6219 82.2009 16.5739 82.2069 16.5498 82.2098C16.5018 82.2158 16.4268 82.2007 16.3758 82.1827C16.3517 82.1856 16.3007 82.1676 16.2767 82.1706C16.2767 82.1706 16.4057 82.2277 16.3517 82.1856C16.3277 82.1886 16.3247 82.1646 16.3007 82.1676C16.2497 82.1495 16.1747 82.1344 16.1207 82.0924C16.0937 82.0713 16.0696 82.0743 16.0426 82.0533C16.0186 82.0562 16.0156 82.0322 15.9916 82.0352C15.9376 81.9931 16.1236 82.1164 16.0426 82.0533C15.9346 81.9691 15.8296 81.909 15.7186 81.8008C15.6376 81.7377 15.8296 81.909 15.7186 81.8008C15.6916 81.7797 15.6887 81.7557 15.6617 81.7347C15.6047 81.6686 15.5747 81.6235 15.5417 81.5544C15.5388 81.5304 15.5388 81.5304 15.5118 81.5094C15.5118 81.5094 15.5777 81.6476 15.5447 81.5785C15.5417 81.5545 15.5147 81.5334 15.5088 81.4854C15.4758 81.4163 15.4669 81.3442 15.4369 81.2992C15.4039 81.2301 15.4728 81.3923 15.4488 81.3952C15.4458 81.3712 15.4429 81.3472 15.4429 81.3472C15.4399 81.3232 15.4369 81.2992 15.4309 81.2511C15.4279 81.2271 15.425 81.2031 15.419 81.155C15.416 81.131 15.413 81.107 15.413 81.107C15.413 81.107 15.4069 81.2541 15.422 81.1791C15.4371 81.104 15.4311 81.056 15.4492 81.005C15.4613 80.9059 15.392 81.134 15.4522 81.029C15.4732 81.002 15.4702 80.978 15.4883 80.927L15.5093 80.8999C15.5514 80.8459 15.4281 81.032 15.4913 80.951C15.5123 80.924 15.5333 80.897 15.5544 80.87L15.5754 80.843C15.6175 80.789 15.5333 80.897 15.5333 80.897C15.5544 80.87 15.5994 80.84 15.6205 80.813C15.6415 80.786 15.6655 80.783 15.7106 80.753C15.7556 80.723 15.6205 80.813 15.6415 80.786C15.6415 80.786 15.6866 80.756 15.7106 80.753C15.7346 80.75 15.7797 80.7201 15.8037 80.7171C15.8277 80.7141 15.8277 80.7141 15.8517 80.7111C15.9448 80.6752 15.8037 80.7171 15.8037 80.7171C15.8488 80.6871 15.9478 80.6992 16.0199 80.6903C16.0439 80.6873 16.116 80.6783 16.14 80.6754C16.164 80.6724 15.9929 80.6692 16.0439 80.6873C16.0679 80.6843 16.0919 80.6813 16.0919 80.6813C16.167 80.6964 16.242 80.7115 16.317 80.7266C16.317 80.7266 16.188 80.6694 16.242 80.7115C16.269 80.7325 16.293 80.7295 16.317 80.7266C16.3681 80.7446 16.3951 80.7657 16.4221 80.7867C16.7071 80.9221 17.1036 80.7753 17.2119 80.4692C17.2452 80.148 17.1285 79.7967 16.8194 79.6643Z" fill="#015CA5"/>
<path d="M46.4166 81.552C41.949 82.1063 37.7957 80.2802 35.3943 76.6515C33.5955 73.9479 33.1453 70.5161 34.13 67.2477C35.1357 63.9522 37.4378 61.2765 40.315 60.0902C44.4655 58.3558 48.9231 58.9003 52.2471 61.5122C55.5711 64.1241 57.1373 68.2955 56.4339 72.6509C55.7455 76.9313 52.2899 80.3355 47.5876 81.358C47.2063 81.4297 46.825 81.5014 46.4166 81.552ZM44.0092 61.5587C43.0965 61.6719 42.1506 61.9112 41.2466 62.2917C39.0422 63.1993 37.233 65.3261 36.4561 67.9103C35.6791 70.4944 36.0129 73.1846 37.419 75.2784C39.8804 78.9972 44.0287 79.6045 47.1185 78.9528C50.8239 78.1517 53.5672 75.4943 54.0896 72.2345C54.6332 68.7525 53.4173 65.44 50.7954 63.3752C48.8543 61.8843 46.4592 61.2547 44.0092 61.5587Z" fill="#015CA5"/>
<path d="M48.17 65.4075C47.1347 64.9262 45.7926 65.1172 45.0262 66.0171C44.2388 66.944 44.4597 68.3312 45.1794 69.2175C45.8451 70.0617 46.9703 70.6782 48.0782 70.5651C49.1621 70.455 50.0726 69.5372 50.1336 68.4565C50.2369 67.1266 49.3403 65.994 48.17 65.4075C47.8849 65.2722 47.4885 65.4189 47.3802 65.725C47.2478 66.0341 47.3886 66.3825 47.6977 66.5149C47.7487 66.5329 47.8027 66.575 47.8537 66.5931C47.8807 66.6141 47.9587 66.6532 47.8537 66.5931C47.8807 66.6141 47.9047 66.6111 47.9317 66.6322C48.0367 66.6923 48.1447 66.7765 48.2257 66.8396C48.2557 66.8847 48.3067 66.9027 48.3367 66.9478C48.3637 66.9688 48.3667 66.9928 48.3907 66.9899C48.3907 66.9899 48.3337 66.9238 48.3637 66.9688C48.4477 67.056 48.5076 67.1461 48.5916 67.2332C48.6216 67.2783 48.6486 67.2993 48.6786 67.3444C48.7086 67.3894 48.7715 67.5036 48.7086 67.3894C48.7445 67.4825 48.8045 67.5726 48.8404 67.6657C48.8464 67.7138 48.8763 67.7588 48.8793 67.7829C48.9123 67.8519 48.9182 67.9 48.8793 67.7829C48.8912 67.8789 48.9272 67.972 48.9391 68.0681C48.9451 68.1162 48.948 68.1402 48.954 68.1882C48.9659 68.2843 48.9631 68.0651 48.957 68.2122C48.9449 68.3113 48.9328 68.4104 48.9177 68.4854C48.9207 68.5094 48.8997 68.5364 48.8997 68.5364C48.8997 68.5364 48.9328 68.4104 48.9177 68.4854C48.8967 68.5124 48.9026 68.5604 48.8816 68.5874C48.8635 68.6385 48.8425 68.6655 48.8244 68.7165C48.8274 68.7405 48.8034 68.7435 48.8064 68.7675C48.7913 68.8425 48.8695 68.6865 48.8274 68.7405C48.7643 68.8215 48.7252 68.8995 48.6591 68.9565C48.617 69.0105 48.572 69.0405 48.6621 68.9805C48.617 69.0105 48.5749 69.0645 48.5299 69.0945C48.4848 69.1245 48.4638 69.1515 48.4187 69.1814C48.3286 69.2414 48.5118 69.1455 48.3947 69.1844C48.3707 69.1874 48.1424 69.3133 48.1154 69.2922C48.1154 69.2922 48.2355 69.2773 48.1635 69.2863C48.1394 69.2893 48.1154 69.2922 48.0914 69.2952C48.0433 69.3012 47.9953 69.3071 47.9473 69.3131C47.8992 69.3191 47.8512 69.325 47.8272 69.328C47.7551 69.3369 47.8752 69.322 47.8752 69.322C47.8512 69.325 47.8032 69.331 47.7762 69.3099C47.6771 69.2978 47.602 69.2828 47.503 69.2707C47.452 69.2526 47.401 69.2345 47.3529 69.2405C47.479 69.2736 47.3529 69.2405 47.3019 69.2224C47.1999 69.1863 47.1219 69.1472 47.0198 69.1111C46.9688 69.093 46.9418 69.072 46.8908 69.0539C46.8638 69.0329 46.8397 69.0359 46.8368 69.0119C46.7587 68.9728 46.9178 69.075 46.8368 69.0119C46.6507 68.8886 46.4888 68.7624 46.3508 68.6332C46.2698 68.57 46.4077 68.6993 46.2968 68.5911C46.2668 68.546 46.2398 68.525 46.2098 68.4799C46.1499 68.3898 46.0659 68.3027 46.0059 68.2125C46.0029 68.1885 45.9759 68.1675 45.9729 68.1435C45.9729 68.1435 46.0329 68.2336 45.9999 68.1645C45.97 68.1194 45.964 68.0714 45.937 68.0504C45.9011 67.9573 45.8621 67.8401 45.8262 67.747C45.7932 67.678 45.8322 67.7951 45.8322 67.7951C45.8292 67.7711 45.8232 67.723 45.8202 67.699C45.8143 67.651 45.8083 67.6029 45.8024 67.5549C45.7964 67.5068 45.7904 67.4588 45.7845 67.4108C45.7815 67.3868 45.7755 67.3387 45.7726 67.3147C45.7785 67.3627 45.7605 67.4137 45.7755 67.3387C45.7876 67.2397 45.7997 67.1406 45.8118 67.0415C45.8239 66.9425 45.8118 67.0415 45.8148 67.0656C45.8118 67.0415 45.8329 67.0145 45.8299 66.9905C45.848 66.9395 45.866 66.8885 45.8841 66.8375C45.9051 66.8105 45.9021 66.7864 45.9262 66.7835C45.863 66.8645 45.9442 66.7324 45.9262 66.7835C45.9712 66.7535 45.9893 66.7025 46.0073 66.6514C46.0494 66.5974 46.1155 66.5405 46.0284 66.6244C46.0734 66.5945 46.1155 66.5405 46.1606 66.5105C46.2056 66.4805 46.2507 66.4505 46.2957 66.4205C46.3408 66.3906 46.2507 66.4505 46.2507 66.4505C46.2747 66.4475 46.3198 66.4176 46.3408 66.3906C46.3859 66.3606 46.4339 66.3546 46.479 66.3246C46.524 66.2947 46.6682 66.2768 46.5481 66.2917C46.6441 66.2798 46.7612 66.2408 46.8573 66.2289C46.9294 66.22 46.9774 66.214 47.0525 66.2291C46.9324 66.244 47.0525 66.2291 47.1035 66.2472C47.2266 66.2563 47.3286 66.2924 47.4517 66.3015C47.3256 66.2684 47.4787 66.3226 47.5297 66.3406C47.5807 66.3587 47.6587 66.3978 47.7098 66.4158C47.9948 66.5512 48.3913 66.4044 48.4996 66.0983C48.5959 65.8913 48.4821 65.5639 48.17 65.4075Z" fill="#015CA5"/>
</g>
</svg>
