<svg width="22" height="27" viewBox="0 0 22 27" fill="none" xmlns="http://www.w3.org/2000/svg">
<path d="M18.3214 0H6.85414C5.73171 0 4.70089 0.621964 4.22646 1.58529C3.66429 2.727 2.727 3.66525 1.58529 4.22646C0.621964 4.70089 0 5.73171 0 6.85414V24.1071C0 25.7021 1.29793 27 2.89286 27H18.3214C19.9164 27 21.2143 25.7021 21.2143 24.1071V2.89286C21.2143 1.29793 19.9164 0 18.3214 0ZM6.85414 1.92857H18.3214C18.8528 1.92857 19.2857 2.36154 19.2857 2.89286H5.6835C5.77318 2.73954 5.87829 2.59682 5.95736 2.43675C6.10875 2.12818 6.46071 1.92857 6.85414 1.92857ZM2.43579 5.95736C3.04136 5.65939 3.58714 5.26307 4.09243 4.82143H19.2848V22.1786H1.92857V6.85414C1.92857 6.46071 2.12721 6.10875 2.43579 5.95736ZM18.3214 25.0714H2.89286C2.36154 25.0714 1.92857 24.6385 1.92857 24.1071H19.2857C19.2857 24.6385 18.8528 25.0714 18.3214 25.0714ZM9.02957 13.8944H9.64286V13.9523C9.64286 15.7555 10.3449 17.4497 11.6196 18.7255L11.854 18.9598C12.042 19.1478 12.2889 19.2423 12.5357 19.2423C12.7826 19.2423 13.0294 19.1478 13.2175 18.9598C13.5945 18.5828 13.5945 17.9733 13.2175 17.5963L12.9831 17.362C12.0729 16.4517 11.5714 15.2405 11.5714 13.9523V13.8944H12.1847C14.4566 13.8944 16.3051 12.0459 16.3051 9.774V8.72196C16.3051 8.18968 15.8731 7.75768 15.3408 7.75768H14.2888C12.6698 7.75768 11.2802 8.70461 10.6071 10.0662C9.93407 8.70461 8.54357 7.75768 6.9255 7.75768H5.87346C5.34118 7.75768 4.90918 8.18968 4.90918 8.72196V9.774C4.90918 12.0459 6.75772 13.8944 9.02957 13.8944ZM12.0979 11.8781C12.0979 10.6698 13.0815 9.68625 14.2898 9.68625H14.3775V9.774C14.3775 10.9823 13.3939 11.9658 12.1857 11.9658H12.0979V11.8781ZM6.83775 9.68625H6.9255C8.13375 9.68625 9.11732 10.6698 9.11732 11.8781V11.9658H9.02957C7.82132 11.9658 6.83775 10.9823 6.83775 9.774V9.68625Z" fill="white"/>
</svg>
