<svg width="23" height="23" viewBox="0 0 23 23" fill="none" xmlns="http://www.w3.org/2000/svg">
<path d="M2.5 22.5C1.8125 22.5 1.22396 22.2552 0.734375 21.7656C0.244792 21.276 0 20.6875 0 20V2.5C0 1.8125 0.244792 1.22396 0.734375 0.734375C1.22396 0.244792 1.8125 0 2.5 0H20C20.6875 0 21.276 0.244792 21.7656 0.734375C22.2552 1.22396 22.5 1.8125 22.5 2.5V20C22.5 20.6875 22.2552 21.276 21.7656 21.7656C21.276 22.2552 20.6875 22.5 20 22.5H2.5ZM8.0625 11.5938L11.25 10L14.4375 11.5938C14.8542 11.8021 15.2604 11.7865 15.6562 11.5469C16.0521 11.3073 16.25 10.9479 16.25 10.4687V2.5H6.25V10.4687C6.25 10.9479 6.44792 11.3073 6.84375 11.5469C7.23958 11.7865 7.64583 11.8021 8.0625 11.5938ZM6.25 17.5H10C10.3542 17.5 10.651 17.3802 10.8906 17.1406C11.1302 16.901 11.25 16.6042 11.25 16.25C11.25 15.8958 11.1302 15.599 10.8906 15.3594C10.651 15.1198 10.3542 15 10 15H6.25C5.89583 15 5.59896 15.1198 5.35937 15.3594C5.11979 15.599 5 15.8958 5 16.25C5 16.6042 5.11979 16.901 5.35937 17.1406C5.59896 17.3802 5.89583 17.5 6.25 17.5Z" fill="white"/>
</svg>
