<svg width="30" height="30" viewBox="0 0 30 30" fill="none" xmlns="http://www.w3.org/2000/svg">
<mask id="mask0_520_531" style="mask-type:alpha" maskUnits="userSpaceOnUse" x="0" y="0" width="30" height="30">
<rect width="30" height="30" fill="#D9D9D9"/>
</mask>
<g mask="url(#mask0_520_531)">
<path d="M15 21.25C15.3542 21.25 15.651 21.1302 15.8906 20.8906C16.1302 20.651 16.25 20.3542 16.25 20C16.25 19.6458 16.1302 19.349 15.8906 19.1094C15.651 18.8698 15.3542 18.75 15 18.75C14.6458 18.75 14.349 18.8698 14.1094 19.1094C13.8698 19.349 13.75 19.6458 13.75 20C13.75 20.3542 13.8698 20.651 14.1094 20.8906C14.349 21.1302 14.6458 21.25 15 21.25ZM15 16.25C15.3542 16.25 15.651 16.1302 15.8906 15.8906C16.1302 15.651 16.25 15.3542 16.25 15V10C16.25 9.64583 16.1302 9.34896 15.8906 9.10938C15.651 8.86979 15.3542 8.75 15 8.75C14.6458 8.75 14.349 8.86979 14.1094 9.10938C13.8698 9.34896 13.75 9.64583 13.75 10V15C13.75 15.3542 13.8698 15.651 14.1094 15.8906C14.349 16.1302 14.6458 16.25 15 16.25ZM10.8125 25H7.5C6.8125 25 6.22396 24.7552 5.73438 24.2656C5.24479 23.776 5 23.1875 5 22.5V19.1875L2.59375 16.75C2.36458 16.5 2.1875 16.224 2.0625 15.9219C1.9375 15.6198 1.875 15.3125 1.875 15C1.875 14.6875 1.9375 14.3802 2.0625 14.0781C2.1875 13.776 2.36458 13.5 2.59375 13.25L5 10.8125V7.5C5 6.8125 5.24479 6.22396 5.73438 5.73438C6.22396 5.24479 6.8125 5 7.5 5H10.8125L13.25 2.59375C13.5 2.36458 13.776 2.1875 14.0781 2.0625C14.3802 1.9375 14.6875 1.875 15 1.875C15.3125 1.875 15.6198 1.9375 15.9219 2.0625C16.224 2.1875 16.5 2.36458 16.75 2.59375L19.1875 5H22.5C23.1875 5 23.776 5.24479 24.2656 5.73438C24.7552 6.22396 25 6.8125 25 7.5V10.8125L27.4063 13.25C27.6354 13.5 27.8125 13.776 27.9375 14.0781C28.0625 14.3802 28.125 14.6875 28.125 15C28.125 15.3125 28.0625 15.6198 27.9375 15.9219C27.8125 16.224 27.6354 16.5 27.4063 16.75L25 19.1875V22.5C25 23.1875 24.7552 23.776 24.2656 24.2656C23.776 24.7552 23.1875 25 22.5 25H19.1875L16.75 27.4063C16.5 27.6354 16.224 27.8125 15.9219 27.9375C15.6198 28.0625 15.3125 28.125 15 28.125C14.6875 28.125 14.3802 28.0625 14.0781 27.9375C13.776 27.8125 13.5 27.6354 13.25 27.4063L10.8125 25Z" fill="white"/>
</g>
</svg>
