<svg width="30" height="30" viewBox="0 0 30 30" fill="none" xmlns="http://www.w3.org/2000/svg">
<mask id="mask0_520_511" style="mask-type:alpha" maskUnits="userSpaceOnUse" x="0" y="0" width="30" height="30">
<rect width="30" height="30" fill="#D9D9D9"/>
</mask>
<g mask="url(#mask0_520_511)">
<path d="M23.75 18.75C24 18.5 24.2969 18.375 24.6406 18.375C24.9844 18.375 25.2812 18.5 25.5312 18.75L27.5 20.75C27.75 21 27.875 21.2917 27.875 21.625C27.875 21.9583 27.75 22.25 27.5 22.5C27.25 22.75 26.9583 22.875 26.625 22.875C26.2917 22.875 26 22.75 25.75 22.5L23.75 20.5312C23.5 20.2812 23.375 19.9844 23.375 19.6406C23.375 19.2969 23.5 19 23.75 18.75ZM25 3.75C25.25 4 25.375 4.29688 25.375 4.64062C25.375 4.98438 25.25 5.28125 25 5.53125L23.0312 7.5C22.7812 7.75 22.4844 7.875 22.1406 7.875C21.7969 7.875 21.5 7.75 21.25 7.5C21 7.25 20.875 6.95313 20.875 6.60938C20.875 6.26562 21 5.96875 21.25 5.71875L23.25 3.75C23.5 3.5 23.7917 3.375 24.125 3.375C24.4583 3.375 24.75 3.5 25 3.75ZM5 3.75C5.25 3.5 5.54687 3.375 5.89062 3.375C6.23437 3.375 6.53125 3.5 6.78125 3.75L8.75 5.75C9 6 9.125 6.29167 9.125 6.625C9.125 6.95833 9 7.25 8.75 7.5C8.5 7.75 8.20312 7.875 7.85937 7.875C7.51562 7.875 7.21875 7.75 6.96875 7.5L5 5.53125C4.75 5.28125 4.625 4.98438 4.625 4.64062C4.625 4.29688 4.75 4 5 3.75ZM6.25 18.75C6.5 19 6.625 19.2969 6.625 19.6406C6.625 19.9844 6.5 20.2812 6.25 20.5312L4.28125 22.5C4.03125 22.75 3.73437 22.875 3.39062 22.875C3.04687 22.875 2.75 22.75 2.5 22.5C2.25 22.25 2.125 21.9531 2.125 21.6094C2.125 21.2656 2.25 20.9688 2.5 20.7188L4.5 18.75C4.75 18.5 5.04167 18.375 5.375 18.375C5.70833 18.375 6 18.5 6.25 18.75ZM15 21.5938L9.8125 24.7188C9.58333 24.8646 9.34375 24.9271 9.09375 24.9062C8.84375 24.8854 8.625 24.8021 8.4375 24.6562C8.25 24.5104 8.10417 24.3281 8 24.1094C7.89583 23.8906 7.875 23.6458 7.9375 23.375L9.3125 17.4688L4.71875 13.5C4.51042 13.3125 4.38021 13.099 4.32812 12.8594C4.27604 12.6198 4.29167 12.3854 4.375 12.1562C4.45833 11.9271 4.58333 11.7396 4.75 11.5938C4.91667 11.4479 5.14583 11.3542 5.4375 11.3125L11.5 10.7812L13.8437 5.21875C13.9479 4.96875 14.1094 4.78125 14.3281 4.65625C14.5469 4.53125 14.7708 4.46875 15 4.46875C15.2292 4.46875 15.4531 4.53125 15.6719 4.65625C15.8906 4.78125 16.0521 4.96875 16.1562 5.21875L18.5 10.7812L24.5625 11.3125C24.8542 11.3542 25.0833 11.4479 25.25 11.5938C25.4167 11.7396 25.5417 11.9271 25.625 12.1562C25.7083 12.3854 25.724 12.6198 25.6719 12.8594C25.6198 13.099 25.4896 13.3125 25.2812 13.5L20.6875 17.4688L22.0625 23.375C22.125 23.6458 22.1042 23.8906 22 24.1094C21.8958 24.3281 21.75 24.5104 21.5625 24.6562C21.375 24.8021 21.1562 24.8854 20.9062 24.9062C20.6562 24.9271 20.4167 24.8646 20.1875 24.7188L15 21.5938Z" fill="white"/>
</g>
</svg>
