<svg width="30" height="30" viewBox="0 0 30 30" fill="none" xmlns="http://www.w3.org/2000/svg">
<mask id="mask0_520_501" style="mask-type:alpha" maskUnits="userSpaceOnUse" x="0" y="0" width="30" height="30">
<rect width="30" height="30" fill="#D9D9D9"/>
</mask>
<g mask="url(#mask0_520_501)">
<path d="M8.74902 27.501C7.70736 27.501 6.82194 27.1364 6.09277 26.4072C5.36361 25.6781 4.99902 24.7926 4.99902 23.751C4.99902 22.9385 5.2334 22.2093 5.70215 21.5635C6.1709 20.9176 6.76986 20.4697 7.49902 20.2197V9.78223C6.76986 9.53223 6.1709 9.08431 5.70215 8.43848C5.2334 7.79264 4.99902 7.06348 4.99902 6.25098C4.99902 5.20931 5.36361 4.32389 6.09277 3.59473C6.82194 2.86556 7.70736 2.50098 8.74902 2.50098C9.79069 2.50098 10.6761 2.86556 11.4053 3.59473C12.1344 4.32389 12.499 5.20931 12.499 6.25098C12.499 7.06348 12.2646 7.79264 11.7959 8.43848C11.3271 9.08431 10.7282 9.53223 9.99902 9.78223V10.001C9.99902 11.0426 10.3636 11.9281 11.0928 12.6572C11.8219 13.3864 12.7074 13.751 13.749 13.751H16.249C17.9782 13.751 19.4521 14.3604 20.6709 15.5791C21.8896 16.7979 22.499 18.2718 22.499 20.001V20.2197C23.2282 20.4697 23.8271 20.9176 24.2959 21.5635C24.7646 22.2093 24.999 22.9385 24.999 23.751C24.999 24.7926 24.6344 25.6781 23.9053 26.4072C23.1761 27.1364 22.2907 27.501 21.249 27.501C20.2074 27.501 19.3219 27.1364 18.5928 26.4072C17.8636 25.6781 17.499 24.7926 17.499 23.751C17.499 22.9385 17.7334 22.2093 18.2021 21.5635C18.6709 20.9176 19.2699 20.4697 19.999 20.2197V20.001C19.999 18.9593 19.6344 18.0739 18.9053 17.3447C18.1761 16.6156 17.2907 16.251 16.249 16.251H13.749C13.0407 16.251 12.3688 16.1416 11.7334 15.9229C11.098 15.7041 10.5199 15.3968 9.99902 15.001V20.2197C10.7282 20.4697 11.3271 20.9176 11.7959 21.5635C12.2646 22.2093 12.499 22.9385 12.499 23.751C12.499 24.7926 12.1344 25.6781 11.4053 26.4072C10.6761 27.1364 9.79069 27.501 8.74902 27.501ZM8.74902 25.001C9.10319 25.001 9.40007 24.8812 9.63965 24.6416C9.87923 24.402 9.99902 24.1051 9.99902 23.751C9.99902 23.3968 9.87923 23.0999 9.63965 22.8603C9.40007 22.6208 9.10319 22.501 8.74902 22.501C8.39486 22.501 8.09798 22.6208 7.8584 22.8603C7.61882 23.0999 7.49902 23.3968 7.49902 23.751C7.49902 24.1051 7.61882 24.402 7.8584 24.6416C8.09798 24.8812 8.39486 25.001 8.74902 25.001ZM21.249 25.001C21.6032 25.001 21.9001 24.8812 22.1396 24.6416C22.3792 24.402 22.499 24.1051 22.499 23.751C22.499 23.3968 22.3792 23.0999 22.1396 22.8603C21.9001 22.6208 21.6032 22.501 21.249 22.501C20.8949 22.501 20.598 22.6208 20.3584 22.8603C20.1188 23.0999 19.999 23.3968 19.999 23.751C19.999 24.1051 20.1188 24.402 20.3584 24.6416C20.598 24.8812 20.8949 25.001 21.249 25.001ZM8.74902 7.50098C9.10319 7.50098 9.40007 7.38118 9.63965 7.1416C9.87923 6.90202 9.99902 6.60514 9.99902 6.25098C9.99902 5.89681 9.87923 5.59993 9.63965 5.36035C9.40007 5.12077 9.10319 5.00098 8.74902 5.00098C8.39486 5.00098 8.09798 5.12077 7.8584 5.36035C7.61882 5.59993 7.49902 5.89681 7.49902 6.25098C7.49902 6.60514 7.61882 6.90202 7.8584 7.1416C8.09798 7.38118 8.39486 7.50098 8.74902 7.50098Z" fill="white"/>
</g>
</svg>
