<svg width="120" height="120" viewBox="0 0 120 120" fill="none" xmlns="http://www.w3.org/2000/svg">
<circle cx="59.9997" cy="60.0007" r="56.6667" fill="#D1F24E"/>
<path d="M118.18 64.4049L120 61.2826L118.307 58.088L119.789 54.7865L117.763 51.7931L118.875 48.3519L116.538 45.5933L117.27 42.0545L114.648 39.5635L114.997 35.9617L112.118 33.7731L112.076 30.1562L108.977 28.2909L108.542 24.6998L105.264 23.1789L104.445 19.6573L101.018 18.5002L99.825 15.087L96.2931 14.3068L94.7353 11.0424L91.1429 10.6479L89.2386 7.57197H85.6254L83.4026 4.72066L79.8102 5.10669L77.2898 2.51322L73.7626 3.28776L70.9772 0.980374L67.5478 2.13283L64.5318 0.138338L61.2488 1.65597L58.0333 0L54.9362 1.86196L51.5624 0.563052L48.6838 2.74919L45.1867 1.82574L42.5593 4.31115L38.9834 3.76809L36.6443 6.52293L33.0286 6.3704L30.9989 9.3628L27.3924 9.60239L25.6974 12.797L22.1378 13.4239L20.7961 16.7835L17.3247 17.7916L16.3552 21.2758L13.0139 22.6562L12.428 26.2254L9.24945 27.958L9.05425 31.5655L6.08744 33.6333L6.28031 37.2454L3.553 39.6189L4.13658 43.188L1.6789 45.8442L2.64622 49.3305L0.490759 52.2333L1.82763 55.5952L0 58.7155L1.69295 61.9122L0.214171 65.2128L2.24395 68.2074L1.12792 71.6485L3.46453 74.4081L2.72978 77.9459L5.35948 80.437L5.00616 84.0363L7.88232 86.2259L7.92881 89.8441L11.0236 91.7094L11.4607 95.2993L14.7368 96.8193L15.5623 100.344L18.987 101.499L20.1823 104.914L23.7074 105.691L25.2697 108.958L28.8644 109.35L30.7663 112.427L34.3795 112.428L36.5976 115.28L40.1992 114.893L42.7128 117.488L46.2447 116.714L49.0255 119.021L52.4527 117.868L55.4731 119.861L58.7562 118.344L61.967 120L65.0686 118.139L68.4424 119.438L71.321 117.249L74.8133 118.175L77.4455 115.688L81.0169 116.231L83.3583 113.478L86.9717 113.629L89.0038 110.637L92.6122 110.398L94.3072 107.203L97.8693 106.576L99.2038 103.216L102.675 102.207L103.647 98.7229L106.991 97.3438L107.577 93.7749L110.751 92.0418L110.95 88.4322L113.92 86.3667L113.724 82.7535L116.449 80.3811L115.866 76.8097L118.321 74.1548L117.359 70.6695L119.512 67.7644L118.18 64.4049ZM59.9999 115.668C29.2687 115.668 4.3548 90.7435 4.3548 59.9999C4.3548 29.2575 29.2687 4.33477 59.9999 4.33477C90.7335 4.33477 115.645 29.2577 115.645 59.9999C115.645 90.7433 90.7337 115.668 59.9999 115.668Z" fill="#094200"/>
<path d="M60.0005 113.296C30.6226 113.296 6.72266 89.3879 6.72266 60.0006C6.72266 30.6145 30.6226 6.70703 60.0005 6.70703C89.3799 6.70703 113.282 30.6146 113.282 60.0006C113.282 89.3878 89.3799 113.296 60.0005 113.296ZM60.0005 8.66879C31.7045 8.66879 8.68378 31.6963 8.68378 60.0006C8.68378 88.3062 31.7043 111.335 60.0005 111.335C88.2991 111.335 111.321 88.3062 111.321 60.0006C111.321 31.6963 88.2989 8.66879 60.0005 8.66879Z" fill="#094200"/>
<path d="M19.1374 40.377L24.7649 42.8806L23.9213 44.7786L19.725 42.9112L19.2955 43.8768L17.8643 43.2396L19.1374 40.377Z" fill="#094200"/>
<path d="M26.4106 39.3736C25.9657 39.5804 25.4759 39.6493 24.9409 39.5777C24.4069 39.5072 23.8617 39.286 23.3046 38.915C22.7484 38.5441 22.3351 38.1254 22.0637 37.6584C21.7932 37.1923 21.6681 36.7141 21.6887 36.2232C21.7091 35.7324 21.8707 35.2602 22.1727 34.806C22.4753 34.3526 22.8496 34.0216 23.2943 33.814C23.7392 33.6064 24.2291 33.5383 24.764 33.609C25.298 33.6804 25.8432 33.9008 26.4003 34.2726C26.9565 34.6436 27.3698 35.0621 27.6412 35.5283C27.9117 35.9946 28.0366 36.4735 28.0162 36.9644C27.9958 37.4545 27.8342 37.9274 27.5323 38.381C27.2296 38.8351 26.8554 39.1661 26.4106 39.3736ZM25.2429 36.0081C24.3788 35.4313 23.8175 35.3386 23.5573 35.7291C23.2962 36.1205 23.5981 36.6037 24.4622 37.1795C25.3263 37.7555 25.8875 37.8491 26.1478 37.4577C26.4088 37.0673 26.1069 36.584 25.2429 36.0081Z" fill="#094200"/>
<path d="M31.1716 33.1224C30.6945 33.2381 30.2013 33.2083 29.691 33.033C29.1807 32.8579 28.6899 32.5337 28.218 32.0597C27.745 31.5859 27.4227 31.0943 27.2492 30.5837C27.0756 30.0723 27.0477 29.579 27.1641 29.1017C27.2807 28.6254 27.5323 28.1939 27.9184 27.8086C28.3053 27.4231 28.7366 27.1731 29.2146 27.0574C29.6917 26.9416 30.1849 26.9713 30.6952 27.1466C31.2047 27.3219 31.6961 27.6459 32.1682 28.1199C32.6403 28.593 32.9633 29.0855 33.1368 29.5959C33.3103 30.1064 33.3384 30.6006 33.222 31.0779C33.1045 31.5544 32.8529 31.9857 32.4668 32.371C32.0807 32.7565 31.6488 33.0067 31.1716 33.1224ZM30.691 29.5926C29.9578 28.8567 29.4255 28.6551 29.0929 28.9868C28.7604 29.3178 28.9611 29.8512 29.6943 30.587C30.4275 31.3221 30.9598 31.5245 31.2923 31.1928C31.6249 30.8618 31.4242 30.3285 30.691 29.5926Z" fill="#094200"/>
<path d="M34.5537 25.88C34.1328 25.7838 33.7808 25.5099 33.4966 25.0581C33.3061 24.7552 33.2015 24.4567 33.1837 24.1632C33.1659 23.8697 33.2262 23.5991 33.3657 23.3525C33.5043 23.1058 33.7059 22.8991 33.9687 22.7341C34.2324 22.5681 34.5054 22.4764 34.7886 22.4576C35.071 22.4397 35.3414 22.5019 35.5974 22.6456C35.8543 22.7893 36.0778 23.0131 36.2684 23.316C36.5525 23.7678 36.6461 24.2042 36.5499 24.6253C36.4539 25.0455 36.2021 25.3842 35.7956 25.6401C35.3881 25.8962 34.974 25.9764 34.5537 25.88ZM35.4281 24.5352C35.4264 24.3938 35.3532 24.2093 35.2105 23.9813C35.0667 23.7524 34.9314 23.607 34.8056 23.5441C34.6797 23.4811 34.5691 23.4794 34.4747 23.5389C34.3803 23.5976 34.3344 23.6979 34.3361 23.8392C34.3378 23.9795 34.411 24.1649 34.5546 24.3931C34.6984 24.622 34.8328 24.7674 34.9586 24.8304C35.0845 24.8934 35.1951 24.895 35.2895 24.8355C35.3838 24.7758 35.4297 24.6763 35.4281 24.5352ZM37.078 20.8837L38.3367 20.0918L38.0535 27.5477L36.7939 28.3389L37.078 20.8837ZM39.9203 25.9371C39.5001 25.8411 39.1472 25.567 38.8631 25.1145C38.6734 24.8116 38.5688 24.5138 38.5509 24.2203C38.5322 23.9268 38.5934 23.6564 38.732 23.4087C38.8715 23.162 39.0731 22.9561 39.3359 22.7901C39.5996 22.6252 39.8725 22.5333 40.1549 22.5145C40.4381 22.4958 40.7078 22.5588 40.9645 22.7025C41.2214 22.8463 41.4443 23.0691 41.6347 23.3729C41.9188 23.8245 42.0124 24.261 41.9171 24.6814C41.8211 25.1024 41.5693 25.4411 41.1619 25.6971C40.7546 25.9533 40.3404 26.0333 39.9203 25.9371ZM40.7954 24.5921C40.7929 24.4509 40.7205 24.2663 40.5769 24.0375C40.4331 23.8093 40.2987 23.6632 40.172 23.601C40.0462 23.538 39.9355 23.5364 39.842 23.5951C39.7476 23.6546 39.7008 23.755 39.7034 23.8954C39.7051 24.0366 39.7774 24.2212 39.921 24.45C40.0648 24.678 40.1992 24.8243 40.3259 24.8865C40.4518 24.9493 40.5615 24.9511 40.6568 24.8924C40.7504 24.8329 40.7971 24.7325 40.7954 24.5921Z" fill="#094200"/>
<path d="M50.2206 21.7535C49.6484 21.591 49.1653 21.3002 48.7731 20.8807C48.381 20.462 48.1225 19.9508 47.9976 19.3468C47.8724 18.7436 47.9065 18.1719 48.1004 17.6317C48.2943 17.0916 48.6209 16.6321 49.0819 16.2552C49.5437 15.8775 50.0981 15.6223 50.7479 15.4879C51.3968 15.3535 52.0074 15.3671 52.5807 15.5303C53.1539 15.6937 53.6361 15.9846 54.0282 16.4032C54.4211 16.8226 54.6797 17.3339 54.8038 17.9371C54.9289 18.5403 54.8949 19.112 54.7009 19.653C54.5078 20.1933 54.1804 20.6518 53.7186 21.0296C53.2577 21.4065 52.7032 21.6626 52.0533 21.797C51.4044 21.9314 50.7938 21.9169 50.2206 21.7535ZM52.3596 19.8232C52.5381 19.6572 52.664 19.4489 52.7373 19.197C52.8111 18.9444 52.8163 18.6661 52.7533 18.3615C52.6903 18.057 52.5755 17.8042 52.4071 17.6017C52.2397 17.4001 52.0415 17.258 51.8118 17.1772C51.5821 17.0955 51.3406 17.0811 51.0889 17.1339C50.8355 17.1857 50.6203 17.2955 50.4416 17.4605C50.2629 17.6265 50.1371 17.8357 50.0631 18.0876C49.99 18.3393 49.9849 18.6176 50.0479 18.9222C50.1107 19.2267 50.2264 19.4804 50.394 19.6818C50.5615 19.8844 50.7596 20.0256 50.9893 20.1073C51.2189 20.1881 51.4596 20.2026 51.713 20.1507C51.9657 20.098 52.1809 19.9891 52.3596 19.8232Z" fill="#094200"/>
<path d="M60.5238 19.299L59.9608 19.2904L59.9353 20.8388L57.8594 20.8056L57.9589 14.6445L60.9237 14.6931C61.4935 14.7023 61.9867 14.8044 62.4069 14.9986C62.8253 15.1934 63.1469 15.469 63.3696 15.8247C63.5925 16.1803 63.7005 16.593 63.6928 17.0617C63.686 17.5024 63.5797 17.8852 63.3748 18.2101C63.1706 18.5352 62.879 18.792 62.5005 18.9791L63.7626 20.9011L61.5463 20.8654L60.5238 19.299ZM61.3963 16.4924C61.2577 16.3641 61.0476 16.2976 60.7661 16.2925L60.0092 16.2807L59.9863 17.7235L60.7423 17.7363C61.0238 17.7405 61.2364 17.681 61.3794 17.5567C61.5221 17.4333 61.5954 17.2573 61.5987 17.0284C61.6021 16.7995 61.535 16.6209 61.3963 16.4924Z" fill="#094200"/>
<path d="M67.2723 15.2539L69.3143 15.6317L68.1933 21.6898L66.1514 21.312L67.2723 15.2539Z" fill="#094200"/>
<path d="M75.8476 20.642L77.5384 21.2689L76.6335 23.7114C76.2049 23.8221 75.7422 23.8569 75.2438 23.8162C74.7453 23.7753 74.2794 23.6749 73.8455 23.5133C73.2289 23.2853 72.7237 22.9526 72.3282 22.5154C71.9336 22.0781 71.6827 21.5779 71.5748 21.0156C71.4676 20.4532 71.5221 19.8808 71.7381 19.2972C71.9542 18.7135 72.2858 18.2439 72.7341 17.8874C73.1823 17.531 73.702 17.3174 74.2947 17.246C74.8874 17.1745 75.4972 17.2544 76.1241 17.4876C76.6913 17.697 77.1633 17.9801 77.541 18.3366C77.9195 18.6923 78.1899 19.1065 78.3515 19.5805L76.6998 20.216C76.4932 19.658 76.1401 19.2862 75.6392 19.1007C75.2106 18.9417 74.8211 18.9442 74.4724 19.1091C74.1237 19.2743 73.8668 19.5796 73.7019 20.0246C73.5411 20.4602 73.5361 20.8558 73.689 21.2123C73.8413 21.5696 74.1262 21.8247 74.5446 21.9804C74.792 22.0714 75.0455 22.1133 75.3057 22.103L75.8476 20.642Z" fill="#094200"/>
<path d="M81.8361 20.2734L83.6316 21.3164L80.5375 26.6438L78.7422 25.6007L81.8361 20.2734Z" fill="#094200"/>
<path d="M91.5064 27.2953L87.5364 32.0066L86.2318 30.9057L86.2454 27.257L84.4424 29.3965L82.8945 28.0915L86.8646 23.3809L88.17 24.4817L88.1555 28.1306L89.9594 25.991L91.5064 27.2953Z" fill="#094200"/>
<path d="M92.7793 36.6567L91.3658 34.7902L90.2602 35.1083L88.9854 33.4247L95.5213 31.8516L96.7536 33.4799L93.4692 39.3465L92.173 37.634L92.7793 36.6567ZM93.6263 35.2972L94.4998 33.8849L92.9034 34.3426L93.6263 35.2972Z" fill="#094200"/>
<path d="M99.9707 38.5371L100.864 40.4121L96.7568 42.3688L97.9525 44.8801L96.4982 45.5727L94.4102 41.1862L99.9707 38.5371Z" fill="#094200"/>
<path d="M25.1612 79.9256L19.7182 82.8087L18.7461 80.9727L22.8054 78.8229L22.3113 77.8888L23.695 77.1562L25.1612 79.9256Z" fill="#094200"/>
<path d="M22.4772 86.6951C22.4262 86.2068 22.5214 85.7218 22.7629 85.2395C23.0044 84.7571 23.3905 84.3139 23.9229 83.909C24.4553 83.5033 24.986 83.2489 25.515 83.145C26.0439 83.0413 26.5373 83.0787 26.994 83.2582C27.4508 83.4376 27.8445 83.7447 28.1752 84.1786C28.5053 84.6133 28.6958 85.0745 28.7468 85.5628C28.7978 86.0512 28.7026 86.5369 28.4611 87.0193C28.2196 87.5008 27.8335 87.9449 27.301 88.3498C26.7687 88.7548 26.238 89.0092 25.709 89.1129C25.18 89.2175 24.6868 89.1792 24.2301 89.0006C23.7734 88.821 23.3788 88.5141 23.0487 88.0802C22.7187 87.6454 22.5283 87.1843 22.4772 86.6951ZM26.0382 86.69C26.8647 86.0605 27.1362 85.5593 26.8521 85.1859C26.5671 84.8124 26.0119 84.9401 25.1861 85.5687C24.3594 86.1974 24.0882 86.6986 24.3721 87.0729C24.6561 87.4463 25.2123 87.3187 26.0382 86.69Z" fill="#094200"/>
<path d="M28.2618 93.3652C28.1199 92.8956 28.1206 92.4005 28.267 91.8815C28.4115 91.3625 28.7075 90.853 29.1532 90.3544C29.5989 89.8558 30.0717 89.5054 30.5717 89.3029C31.0709 89.1004 31.5625 89.0434 32.0447 89.1327C32.5278 89.2221 32.9725 89.4492 33.3791 89.8125C33.7856 90.1767 34.0603 90.5936 34.2032 91.0632C34.3461 91.5328 34.3444 92.0279 34.199 92.5469C34.0536 93.0668 33.7577 93.5756 33.3121 94.074C32.8664 94.5726 32.3936 94.923 31.8943 95.1256C31.3951 95.3281 30.9035 95.3851 30.4204 95.2958C29.9373 95.2065 29.4934 94.9802 29.0869 94.616C28.6793 94.2526 28.4046 93.8357 28.2618 93.3652ZM31.7571 92.6838C32.4495 91.9096 32.6203 91.366 32.2709 91.0529C31.9205 90.7399 31.4 90.9705 30.7077 91.7446C30.0154 92.5196 29.8445 93.0623 30.195 93.3755C30.5444 93.6885 31.065 93.4581 31.7571 92.6838Z" fill="#094200"/>
<path d="M41.4645 95.6081L42.759 96.3406L36.0649 99.6306L34.7705 98.898L41.4645 95.6081ZM35.8702 95.7579C35.7545 95.3419 35.8285 94.9021 36.0913 94.4367C36.2683 94.1254 36.4808 93.8922 36.7308 93.7366C36.98 93.5817 37.2461 93.506 37.5303 93.5121C37.8135 93.5171 38.0908 93.5962 38.3611 93.7493C38.6316 93.9024 38.8416 94.0999 38.9931 94.3398C39.1428 94.5805 39.216 94.8476 39.2118 95.1411C39.2074 95.4354 39.1165 95.7383 38.9405 96.0498C38.6777 96.5143 38.3384 96.8043 37.9225 96.92C37.5066 97.0349 37.0899 96.9736 36.6707 96.7371C36.2519 96.4998 35.985 96.1739 35.8702 95.7579ZM37.469 95.889C37.5915 95.8209 37.7199 95.6694 37.8526 95.4338C37.9861 95.199 38.05 95.011 38.0456 94.8706C38.0405 94.7294 37.9896 94.6316 37.8926 94.5772C37.7957 94.5218 37.6859 94.5288 37.5625 94.5976C37.44 94.6657 37.3116 94.8179 37.1789 95.0527C37.0454 95.2875 36.9816 95.4756 36.9859 95.6159C36.9911 95.7572 37.0421 95.8549 37.139 95.9094C37.236 95.9646 37.3458 95.9579 37.469 95.889ZM38.368 100.509C38.2531 100.094 38.3264 99.6536 38.59 99.189C38.766 98.8776 38.9786 98.6437 39.2287 98.489C39.4779 98.3332 39.7449 98.2584 40.0282 98.2636C40.3114 98.2695 40.5886 98.3486 40.8591 98.5017C41.1294 98.6548 41.3404 98.8514 41.491 99.0921C41.6415 99.332 41.7146 99.5993 41.7095 99.8936C41.7053 100.188 41.6144 100.491 41.4383 100.802C41.1755 101.267 40.8362 101.557 40.4203 101.672C40.0044 101.787 39.5877 101.726 39.1693 101.49C38.7498 101.252 38.4828 100.925 38.368 100.509ZM39.9669 100.641C40.0903 100.573 40.2179 100.421 40.3505 100.186C40.484 99.9513 40.5479 99.7632 40.5436 99.6229C40.5394 99.4817 40.4882 99.3839 40.3914 99.3285C40.2943 99.2741 40.1839 99.2809 40.0613 99.349C39.938 99.4179 39.8095 99.5701 39.6769 99.805C39.5441 100.04 39.4795 100.228 39.4847 100.368C39.4889 100.509 39.5399 100.607 39.6369 100.662C39.7338 100.717 39.8435 100.71 39.9669 100.641Z" fill="#094200"/>
<path d="M50.3492 105.023C49.8756 104.662 49.5337 104.214 49.322 103.68C49.111 103.147 49.0574 102.576 49.1628 101.969C49.2675 101.362 49.5091 100.843 49.8875 100.411C50.2658 99.9784 50.7388 99.6721 51.3061 99.4902C51.8733 99.309 52.4831 99.2741 53.1362 99.3872C53.7895 99.5003 54.3525 99.7376 54.8261 100.099C55.2989 100.461 55.6417 100.909 55.8527 101.443C56.0644 101.977 56.1171 102.547 56.0125 103.154C55.9071 103.761 55.6654 104.281 55.2879 104.713C54.9087 105.144 54.4366 105.451 53.8694 105.633C53.3022 105.815 52.6915 105.849 52.0392 105.736C51.3852 105.623 50.8222 105.386 50.3492 105.023ZM53.0461 104.012C53.2732 103.923 53.4671 103.775 53.6278 103.568C53.7886 103.36 53.8957 103.103 53.9485 102.797C54.002 102.491 53.9875 102.212 53.905 101.963C53.8233 101.714 53.6907 101.509 53.5069 101.349C53.3233 101.19 53.1038 101.088 52.8495 101.043C52.5952 100.999 52.3554 101.022 52.1284 101.111C51.9013 101.2 51.7074 101.348 51.5475 101.555C51.3859 101.762 51.2788 102.019 51.2261 102.326C51.1732 102.633 51.1877 102.91 51.2693 103.159C51.3519 103.409 51.4845 103.613 51.6682 103.773C51.8518 103.933 52.0704 104.035 52.3247 104.079C52.5793 104.123 52.82 104.101 53.0461 104.012Z" fill="#094200"/>
<path d="M61.7035 104.696L61.1405 104.719L61.2033 106.266L59.1282 106.35L58.8799 100.194L61.8421 100.074C62.4112 100.051 62.9103 100.125 63.3398 100.296C63.7693 100.467 64.106 100.723 64.3485 101.066C64.591 101.408 64.7219 101.813 64.7405 102.283C64.7592 102.723 64.6742 103.111 64.4887 103.447C64.3025 103.784 64.0261 104.056 63.6587 104.264L65.0278 106.112L62.8116 106.201L61.7035 104.696ZM62.4161 101.844C62.2707 101.723 62.0564 101.669 61.7757 101.681L61.0188 101.71L61.0775 103.153L61.8335 103.123C62.115 103.112 62.3234 103.04 62.4585 102.908C62.5946 102.776 62.6576 102.596 62.6482 102.367C62.6389 102.138 62.5615 101.964 62.4161 101.844Z" fill="#094200"/>
<path d="M67.0742 99.5087L69.1086 99.0918L70.3435 105.129L68.3091 105.545L67.0742 99.5087Z" fill="#094200"/>
<path d="M76.567 99.7426L78.25 99.0943L79.1855 101.526C78.9363 101.892 78.6124 102.224 78.2117 102.523C77.8111 102.822 77.3953 103.054 76.9623 103.221C76.349 103.457 75.7504 103.542 75.1653 103.475C74.5802 103.407 74.0605 103.199 73.609 102.849C73.1564 102.497 72.8179 102.032 72.5952 101.452C72.3716 100.871 72.3094 100.299 72.4098 99.7348C72.5101 99.1716 72.7594 98.6662 73.1564 98.2214C73.5545 97.7755 74.0648 97.4328 74.6891 97.1928C75.2528 96.9751 75.7947 96.8754 76.3134 96.8925C76.8322 96.9094 77.3094 97.0421 77.7439 97.2897L76.924 98.8593C76.401 98.5769 75.8898 98.5318 75.3915 98.7232C74.9646 98.8883 74.6746 99.1477 74.5224 99.5016C74.3693 99.8564 74.3779 100.254 74.5488 100.699C74.7154 101.131 74.9739 101.431 75.3244 101.598C75.6738 101.765 76.0575 101.768 76.4733 101.608C76.7199 101.513 76.9376 101.376 77.1263 101.196L76.567 99.7426Z" fill="#094200"/>
<path d="M79.4316 95.1184L81.221 94.0645L84.3473 99.3722L82.5579 100.427L79.4316 95.1184Z" fill="#094200"/>
<path d="M88.1435 88.7402L92.1119 93.4525L90.8055 94.5525L87.2131 93.9195L89.0162 96.0609L87.4683 97.3651L83.5 92.6529L84.8054 91.5529L88.3978 92.185L86.5957 90.0446L88.1435 88.7402Z" fill="#094200"/>
<path d="M96.5185 86.6579L95.0897 88.5125L95.6876 89.4959L94.3982 91.1684L91.1631 85.2736L92.4099 83.6562L98.9321 85.2854L97.6215 86.9862L96.5185 86.6579ZM94.9843 86.1976L93.393 85.7262L94.2537 87.1461L94.9843 86.1976Z" fill="#094200"/>
<path d="M94.9639 79.7932L95.8874 77.9327L99.962 79.9566L101.199 77.4648L102.64 78.1811L100.481 82.5336L94.9639 79.7932Z" fill="#094200"/>
<path d="M59.9994 26.3887C41.4445 26.3887 26.4043 41.438 26.4043 59.9989C26.4043 78.5613 41.4445 93.6106 59.9994 93.6106C78.5546 93.6106 93.6006 78.5613 93.6006 59.9989C93.6006 41.438 78.5545 26.3887 59.9994 26.3887ZM52.8129 79.9098L35.9846 63.0762L42.8857 56.1729L52.8129 66.1032L77.8875 41.0207L84.7887 47.924L52.8129 79.9098Z" fill="#094200"/>
<path d="M20.3525 59.9999C20.3525 61.4744 19.1576 62.6697 17.6836 62.6697C16.2096 62.6697 15.0146 61.4744 15.0146 59.9999C15.0146 58.5254 16.2096 57.3301 17.6836 57.3301C19.1577 57.3302 20.3525 58.5256 20.3525 59.9999Z" fill="#094200"/>
<path d="M105.505 59.9999C105.505 61.4744 104.31 62.6697 102.836 62.6697C101.362 62.6697 100.167 61.4744 100.167 59.9999C100.167 58.5254 101.362 57.3301 102.836 57.3301C104.31 57.3302 105.505 58.5256 105.505 59.9999Z" fill="#094200"/>
</svg>
