<svg width="158" height="115" viewBox="0 0 158 115" fill="none" xmlns="http://www.w3.org/2000/svg">
<g opacity="0.3" clip-path="url(#clip0_56_4718)">
<path d="M66.6665 48.6197C78.5693 52.0098 94.6209 46.4213 94.6209 46.4213L88.1666 42.698L104.914 38.6004C104.914 38.6004 87.8129 36.1453 80.2174 32.77C79.7304 31.4243 78.8736 30.2432 77.7455 29.3625C77.0781 28.8464 76.3298 28.4446 75.5309 28.1733C74.2561 27.7442 72.8906 27.6594 71.5725 27.9276C70.2544 28.1957 69.0306 28.8073 68.0248 29.7004C66.0563 28.1358 63.431 26.9275 60.6452 25.8504C58.4741 25.0278 56.1768 24.262 53.9693 23.3453C53.4293 23.1028 52.8778 22.8771 52.3388 22.6141L50.7509 21.7533C49.7074 21.1712 48.68 20.5608 47.6699 19.9226C45.6986 18.6466 43.9303 17.2316 42.5041 15.7277C42.1697 15.3502 41.8376 14.9707 41.5077 14.5893C41.19 14.2038 40.9467 13.7917 40.6699 13.4171C40.1304 12.6698 39.6956 11.8853 39.3119 11.1909C38.5531 9.78562 38.1499 8.49208 38.3067 7.59639C38.4348 6.67609 38.9988 6.38778 38.9482 6.37507C39.0015 6.39313 38.4083 6.63148 38.2121 7.57766C37.9844 8.50277 38.3125 9.86885 38.9869 11.3479C39.3361 12.0871 39.7161 12.8842 40.221 13.694C40.4826 14.105 40.703 14.5495 41.0077 14.9558L41.9599 16.2113C43.3333 17.8577 45.0723 19.438 47.0156 20.8753C47.991 21.5893 49.0063 22.2692 50.0451 22.9453L51.6177 23.9257C52.1635 24.2341 52.7313 24.5128 53.295 24.8035C55.5407 25.9009 57.7946 26.8035 59.8754 27.7217C61.7857 28.5953 63.5501 29.4656 64.9716 30.4319C64.5149 30.6298 64.0762 30.8671 63.6604 31.1409C59.931 30.5085 54.1449 30.0026 50.1869 31.8913C50.0438 31.9585 49.9056 32.0334 49.7686 32.1132C49.4073 32.0797 49.0578 32.0592 48.7089 32.0373C47.8797 31.2342 46.9944 30.4912 46.0595 29.8141C45.0363 29.0349 43.912 28.462 42.8671 27.8521C41.7575 27.3584 40.7136 26.798 39.6424 26.4539C39.1186 26.2644 38.5997 26.0824 38.1022 25.9032L36.6026 25.4955C35.6467 25.201 34.7139 25.0747 33.8775 24.8964C32.1895 24.6193 30.8051 24.4586 29.8371 24.4317C28.8791 24.3844 28.338 24.3553 28.338 24.3553C28.338 24.3553 28.8673 24.4191 29.8268 24.5277C30.7874 24.6204 32.1562 24.8664 33.8067 25.2451C37.0661 26.0507 41.5516 27.6108 45.3626 30.7434C45.8391 31.1248 46.2933 31.5283 46.7366 31.9549C43.7563 31.9374 41.3068 32.3732 39.4303 33.2692C38.014 33.9425 36.9134 35.2739 36.2637 37.0404C33.1224 37.6247 30.7283 38.6019 29.1416 39.957C28.3397 40.6443 27.7864 41.6015 27.5078 42.7425C24.9897 43.8708 22.1682 45.5346 20.6401 47.7501C19.9284 48.7887 19.6519 50.1116 19.8303 51.5427C17.5744 53.4608 16.1005 55.3546 15.4553 57.1909C15.1056 58.1607 15.1065 59.2436 15.4472 60.3362C14.3872 62.752 13.1813 66.3598 13.7212 69.3079C13.8749 70.1767 14.2953 70.9861 14.9444 71.6859C14.1777 75.159 14.0056 79.9697 16.1983 85.4743L17.245 88.1102L19.7956 86.886C20.7938 86.4079 22.1975 85.3649 23.2318 83.7734C24.0017 84.2415 24.8462 84.5741 25.7285 84.7569L27.863 85.1884L28.7159 83.1642C28.8037 82.9623 29.2486 81.8347 29.5052 80.0537C30.4507 80.2131 31.4184 80.1851 32.3531 79.9713L34.9981 79.388L34.3869 76.7335C34.3277 76.4877 33.076 71.2252 28.9815 67.2867C29.2192 66.157 29.3031 64.907 29.2338 63.5529C30.4717 62.3156 31.5295 60.646 32.3979 58.5676C33.7866 57.9101 35.1337 56.8673 36.4306 55.5044C37.1518 57.7122 38.4366 60.2328 40.7319 62.3003C41.0187 62.5536 41.3878 62.897 41.9774 62.4852C42.5908 63.8159 43.1143 65.9105 42.8124 69.0201C42.6743 70.4166 42.3041 71.2102 43.2934 71.4983C43.3823 71.523 43.4755 71.5288 43.5668 71.5153C43.6599 72.4928 43.6618 73.9932 43.1801 75.9429C43.1801 75.9429 45.0619 74.4533 45.7816 70.887C45.8756 70.9293 45.9578 70.9498 46.0629 71.0121C47.4701 71.8102 46.617 65.1103 43.7217 60.8628C44.2967 60.6866 44.6725 60.9314 44.6059 60.0773C44.4812 58.4966 40.5469 57.067 38.4055 53.3069C39.8113 52.9581 41.2559 52.3196 42.731 51.3855C42.9308 51.4532 43.1511 51.4997 43.3616 51.5578C44.4308 53.891 46.3532 56.861 49.6932 58.8167C50.028 59.0074 50.4615 59.2703 50.9535 58.7437C51.8211 59.9245 52.7562 61.8692 53.0885 64.9741C53.2368 66.3712 53.0318 67.2209 54.0568 67.3072C54.1481 67.313 54.2396 67.3006 54.326 67.2708C54.6141 68.2076 54.9168 69.6793 54.8395 71.6845C54.8395 71.6845 56.3834 69.8427 56.3702 66.2046C56.4683 66.226 56.5541 66.2313 56.6704 66.2693C58.2096 66.7661 56.0264 60.3798 52.336 56.8041C52.8574 56.5147 53.2781 56.6796 53.0423 55.8602C52.6798 54.6042 49.7953 53.9717 47.1985 51.9698C48.9812 51.9018 50.9075 51.5246 52.9706 50.8182C54.4695 52.8695 56.8679 55.3031 60.3984 56.5571C60.754 56.6821 61.228 56.8607 61.6181 56.2536C62.6881 57.2536 63.9672 58.9897 64.8702 61.9793C65.2749 63.3209 65.2312 64.1896 66.2546 64.0883C66.3462 64.0776 66.4345 64.0473 66.5134 63.9994C66.9731 64.8681 67.5386 66.2568 67.8358 68.239C67.8358 68.239 69.0116 66.1431 68.3246 62.5734C68.4247 62.5762 68.5079 62.5628 68.6283 62.5799C70.2326 62.7841 66.9056 56.9156 62.6171 54.0918C63.0745 53.7109 63.5152 53.795 63.1306 53.0334C62.5893 51.9544 60.0335 51.7929 57.3444 50.6104C59.9828 50.6204 62.9483 49.9111 66.22 48.4653C66.3674 48.5168 66.5133 48.5767 66.6665 48.6197ZM68.5989 31.9741C69.3193 31.0434 70.3119 30.3606 71.4387 30.0206C72.5654 29.6807 73.7701 29.7007 74.885 30.0777C75.4616 30.2733 76.0137 30.563 76.5191 30.9557C77.7028 31.8755 78.4734 33.2274 78.6618 34.7146C78.8502 36.2019 78.441 37.7031 77.5241 38.8891C76.8069 39.8201 75.8169 40.5037 74.6922 40.8445C73.5676 41.1853 72.3646 41.1663 71.2513 40.79C70.3984 40.5007 69.6269 40.0117 69.0012 39.3638C68.3755 38.7159 67.9136 37.9278 67.6541 37.0653C67.3946 36.2028 67.345 35.2908 67.5093 34.4052C67.6737 33.5196 68.0472 32.6861 68.5989 31.9741ZM16.3284 68.8098C15.818 65.9979 17.6082 61.9112 18.3545 60.372C18.3496 60.36 18.3404 60.3479 18.3382 60.3368C18.4744 60.4825 21.1321 63.3203 24.1381 63.4371C24.2578 65.7066 23.7016 70.0738 17.8696 70.6096C17.0467 70.1374 16.4564 69.5051 16.3284 68.8098ZM28.3177 73.5032C26.9955 73.3517 24.3424 71.8355 24.3424 71.8355C26.5494 76.3217 26.2653 82.128 26.2653 82.128C22.2944 78.7838 21.7161 75.1916 21.7161 75.1916C21.1673 78.6658 18.6637 84.4662 18.6637 84.4662C16.407 78.7871 16.9313 73.9755 17.9542 70.6621L17.9046 70.6289C18.4398 70.8416 24.0017 72.9406 25.9998 68.8888C27.6924 71.1439 28.3177 73.5032 28.3177 73.5032ZM49.0752 40.1595C49.0752 40.1595 49.4425 43.5243 51.7759 45.8779C43.8676 48.3719 38.3978 39.417 38.3978 39.417C38.4812 43.0062 39.3149 45.3902 40.5777 46.9382C34.1743 50.9183 29.9789 44.6112 29.9789 44.6112C31.1529 47.9096 32.6354 49.694 34.204 50.52C32.2101 53.0141 27.7621 57.1659 22.8347 52.5529C22.8347 52.5529 24.9452 55.6031 28.018 56.3766C27.265 58.3471 24.7456 63.0121 18.3325 60.3274C17.8915 59.5349 17.7219 58.7259 17.9525 58.0854C18.7234 55.9354 21.1617 53.8163 22.832 52.5564C22.3308 51.3024 22.2818 50.0547 22.8227 49.27C24.3342 47.0683 27.8306 45.4417 29.978 44.6095C29.9492 43.4993 30.2371 42.5278 30.8576 41.9988C32.7235 40.4028 36.0838 39.7161 38.3938 39.4201C38.6623 37.6699 39.4245 36.2282 40.5551 35.6925C42.9603 34.5467 46.4301 34.5134 49.2953 34.7651C49.6907 35.2497 50.0768 35.7445 50.4544 36.2467C51.2343 37.2745 52.0129 38.3019 52.7796 39.3074C53.5614 40.3166 54.4298 41.2586 55.2324 42.202C55.899 42.9642 56.609 43.7604 57.4315 44.47C54.5218 44.5552 51.2543 43.677 49.0752 40.1595ZM62.6739 42.573C61.853 43.9948 60.4003 43.9654 59.1449 43.0391C58.335 42.4763 57.5458 41.6815 56.6851 40.7911C55.8759 39.9285 55.0033 39.0906 54.1843 38.1519C53.3657 37.1897 52.57 36.2174 51.7044 35.2363C51.4878 34.9817 51.2579 34.7314 51.036 34.4794C51.1301 34.4208 51.2181 34.3586 51.3157 34.3115C55.2274 32.4412 61.9816 33.5295 64.3218 33.9892C64.8204 33.5524 65.3286 33.2363 65.8511 32.9962C65.4838 34.0789 65.335 35.2312 65.4787 36.3966C65.6001 37.3975 65.9194 38.3641 66.4182 39.2403C66.9169 40.1164 67.5851 40.8845 68.3837 41.4998C69.0538 42.0196 69.8032 42.4238 70.6049 42.6957C72.1124 43.2042 73.7412 43.2291 75.2635 42.7668C76.7858 42.3045 78.1257 41.3781 79.0958 40.1172C80.0707 38.8554 80.6245 37.3193 80.679 35.7257C85.1887 38.0899 96.1068 38.9021 96.1068 38.9021L82.3574 41.6913L88.9008 45.7432C88.9008 45.7432 65.4093 52.0022 62.8987 35.5185C61.465 37.3725 61.1124 40.1456 62.6739 42.573Z" fill="#015CA5"/>
<path d="M71.4062 37.5796C71.6873 37.7971 72.0085 37.9571 72.3515 38.0503C72.6945 38.1436 73.0525 38.1683 73.405 38.1231C73.7576 38.0778 74.0978 37.9635 74.4061 37.7867C74.7144 37.6099 74.9849 37.3741 75.202 37.0927C75.64 36.523 75.835 35.8033 75.7448 35.0904C75.6545 34.3775 75.2862 33.7292 74.72 33.2866C74.4381 33.069 74.1162 32.9091 73.7725 32.8159C73.4288 32.7227 73.0701 32.6982 72.7169 32.7437C72.3637 32.7891 72.023 32.9037 71.7141 33.0809C71.4052 33.258 71.1342 33.4943 70.9166 33.7762C70.699 34.0581 70.539 34.38 70.4459 34.7237C70.3527 35.0674 70.3282 35.4261 70.3736 35.7793C70.4191 36.1325 70.5337 36.4732 70.7108 36.7821C70.888 37.091 71.1243 37.362 71.4062 37.5796Z" fill="#015CA5"/>
</g>
<g opacity="0.3">
<path d="M141.074 28.8478C145.392 27.7278 149.678 28.9697 152.534 32.2426C154.65 34.667 155.534 37.9805 154.987 41.3183C154.424 44.6854 152.501 47.5874 149.833 49.1466C145.979 51.3851 141.529 51.4243 137.927 49.2864C134.325 47.1485 132.249 43.2522 132.38 38.8827C132.505 34.5888 135.461 30.7993 139.926 29.1953C140.314 29.0697 140.68 28.9501 141.074 28.8478ZM148.628 47.0806C150.677 45.905 152.163 43.6118 152.611 40.9438C153.041 38.305 152.367 35.705 150.716 33.8292C147.819 30.4926 143.665 30.4304 140.737 31.4625C137.2 32.7268 134.864 35.6616 134.777 38.9546C134.691 42.4454 136.312 45.5431 139.154 47.234C141.996 48.9248 145.526 48.8763 148.628 47.0806Z" fill="#015CA5"/>
<path d="M141.425 44.9109C142.504 45.2504 143.798 44.89 144.435 43.9072C145.089 42.8951 144.693 41.5607 143.872 40.7827C143.109 40.0391 141.925 39.5784 140.851 39.8321C139.8 40.0799 139.047 41.0928 139.103 42.1684C139.179 43.5114 140.206 44.5087 141.425 44.9109C141.722 45.0072 142.093 44.812 142.16 44.4973C142.25 44.1765 142.067 43.8524 141.746 43.7622C141.694 43.751 141.635 43.7166 141.583 43.7055C141.554 43.6883 141.472 43.6599 141.583 43.7055C141.554 43.6883 141.53 43.6943 141.501 43.6771C141.39 43.6315 141.273 43.5628 141.186 43.5112C141.15 43.4708 141.098 43.4596 141.063 43.4192C141.033 43.402 141.027 43.3788 141.004 43.3848C141.004 43.3848 141.069 43.4424 141.033 43.402C140.94 43.3272 140.869 43.2464 140.775 43.1716C140.74 43.1312 140.711 43.114 140.676 43.0736C140.64 43.0332 140.57 42.9524 140.64 43.0332C140.593 42.9464 140.523 42.8656 140.475 42.7787C140.463 42.7323 140.428 42.6919 140.422 42.6687C140.381 42.6051 140.369 42.5586 140.422 42.6687C140.398 42.5758 140.351 42.489 140.327 42.3961C140.315 42.3497 140.308 42.3265 140.296 42.2801C140.272 42.1872 140.303 42.4022 140.29 42.2569C140.29 42.158 140.289 42.0591 140.294 41.9834C140.288 41.9602 140.305 41.931 140.305 41.931C140.305 41.931 140.289 42.0591 140.294 41.9834C140.311 41.9542 140.299 41.9078 140.316 41.8785C140.327 41.8261 140.345 41.7969 140.356 41.7444C140.35 41.7212 140.373 41.7152 140.367 41.692C140.372 41.6163 140.315 41.7797 140.35 41.7212C140.401 41.6335 140.43 41.5518 140.487 41.4873C140.522 41.4288 140.562 41.3936 140.481 41.4641C140.522 41.4288 140.556 41.3704 140.596 41.3351C140.637 41.2998 140.654 41.2706 140.694 41.2354C140.775 41.1648 140.608 41.2827 140.718 41.2293C140.741 41.2233 140.949 41.0703 140.978 41.0874C140.978 41.0874 140.862 41.1176 140.932 41.0995C140.955 41.0935 140.978 41.0874 141.001 41.0814C141.048 41.0694 141.094 41.0573 141.141 41.0453C141.187 41.0333 141.233 41.0212 141.257 41.0152C141.326 40.9971 141.21 41.0272 141.21 41.0272C141.233 41.0212 141.28 41.0092 141.309 41.0264C141.408 41.0255 141.484 41.0306 141.583 41.0298C141.635 41.0409 141.687 41.0521 141.734 41.0401C141.606 41.0237 141.734 41.0401 141.786 41.0512C141.891 41.0736 141.973 41.1019 142.078 41.1243C142.13 41.1355 142.16 41.1526 142.212 41.1638C142.241 41.181 142.264 41.175 142.27 41.1982C142.352 41.2266 142.183 41.1466 142.27 41.1982C142.469 41.2953 142.644 41.3985 142.797 41.5077C142.884 41.5592 142.732 41.4501 142.855 41.542C142.89 41.5825 142.92 41.5996 142.955 41.6401C143.025 41.7209 143.119 41.7957 143.19 41.8765C143.196 41.8997 143.225 41.9169 143.231 41.9401C143.231 41.9401 143.16 41.8593 143.202 41.9229C143.237 41.9633 143.249 42.0097 143.278 42.0269C143.326 42.1138 143.379 42.2238 143.426 42.3106C143.467 42.3743 143.414 42.2642 143.414 42.2642C143.42 42.2874 143.432 42.3339 143.438 42.3571C143.45 42.4035 143.462 42.4499 143.474 42.4964C143.486 42.5428 143.498 42.5892 143.51 42.6356C143.516 42.6589 143.528 42.7053 143.535 42.7285C143.522 42.6821 143.534 42.6296 143.528 42.7053C143.529 42.8042 143.53 42.903 143.531 43.0019C143.532 43.1008 143.531 43.0019 143.525 42.9787C143.531 43.0019 143.514 43.0311 143.52 43.0544C143.509 43.1068 143.498 43.1593 143.486 43.2117C143.469 43.2409 143.475 43.2642 143.452 43.2702C143.504 43.1825 143.441 43.3226 143.452 43.2702C143.412 43.3054 143.4 43.3579 143.389 43.4103C143.355 43.4688 143.297 43.5333 143.372 43.4396C143.332 43.4748 143.297 43.5333 143.257 43.5686C143.216 43.6038 143.176 43.6391 143.136 43.6743C143.095 43.7096 143.176 43.6391 143.176 43.6391C143.153 43.6451 143.112 43.6803 143.095 43.7096C143.055 43.7448 143.008 43.7569 142.968 43.7921C142.928 43.8274 142.788 43.8635 142.904 43.8334C142.812 43.8575 142.702 43.9108 142.609 43.9349C142.539 43.953 142.493 43.965 142.417 43.9599C142.533 43.9297 142.417 43.9599 142.37 43.9719C142.248 43.9788 142.144 43.9565 142.021 43.9633C142.15 43.9797 141.992 43.9462 141.94 43.935C141.887 43.9238 141.806 43.8954 141.753 43.8843C141.456 43.788 141.085 43.9832 141.018 44.2979C140.944 44.4905 141.104 44.8207 141.425 44.9109Z" fill="#015CA5"/>
</g>
<g opacity="0.3">
<path d="M116.609 41.216C119.952 40.349 123.299 41.3141 125.52 43.8597C127.177 45.7588 127.869 48.3295 127.427 50.9219C126.99 53.5374 125.498 55.8075 123.409 57.0183C120.417 58.7606 116.956 58.7911 114.173 57.1346C111.389 55.4781 109.763 52.4561 109.849 49.0642C109.948 45.7187 112.254 42.7668 115.722 41.5205C116.035 41.3898 116.331 41.2883 116.609 41.216ZM122.227 54.9464C123.691 54.0958 124.753 52.4578 125.073 50.5413C125.4 48.6479 124.895 46.7969 123.725 45.4402C121.645 43.0563 118.655 42.9895 116.55 43.7585C114.01 44.665 112.325 46.7623 112.27 49.1301C112.205 51.6494 113.376 53.8726 115.423 55.0761C117.469 56.2796 119.941 56.2578 122.227 54.9464Z" fill="#015CA5"/>
<path d="M116.93 53.7198C117.816 53.9854 118.855 53.6912 119.365 52.8898C119.899 52.0824 119.593 50.9974 118.93 50.3518C118.302 49.7466 117.368 49.3941 116.527 49.5877C115.685 49.7812 115.058 50.6128 115.089 51.4966C115.122 52.5782 115.926 53.3855 116.93 53.7198C117.227 53.8161 117.598 53.6209 117.665 53.3062C117.755 52.9855 117.572 52.6613 117.251 52.5711C117.222 52.5539 117.169 52.5427 117.14 52.5255C117.035 52.5032 117.228 52.5771 117.111 52.5084C117.029 52.48 116.942 52.4284 116.877 52.3708C116.848 52.3536 116.819 52.3364 116.783 52.296L116.748 52.2556C116.748 52.2556 116.842 52.3304 116.807 52.29C116.742 52.2324 116.678 52.1748 116.613 52.1172C116.584 52.1 116.572 52.0536 116.543 52.0364C116.537 52.0132 116.507 51.996 116.501 51.9728C116.466 51.9324 116.543 52.0364 116.543 52.0364C116.524 51.9667 116.46 51.9091 116.419 51.8455C116.413 51.8223 116.377 51.7819 116.371 51.7587C116.365 51.7355 116.365 51.7355 116.359 51.7123C116.318 51.6486 116.383 51.8051 116.377 51.7819C116.359 51.7123 116.318 51.6487 116.323 51.573C116.317 51.5498 116.305 51.5033 116.299 51.4801C116.275 51.3873 116.312 51.6254 116.305 51.5033C116.31 51.4277 116.292 51.3581 116.297 51.2824C116.291 51.2592 116.315 51.2531 116.309 51.2299C116.309 51.2299 116.269 51.3641 116.303 51.3056C116.321 51.2764 116.315 51.2531 116.332 51.2239C116.349 51.1947 116.337 51.1482 116.354 51.119C116.348 51.0958 116.371 51.0898 116.365 51.0666C116.376 51.0141 116.297 51.1835 116.331 51.125C116.365 51.0666 116.4 51.0081 116.434 50.9496C116.434 50.9496 116.451 50.9204 116.474 50.9144C116.509 50.8559 116.417 50.9788 116.44 50.9728C116.48 50.9376 116.498 50.9083 116.538 50.8731C116.555 50.8439 116.578 50.8378 116.619 50.8026C116.7 50.732 116.515 50.8791 116.596 50.8086C116.659 50.7673 116.729 50.7493 116.793 50.708C116.793 50.708 116.653 50.7441 116.723 50.726C116.746 50.72 116.746 50.72 116.769 50.714C116.816 50.702 116.839 50.6959 116.885 50.6839C116.909 50.6779 116.955 50.6658 116.978 50.6598C117.048 50.6417 116.879 50.6607 116.903 50.6547C116.926 50.6486 116.949 50.6426 116.978 50.6598C117.054 50.665 117.1 50.6529 117.176 50.6581C117.199 50.652 117.252 50.6632 117.304 50.6744C117.304 50.6744 117.176 50.6581 117.228 50.6692C117.252 50.6632 117.281 50.6804 117.304 50.6744C117.38 50.6795 117.461 50.7079 117.52 50.7423C117.549 50.7595 117.578 50.7767 117.625 50.7646C117.648 50.7586 117.654 50.7818 117.677 50.7758C117.759 50.8041 117.56 50.707 117.648 50.7586C117.788 50.8213 117.911 50.9133 118.057 50.9993C118.145 51.0509 117.958 50.9013 118.057 50.9993C118.087 51.0165 118.116 51.0337 118.128 51.0801C118.192 51.1377 118.234 51.2013 118.298 51.2589C118.304 51.2822 118.333 51.2993 118.333 51.2993C118.333 51.2993 118.257 51.1953 118.292 51.2357C118.298 51.2589 118.333 51.2993 118.339 51.3225C118.381 51.3862 118.428 51.473 118.446 51.5426C118.481 51.583 118.428 51.473 118.428 51.473C118.434 51.4962 118.44 51.5194 118.446 51.5426C118.452 51.5658 118.464 51.6123 118.47 51.6355C118.476 51.6587 118.488 51.7051 118.494 51.7284C118.5 51.7516 118.506 51.7748 118.512 51.798C118.506 51.7748 118.499 51.6527 118.5 51.7516C118.495 51.8272 118.513 51.8969 118.508 51.9725C118.548 51.8384 118.509 52.0714 118.508 51.9725C118.491 52.0018 118.48 52.0542 118.462 52.0835C118.468 52.1067 118.445 52.1127 118.451 52.1359C118.417 52.1944 118.52 52.019 118.468 52.1067C118.451 52.1359 118.434 52.1651 118.417 52.1944C118.394 52.2004 118.4 52.2236 118.377 52.2296C118.342 52.2881 118.394 52.2004 118.417 52.1944C118.394 52.2004 118.359 52.2589 118.319 52.2941C118.302 52.3234 118.255 52.3354 118.238 52.3646C118.198 52.3999 118.302 52.3234 118.302 52.3234C118.278 52.3294 118.261 52.3586 118.238 52.3646C118.192 52.3767 118.174 52.4059 118.128 52.418C118.105 52.424 118.105 52.424 118.082 52.43C117.995 52.4773 118.082 52.43 118.128 52.418C118.058 52.436 117.972 52.4833 117.896 52.4782C117.849 52.4902 117.797 52.4791 117.757 52.5143C117.757 52.5143 117.902 52.5014 117.826 52.4962C117.803 52.5023 117.78 52.5083 117.751 52.4911C117.704 52.5031 117.652 52.4919 117.605 52.504C117.582 52.51 117.5 52.4817 117.477 52.4877C117.477 52.4877 117.605 52.504 117.553 52.4928C117.524 52.4756 117.5 52.4817 117.471 52.4645C117.419 52.4533 117.389 52.4361 117.337 52.4249C117.04 52.3287 116.669 52.5239 116.602 52.8386C116.426 53.3055 116.609 53.6296 116.93 53.7198Z" fill="#015CA5"/>
</g>
<defs>
<clipPath id="clip0_56_4718">
<rect width="90" height="90" fill="white" transform="translate(28.9102) rotate(18.737)"/>
</clipPath>
</defs>
</svg>
