<svg width="175" height="109" viewBox="0 0 175 109" fill="none" xmlns="http://www.w3.org/2000/svg">
<g opacity="0.3">
<path d="M27.4355 48.5212C28.9018 46.7907 28.6875 44.1992 26.957 42.7329C25.2265 41.2666 22.635 41.4809 21.1688 43.2114C19.7025 44.9419 19.9167 47.5334 21.6472 48.9996C23.3777 50.4659 25.9692 50.2517 27.4355 48.5212Z" fill="#015CA5"/>
<path d="M22.5135 46.6922C23.1447 46.7533 23.7059 46.2912 23.767 45.6601C23.8281 45.0289 23.366 44.4677 22.7348 44.4066C22.1037 44.3454 21.5424 44.8076 21.4813 45.4387C21.4202 46.0699 21.8823 46.6311 22.5135 46.6922Z" fill="white"/>
<path d="M78.2151 91.3725C77.6657 91.3193 77.2424 90.879 77.2297 90.3232C77.1993 89.7213 77.6942 89.1924 78.2939 89.1839C85.7522 88.9079 92.8198 87.3961 99.2488 84.6911C102.878 83.1791 106.438 81.2389 109.859 79.3519C115.786 76.1102 121.92 72.7777 128.685 71.4141C128.958 71.3517 129.228 71.3113 129.522 71.2511C131.579 70.8514 133.501 70.4828 135.189 69.5372C137.255 68.3619 139.05 64.7201 139.512 60.6386C140.038 56.1198 138.91 52.1949 136.384 49.8652C134.47 48.1047 132.041 47.0709 129.462 45.9783C128.503 45.5748 127.524 45.1473 126.569 44.6998C121.037 42.0346 116.398 37.9472 111.901 33.9845C109.142 31.5435 106.281 29.0258 103.273 26.8711C89.2593 16.9513 69.8206 14.4922 52.5154 20.4698C44.575 23.2059 37.1888 27.5485 30.0373 31.7586C23.7565 35.454 17.6004 39.0062 11.348 41.9501C8.79214 43.1446 7.02034 44.9474 6.6218 46.7722C6.38991 47.7924 6.61035 48.7232 7.30508 49.5669C7.5851 49.8824 9.14195 50.2994 10.2656 50.6078C12.944 51.3552 16.2711 52.2764 17.6492 54.5394C17.976 55.0591 17.8001 55.7298 17.2804 56.0566C16.7607 56.3834 16.0901 56.2075 15.7633 55.6878C14.8467 54.1571 11.9726 53.3686 9.6813 52.7474C7.7154 52.2021 6.31028 51.822 5.61556 50.9783C4.52384 49.6525 4.10992 47.9709 4.49356 46.2999C5.07009 43.7824 7.2226 41.4841 10.4541 39.9558C16.6144 37.0473 22.7222 33.5348 28.957 29.8571C36.2028 25.5896 43.6832 21.1896 51.83 18.3847C69.8002 12.1831 90.0039 14.7607 104.579 25.0676C107.692 27.2769 110.594 29.8428 113.394 32.3101C117.767 36.172 122.282 40.1807 127.563 42.6886C128.474 43.1318 129.433 43.5352 130.37 43.9365C133.012 45.0575 135.74 46.209 137.917 48.2389C140.971 51.0636 142.366 55.6796 141.749 60.8996C141.173 65.7021 138.987 69.9493 136.312 71.4649C134.318 72.5807 132.124 73.0116 129.999 73.4269C129.727 73.4893 129.457 73.5297 129.184 73.592C122.736 74.8975 116.763 78.157 110.979 81.3016C107.49 83.2042 103.882 85.1841 100.16 86.7315C93.457 89.5209 86.1611 91.0993 78.4349 91.3937C78.303 91.381 78.2591 91.3767 78.2151 91.3725Z" fill="#015CA5"/>
<path d="M55.9803 88.6875C55.9144 88.6811 55.8484 88.6748 55.7846 88.6464C54.7907 88.3727 53.7769 88.0749 52.8092 87.7593C37.2316 82.7681 23.2572 74.05 12.3939 62.5274C7.32375 57.1561 6.45829 54.4102 6.57264 50.9385C6.58827 50.3188 7.09873 49.8581 7.71836 49.8737C8.33798 49.8893 8.79879 50.3998 8.78315 51.0194C8.69439 53.5398 9.01539 55.7227 14.004 61.0196C24.6072 72.2507 38.2668 80.7831 53.5013 85.6524C54.447 85.9658 55.419 86.2374 56.3909 86.5089C56.9737 86.6763 57.3139 87.286 57.1686 87.8709C57.0055 88.4097 56.5078 88.7386 55.9803 88.6875Z" fill="#015CA5"/>
<path d="M159.03 89.5491C157.426 89.3937 155.924 88.8712 154.663 88.372C145.455 84.7295 137.6 79.022 132.528 72.2973C132.153 71.8173 132.265 71.1183 132.745 70.7433C133.225 70.3683 133.924 70.4803 134.299 70.9603C139.137 77.3518 146.661 82.8055 155.485 86.2998C156.767 86.8011 158.292 87.3258 159.841 87.3649C161.324 87.3976 162.678 86.9297 163.515 86.079C164.621 84.966 165.043 83.1214 164.839 80.4174C164.295 73.6653 161.203 67.1101 156.333 62.4236C156.088 62.2003 155.986 61.8798 155.996 61.5481C156.028 61.2184 156.19 60.9235 156.431 60.725C161.569 56.9189 165.675 51.8593 168.321 46.0595C169.14 44.2532 169.886 41.8187 168.677 40.3263C167.804 39.2656 166.133 38.882 163.376 39.1696C153.987 40.146 145.354 43.3918 137.014 49.1062C136.514 49.4571 135.817 49.3231 135.488 48.8254C135.137 48.3256 135.271 47.6287 135.769 47.2997C144.418 41.3713 153.374 38.0014 163.143 36.9953C165.383 36.7685 168.582 36.7233 170.384 38.9609C171.434 40.2605 172.261 42.7142 170.317 46.9849C167.674 52.7407 163.701 57.813 158.728 61.746C163.458 66.7295 166.474 73.3882 167.007 80.2502C167.279 83.6263 166.645 86.0494 165.049 87.6473C163.794 88.9234 161.86 89.6457 159.758 89.5974C159.536 89.5981 159.294 89.5746 159.03 89.5491Z" fill="#015CA5"/>
<path d="M116.964 37.3819C116.876 37.3734 116.788 37.3649 116.702 37.3344C116.124 37.1231 115.83 36.4956 116.019 35.915C117.027 33.0622 118.066 30.1237 118.27 27.1043C118.512 23.9111 117.686 20.9916 116.028 19.1007C114.409 17.2581 111.915 16.2179 109.71 15.3833C100.379 11.8621 90.2684 9.75167 79.6568 9.1456C76.6352 8.96393 73.1394 8.86941 70.0738 10.0589C66.9401 11.2639 64.7245 13.7558 64.4188 16.4547C64.3614 17.0481 63.8091 17.4827 63.2157 17.4252L63.1937 17.4231C62.5783 17.3635 62.1438 16.8112 62.2253 16.1979C62.6296 12.7099 65.3834 9.47157 69.2763 7.98512C72.7765 6.66029 76.5404 6.73638 79.7817 6.93934C90.6109 7.58867 100.942 9.72037 110.486 13.3288C112.948 14.2548 115.717 15.4326 117.675 17.6631C119.753 20.0382 120.754 23.4405 120.472 27.2731C120.218 30.5761 119.143 33.6664 118.1 36.6489C117.943 37.1218 117.469 37.4309 116.964 37.3819Z" fill="#015CA5"/>
<path d="M120.095 94.8295C119.853 94.806 119.614 94.7606 119.357 94.6692C118.237 94.3168 117.481 93.4227 116.921 92.7917L107.908 82.3136C107.509 81.8534 107.555 81.148 108.015 80.7489C108.476 80.3498 109.181 80.3959 109.58 80.856L118.592 91.3342C119.111 91.939 119.532 92.4012 120.027 92.5601C120.994 92.8756 122.197 91.9051 123.146 91.0431C124.364 89.9188 125.628 88.7767 126.516 87.3986C127.406 85.9984 127.753 84.4792 127.474 83.2321C127.195 81.985 126.227 80.7599 124.849 79.8722C123.449 78.9824 119.951 77.5345 118.357 77.0473C117.776 76.858 117.458 76.2504 117.625 75.6677C117.814 75.087 118.422 74.7688 119.005 74.9361C120.749 75.4821 124.438 77.0151 126.005 78.0098C127.927 79.2386 129.207 80.9153 129.606 82.7508C130.025 84.6105 129.559 86.6728 128.352 88.5968C127.331 90.2061 125.944 91.4693 124.63 92.6731C123.846 93.4401 122.095 95.0231 120.095 94.8295Z" fill="#015CA5"/>
<path d="M35.327 70.826C35.0413 70.7984 34.7662 70.6608 34.5677 70.4198C34.1927 69.9398 34.2587 69.2585 34.7188 68.8594C38.5473 65.7473 41.2778 61.3753 42.4074 56.5822C43.5172 51.7649 43.0135 46.6582 40.9429 42.1541C40.6863 41.5969 40.9259 40.9546 41.4832 40.698C42.0404 40.4413 42.6827 40.681 42.9393 41.2383C45.2134 46.1614 45.7781 51.7841 44.5555 57.0785C43.333 62.3729 40.3182 67.161 36.1061 70.5687C35.8849 70.7913 35.6127 70.8537 35.327 70.826Z" fill="#015CA5"/>
<path d="M68.2647 98.8395C65.6494 98.5863 63.0434 97.0916 60.5742 94.4124C59.7916 93.5601 59.0792 92.6704 58.3646 91.8026C57.275 90.4548 56.245 89.1793 55.02 88.0846C54.7754 87.8613 54.6294 87.5366 54.6613 87.2069C54.6712 86.8751 54.835 86.5582 55.0981 86.3619C57.7043 84.4181 60.3262 81.1669 62.1123 77.6131C62.3349 77.1466 62.868 76.9098 63.365 77.0467C67.1337 77.9884 70.877 79.1938 74.511 80.6105C76.5832 81.4323 78.6582 82.4541 79.6181 84.4548C80.4517 86.1549 80.3311 88.3172 79.2689 90.8098C78.2613 93.1968 76.9248 95.0861 75.2814 96.4798C73.3026 98.1295 70.8467 98.9786 68.5526 98.8452C68.4625 98.8587 68.3527 98.848 68.2647 98.8395ZM57.4212 87.3411C58.3691 88.3202 59.2424 89.3808 60.074 90.4152C60.7467 91.2568 61.4613 92.1246 62.1844 92.9045C64.3515 95.2662 66.5371 96.5204 68.6753 96.6609C70.4179 96.7631 72.301 96.1025 73.8458 94.8102C75.222 93.6568 76.355 92.0362 77.2186 89.9902C78.0234 88.0938 78.1504 86.5532 77.6152 85.4366C76.9517 84.0413 75.229 83.2755 73.6892 82.6828C70.4181 81.4121 67.0422 80.3088 63.6449 79.4252C61.9893 82.5481 59.7659 85.3497 57.4212 87.3411Z" fill="#015CA5"/>
<path d="M45.36 72.8411C45.1183 72.8177 44.8631 72.7042 44.6823 72.5092C44.2591 72.0689 44.2591 71.3812 44.6994 70.958C46.0224 69.6664 46.898 67.9543 47.1427 66.1146C47.3874 64.2749 47.0146 62.3976 46.1044 60.8009C45.7996 60.2834 45.9776 59.5907 46.5171 59.2881C47.0347 58.9832 47.7273 59.1612 48.03 59.7007C49.2096 61.7228 49.6653 64.1183 49.3518 66.4394C49.0383 68.7605 47.918 70.9369 46.2533 72.5504C45.9882 72.7688 45.6677 72.8709 45.36 72.8411Z" fill="#015CA5"/>
<path d="M57.9195 74.8558C57.6998 74.8345 57.458 74.8111 57.2404 74.7679C54.3323 74.331 49.9007 72.9036 47.3414 71.6131C46.7913 71.338 46.5893 70.6751 46.8644 70.125C47.1395 69.5749 47.8024 69.3728 48.3525 69.648C50.7424 70.8554 54.8726 72.1871 57.5851 72.5829C60.3393 73.0049 62.8923 72.2982 64.4188 70.7379C65.7765 69.3165 66.3325 67.2407 66.6892 65.3896C67.0587 63.4067 67.2786 61.3649 67.3425 59.3303C67.378 58.047 67.1646 57.2721 66.7265 56.9857C66.1828 56.6447 65.2214 56.9509 64.3458 57.2876L48.4762 63.5595C47.8991 63.792 47.2611 63.5084 47.0506 62.9334C46.8181 62.3563 47.1017 61.7182 47.6766 61.5077L63.5463 55.2358C64.4679 54.8814 66.3836 54.113 67.9269 55.1276C69.4724 56.1202 69.597 58.0401 69.5551 59.3892C69.5025 61.5359 69.272 63.6876 68.8678 65.8003C68.472 67.825 67.8012 70.3999 66.0252 72.2466C64.1045 74.2124 61.1283 75.1665 57.9195 74.8558Z" fill="#015CA5"/>
<path d="M67.6872 93.3483C67.5993 93.3398 67.5355 93.3115 67.4497 93.281L67.3022 93.2001C64.9337 91.7729 62.2525 90.1379 58.2734 85.8704C58.0728 85.6514 58.0849 85.2976 58.3039 85.097C58.523 84.8963 58.8768 84.9084 59.0774 85.1275C62.9353 89.2723 65.5548 90.8569 67.8815 92.258L68.029 92.3388C68.2799 92.4962 68.3799 92.8386 68.2225 93.0896C68.0934 93.2767 67.885 93.3675 67.6872 93.3483Z" fill="#015CA5"/>
<path d="M71.6096 85.1432C71.5217 85.1346 71.4579 85.1063 71.3722 85.0758C68.4379 83.3053 65.2569 82.0212 61.9149 81.254C61.6115 81.1802 61.4392 80.8973 61.491 80.5918C61.5428 80.2862 61.8476 80.1161 62.1532 80.1679C65.6029 80.9678 68.8917 82.2845 71.9316 84.1095C72.1825 84.2669 72.2825 84.6094 72.1251 84.8603C72.0159 85.0716 71.8074 85.1623 71.6096 85.1432Z" fill="#015CA5"/>
<path d="M70.4864 90.092C70.3985 90.0835 70.3127 90.0531 70.2291 90.0006L60.2445 83.3769C59.9936 83.2195 59.9177 82.8573 60.0971 82.6084C60.2765 82.3596 60.6168 82.2816 60.8656 82.461L70.8501 89.0846C71.1011 89.242 71.1769 89.6043 70.9976 89.8532C70.8926 90.0205 70.6842 90.1112 70.4864 90.092Z" fill="#015CA5"/>
<path d="M117.799 87.6191C117.667 87.6063 117.54 87.5496 117.44 87.4291C115.379 85.122 113.315 82.837 111.254 80.5299C111.053 80.3108 111.065 79.9571 111.306 79.7586C111.525 79.5579 111.879 79.57 112.078 79.811C114.139 82.1181 116.203 84.4032 118.264 86.7103C118.465 86.9293 118.453 87.2831 118.234 87.4837C118.091 87.5808 117.953 87.634 117.799 87.6191Z" fill="#015CA5"/>
<path d="M120.082 84.89C119.972 84.8794 119.845 84.8227 119.743 84.7241C117.879 82.902 115.898 81.1352 113.863 79.474C113.638 79.2747 113.582 78.9366 113.784 78.6899C113.983 78.4651 114.321 78.4091 114.568 78.6105C116.623 80.2958 118.624 82.0867 120.508 83.933C120.73 84.1542 120.72 84.486 120.521 84.7107C120.418 84.856 120.236 84.9049 120.082 84.89Z" fill="#015CA5"/>
<path d="M124.192 83.2252C124.104 83.2167 124.019 83.1862 123.957 83.1359C121.388 81.4895 118.722 79.9226 116.044 78.4875C115.769 78.3499 115.669 78.0075 115.828 77.7346C115.988 77.4616 116.308 77.3596 116.581 77.5191C119.302 78.9804 121.989 80.5495 124.578 82.2199C124.829 82.3773 124.907 82.7176 124.747 82.9906C124.599 83.1536 124.39 83.2444 124.192 83.2252Z" fill="#015CA5"/>
<path d="M48.8022 65.2324C48.5385 65.2069 48.3358 65.0097 48.2954 64.7396C48.2592 64.4256 48.4847 64.159 48.7966 64.1448C52.603 63.7814 56.3662 62.9479 59.9543 61.6316C60.2308 61.5252 60.5498 61.667 60.654 61.9655C60.7604 62.242 60.6185 62.561 60.3201 62.6652C56.6419 63.995 52.7866 64.864 48.8902 65.2409C48.8682 65.2388 48.8242 65.2345 48.8022 65.2324Z" fill="#015CA5"/>
<path d="M49.4787 66.9609C49.3249 66.946 49.193 66.9332 49.0392 66.9183C48.7315 66.8885 48.5132 66.6234 48.543 66.3157C48.5727 66.008 48.8379 65.7897 49.1456 65.8195C52.3302 66.15 55.5538 66.3069 58.7484 66.3057C59.0582 66.3135 59.3006 66.5588 59.2928 66.8686C59.285 67.1784 59.0397 67.4209 58.7299 67.413C55.6672 67.427 52.5556 67.2588 49.4787 66.9609Z" fill="#015CA5"/>
<path d="M58.8538 71.1743C58.8318 71.1721 58.8098 71.17 58.7879 71.1679C55.292 70.3857 51.787 69.4695 48.3806 68.452C48.0793 68.3563 47.9311 68.0535 48.0027 67.7721C48.0985 67.4708 48.4012 67.3226 48.6826 67.3942C52.0671 68.4097 55.5502 69.3237 59.002 70.1016C59.3054 70.1754 59.4777 70.4583 59.4259 70.7638C59.3805 71.0034 59.1175 71.1998 58.8538 71.1743Z" fill="#015CA5"/>
<path d="M70.4902 16.5097C70.4243 16.5034 70.3604 16.475 70.2966 16.4466C70.0216 16.3091 69.9216 15.9666 70.0571 15.7136C70.8519 14.1489 71.9197 12.7439 73.1902 11.5359C73.4093 11.3353 73.7652 11.3253 73.9658 11.5444C74.1664 11.7635 74.1763 12.1194 73.9572 12.32C72.7831 13.4486 71.7919 14.7502 71.0517 16.2092C70.9205 16.4183 70.71 16.531 70.4902 16.5097Z" fill="#015CA5"/>
<path d="M76.0173 16.7121C75.9294 16.7036 75.8656 16.6753 75.7819 16.6228C75.5309 16.4654 75.453 16.1251 75.6104 15.8741C76.8455 13.8863 78.3691 12.126 80.1572 10.6132C80.3983 10.4147 80.7279 10.4467 80.9264 10.6877C81.1249 10.9288 81.093 11.2584 80.8519 11.4569C79.1603 12.8903 77.7111 14.5691 76.5306 16.4513C76.4455 16.6427 76.237 16.7334 76.0173 16.7121Z" fill="#015CA5"/>
<path d="M82.0159 17.537C81.906 17.5264 81.7982 17.4938 81.7167 17.4193C81.492 17.2201 81.4579 16.8841 81.6373 16.6352C83.2723 14.6417 85.1121 12.8234 87.1306 11.222C87.3717 11.0235 87.7212 11.0795 87.8977 11.3184C88.0962 11.5595 88.0402 11.909 87.8012 12.0855C85.8529 13.6494 84.0635 15.4061 82.4788 17.3379C82.376 17.4832 82.1917 17.5541 82.0159 17.537Z" fill="#015CA5"/>
<path d="M88.4666 18.9601C88.3567 18.9494 88.249 18.9168 88.1696 18.8204C87.9449 18.6212 87.913 18.2631 88.1122 18.0384C89.8131 16.0513 91.7564 14.3095 93.8763 12.8067C94.1152 12.6302 94.4647 12.6862 94.6391 12.9471C94.8156 13.186 94.7596 13.5355 94.4987 13.7099C92.4292 15.1511 90.556 16.8553 88.9296 18.7609C88.8247 18.9282 88.6425 18.9771 88.4666 18.9601Z" fill="#015CA5"/>
<path d="M94.6881 21.1376C94.5562 21.1248 94.4286 21.068 94.3492 20.9716C94.1266 20.7504 94.1387 20.3966 94.3578 20.196C96.0948 18.523 97.9772 16.9528 99.9567 15.5251C100.196 15.3485 100.545 15.4046 100.722 15.6435C100.898 15.8824 100.842 16.2319 100.603 16.4085C98.6719 17.7965 96.8377 19.327 95.1269 20.9582C95.0022 21.1014 94.8419 21.1525 94.6881 21.1376Z" fill="#015CA5"/>
<path d="M100.976 24.2538C100.866 24.2432 100.78 24.2127 100.677 24.1361C100.428 23.9567 100.396 23.5987 100.597 23.352C102.519 20.9204 104.96 18.8497 107.637 17.3121C107.896 17.1597 108.241 17.2597 108.394 17.5185C108.546 17.7772 108.446 18.1225 108.188 18.2749C105.628 19.7352 103.306 21.7286 101.461 24.0567C101.336 24.1999 101.152 24.2708 100.976 24.2538Z" fill="#015CA5"/>
<path d="M107.071 29.347C106.962 29.3364 106.876 29.3059 106.794 29.2315C106.545 29.0521 106.514 28.6941 106.693 28.4452C108.691 25.9101 110.797 23.4076 112.98 21.0236C113.179 20.7988 113.535 20.7889 113.759 20.9882C113.984 21.1874 113.994 21.5433 113.795 21.768C111.636 24.1322 109.532 26.6127 107.558 29.128C107.454 29.2953 107.269 29.3662 107.071 29.347Z" fill="#015CA5"/>
<path d="M139.713 51.6741C139.537 51.6571 139.37 51.5521 139.275 51.3876C139.122 51.1288 139.222 50.7836 139.481 50.6312C144.921 47.6085 150.776 45.5579 156.909 44.5324C157.203 44.4721 157.494 44.6777 157.552 44.9939C157.612 45.2882 157.407 45.5788 157.091 45.6369C151.093 46.6312 145.352 48.6486 140.031 51.594C139.937 51.6514 139.823 51.6847 139.713 51.6741Z" fill="#015CA5"/>
<path d="M140.817 54.2662C140.619 54.2471 140.432 54.118 140.341 53.9096C140.235 53.6331 140.377 53.3141 140.675 53.2099C145.666 51.3861 150.869 50.1152 156.144 49.4725C156.436 49.4342 156.727 49.6398 156.763 49.9539C156.801 50.246 156.596 50.5366 156.281 50.5728C151.094 51.224 145.961 52.4573 141.039 54.2655C140.973 54.2592 140.905 54.2748 140.817 54.2662Z" fill="#015CA5"/>
<path d="M141.071 57.5956C140.807 57.5701 140.605 57.373 140.586 57.105C140.55 56.7909 140.776 56.5244 141.068 56.4861L153.044 55.1391C153.336 55.1008 153.625 55.3284 153.663 55.6205C153.699 55.9346 153.474 56.2011 153.182 56.2394L141.205 57.5864C141.137 57.602 141.093 57.5977 141.071 57.5956Z" fill="#015CA5"/>
<path d="M150.607 62.2016C147.423 61.871 144.224 61.4504 141.101 60.9483C140.795 60.8965 140.601 60.6115 140.653 60.306C140.705 60.0004 140.99 59.8062 141.295 59.8579C144.397 60.3579 147.573 60.7764 150.736 61.1048C151.043 61.1346 151.262 61.3998 151.232 61.7075C151.18 62.013 150.915 62.2314 150.607 62.2016Z" fill="#015CA5"/>
<path d="M151.05 68.4118C150.984 68.4054 150.92 68.377 150.856 68.3487L140.523 63.2663C140.248 63.1287 140.146 62.8083 140.261 62.5311C140.399 62.256 140.719 62.1539 140.996 62.2695L151.33 67.3519C151.605 67.4895 151.707 67.8099 151.591 68.0871C151.504 68.3005 151.269 68.4331 151.05 68.4118Z" fill="#015CA5"/>
<path d="M151.688 74.8844C151.6 74.8759 151.536 74.8476 151.45 74.8171C147.303 72.2859 143.251 69.4534 139.463 66.4245C139.216 66.2231 139.182 65.8871 139.383 65.6404C139.585 65.3937 139.921 65.3597 140.168 65.561C143.936 68.5658 147.924 71.3699 152.051 73.8771C152.302 74.0345 152.402 74.3769 152.245 74.6279C152.094 74.8129 151.885 74.9036 151.688 74.8844Z" fill="#015CA5"/>
<path d="M151.933 80.1432C151.845 80.1347 151.759 80.1042 151.697 80.0539C146.603 76.7654 141.848 72.9552 137.559 68.68C137.336 68.4588 137.348 68.105 137.567 67.9044C137.786 67.7038 138.142 67.6939 138.343 67.9129C142.57 72.1379 147.284 75.9218 152.294 79.1578C152.545 79.3152 152.623 79.6555 152.464 79.9284C152.339 80.0716 152.131 80.1624 151.933 80.1432Z" fill="#015CA5"/>
<path d="M54.1059 34.7551C54.0179 34.7466 53.9322 34.7161 53.8485 34.6636C53.5976 34.5062 53.5217 34.1439 53.7011 33.8951C55.1028 31.7903 54.7173 28.6695 52.8422 26.9572C52.6175 26.758 52.6076 26.4021 52.8068 26.1774C53.0061 25.9527 53.362 25.9427 53.5867 26.142C55.8276 28.2002 56.2832 31.9711 54.617 34.5162C54.5121 34.6835 54.3036 34.7742 54.1059 34.7551Z" fill="#015CA5"/>
<path d="M52.5491 48.0706C52.4392 48.06 52.3534 48.0295 52.2719 47.9551C52.0231 47.7757 51.9912 47.4177 52.1706 47.1688C53.7396 45.169 53.8511 42.185 52.4581 40.0758C52.2837 39.8149 52.3596 39.4894 52.6205 39.3151C52.8814 39.1407 53.2068 39.2166 53.3812 39.4775C55.0237 41.988 54.8831 45.5015 53.0341 47.8736C52.9093 48.0168 52.7249 48.0877 52.5491 48.0706Z" fill="#015CA5"/>
<path d="M51.1005 58.2229C51.0125 58.2144 50.9268 58.1839 50.8431 58.1314C50.5943 57.9521 50.5163 57.6118 50.6957 57.363C51.6557 55.9252 51.8012 53.965 51.0427 52.4053C50.9144 52.1266 51.0122 51.8033 51.2908 51.675C51.5695 51.5467 51.8928 51.6446 52.0211 51.9232C52.9454 53.8318 52.7815 56.2117 51.6116 57.984C51.5067 58.1513 51.2983 58.2421 51.1005 58.2229Z" fill="#015CA5"/>
<path d="M59.2291 40.9521C59.1412 40.9436 59.0334 40.911 58.9498 40.8585C58.7009 40.6792 58.6449 40.341 58.8243 40.0921C60.2048 38.2071 60.4183 35.5436 59.355 33.4663C59.2267 33.1877 59.3246 32.8644 59.6053 32.7141C59.8839 32.5858 60.2072 32.6836 60.3575 32.9644C61.6065 35.4146 61.3483 38.5397 59.736 40.7572C59.6112 40.9004 59.4269 40.9713 59.2291 40.9521Z" fill="#015CA5"/>
<path d="M66.3358 31.7027C66.2698 31.6964 66.206 31.668 66.1422 31.6396C65.8671 31.5021 65.7431 31.1795 65.8807 30.9044C66.9917 28.594 66.6395 25.5873 65.014 23.5887C64.8155 23.3476 64.8496 22.996 65.0885 22.8195C65.3296 22.621 65.6812 22.655 65.8577 22.8939C67.7831 25.2322 68.1849 28.643 66.8554 31.3759C66.7881 31.6134 66.5555 31.724 66.3358 31.7027Z" fill="#015CA5"/>
<path d="M64.3581 45.2422C64.2482 45.2316 64.1426 45.177 64.0391 45.1004C63.8143 44.9012 63.8044 44.5453 64.0037 44.3206C65.3919 42.8134 65.6082 40.3498 64.535 38.6043C64.3826 38.3455 64.4606 37.9981 64.7194 37.8457C64.9781 37.6933 65.3255 37.7713 65.4779 38.0301C66.8007 40.1769 66.529 43.2119 64.8168 45.087C64.6941 45.2082 64.5339 45.2592 64.3581 45.2422Z" fill="#015CA5"/>
<path d="M57.1556 55.9476C57.0457 55.9369 56.9379 55.9043 56.8564 55.8299C56.6317 55.6306 56.5977 55.2946 56.7771 55.0457C58.283 53.2394 58.8397 50.6978 58.1954 48.4171C58.1132 48.1208 58.2748 47.8259 58.5712 47.7436C58.8675 47.6614 59.1624 47.8231 59.2446 48.1194C59.9889 50.7426 59.3741 53.6556 57.6186 55.7484C57.5157 55.8937 57.3314 55.9646 57.1556 55.9476Z" fill="#015CA5"/>
<path d="M71.8967 40.9367C71.8308 40.9304 71.745 40.8999 71.6812 40.8715C71.4083 40.712 71.3303 40.3717 71.4877 40.1207C72.5257 38.3356 72.4698 35.9344 71.3746 34.1868C71.2222 33.928 71.2782 33.5785 71.537 33.4261C71.7958 33.2736 72.1453 33.3297 72.2977 33.5884C73.6269 35.6693 73.6841 38.5143 72.4341 40.656C72.3271 40.8453 72.1165 40.958 71.8967 40.9367Z" fill="#015CA5"/>
<path d="M76.654 29.3738C76.588 29.3675 76.5242 29.3391 76.4604 29.3107C76.1854 29.1732 76.0854 28.8307 76.2208 28.5777C77.066 26.9514 76.6131 24.7557 75.2166 23.6C74.9918 23.4008 74.9578 23.0647 75.1372 22.8159C75.3364 22.5912 75.6725 22.5572 75.9213 22.7365C77.7078 24.2184 78.2811 27.0025 77.2155 29.0733C77.0843 29.2824 76.8518 29.393 76.654 29.3738Z" fill="#015CA5"/>
<path d="M69.4758 52.8811C69.3879 52.8726 69.3241 52.8442 69.2405 52.7918C68.9895 52.6344 68.9115 52.2941 69.0689 52.0431C69.7773 50.9138 69.8801 49.3931 69.3116 48.1623C69.1833 47.8837 69.3032 47.5625 69.5818 47.4342C69.8604 47.3059 70.1816 47.4257 70.3099 47.7044C71.0223 49.2818 70.9073 51.1563 70.0111 52.6224C69.9062 52.7897 69.6956 52.9024 69.4758 52.8811Z" fill="#015CA5"/>
<path d="M72.2658 69.9004C72.156 69.8897 72.0283 69.833 71.9468 69.7586C71.7221 69.5593 71.7122 69.2034 71.9114 68.9787C73.5449 67.2291 74.0768 64.4855 73.1844 62.2472C73.0781 61.9708 73.1979 61.6496 73.4985 61.5234C73.775 61.4171 74.0962 61.5369 74.2223 61.8375C75.2764 64.4685 74.68 67.6496 72.7267 69.7232C72.6019 69.8664 72.4197 69.9153 72.2658 69.9004Z" fill="#015CA5"/>
<path d="M75.4648 56.7885C75.3769 56.78 75.2911 56.7495 75.2074 56.697C74.9586 56.5176 74.9026 56.1794 75.06 55.9285C76.2738 54.1604 76.3739 51.7521 75.3113 49.8967C75.1589 49.6379 75.2589 49.2927 75.5177 49.1403C75.7765 48.9879 76.1217 49.0878 76.2741 49.3466C77.5466 51.5551 77.4216 54.449 75.9759 56.5496C75.8689 56.7389 75.6626 56.8076 75.4648 56.7885Z" fill="#015CA5"/>
<path d="M79.2938 44.4928C79.1839 44.4822 79.0981 44.4517 79.0166 44.3772C78.7677 44.1979 78.7358 43.8398 78.9131 43.613C80.4141 41.6287 80.4135 38.6561 78.8717 36.7099C78.6732 36.4688 78.7292 36.1193 78.9681 35.9428C79.2092 35.7443 79.5587 35.8003 79.7352 36.0393C81.5706 38.391 81.5817 41.9414 79.7787 44.2957C79.678 44.4191 79.4916 44.512 79.2938 44.4928Z" fill="#015CA5"/>
<path d="M86.4445 34.0929C86.3566 34.0844 86.2488 34.0518 86.1673 33.9773C85.9185 33.798 85.8625 33.4598 86.0419 33.211C87.5996 31.0991 87.4927 27.8499 85.7793 25.8428C85.5808 25.6017 85.6127 25.2721 85.8318 25.0714C86.0729 24.8729 86.4025 24.9049 86.6032 25.124C88.654 27.5409 88.7998 31.304 86.9096 33.8717C86.8068 34.0171 86.6203 34.11 86.4445 34.0929Z" fill="#015CA5"/>
<path d="M85.0849 50.4441C84.975 50.4334 84.8892 50.4029 84.8077 50.3285C84.5588 50.1491 84.527 49.7911 84.7042 49.5643C86.0499 47.809 86.1118 45.1086 84.8471 43.278C84.6727 43.0171 84.7266 42.6895 84.9875 42.5151C85.2484 42.3407 85.5759 42.3946 85.7503 42.6555C87.3085 44.8917 87.2218 48.0777 85.5719 50.2251C85.445 50.3902 85.2607 50.4611 85.0849 50.4441Z" fill="#015CA5"/>
<path d="M82.5496 64.7069C82.4177 64.6941 82.312 64.6395 82.2107 64.541C81.9881 64.3197 81.998 63.988 82.1973 63.7632C83.5968 62.3681 83.6898 59.8038 82.4174 58.283C82.2189 58.042 82.2508 57.7123 82.4918 57.5138C82.7329 57.3153 83.0626 57.3472 83.2611 57.5883C84.9128 59.5451 84.78 62.7488 82.9841 64.5715C82.8856 64.6728 82.7034 64.7218 82.5496 64.7069Z" fill="#015CA5"/>
<path d="M79.5627 79.3021C79.4528 79.2914 79.3252 79.2347 79.2437 79.1602C79.019 78.961 79.0091 78.6051 79.2083 78.3804C80.5462 76.9349 80.8951 74.706 80.07 72.918C79.9417 72.6393 80.0615 72.3182 80.3402 72.1899C80.6188 72.0616 80.9399 72.1814 81.0682 72.46C82.077 74.643 81.6571 77.3752 80.0214 79.1468C79.9009 79.2461 79.7166 79.317 79.5627 79.3021Z" fill="#015CA5"/>
<path d="M86.7164 86.0515C86.5625 86.0366 86.4151 85.9558 86.3158 85.8353C86.1393 85.5964 86.1953 85.2468 86.4343 85.0703C87.8196 84.0509 88.2919 81.9227 87.4611 80.4225C87.3087 80.1637 87.4087 79.8184 87.6894 79.6682C87.9702 79.5179 88.2935 79.6157 88.4438 79.8965C89.5376 81.888 88.9397 84.6253 87.0787 85.9757C86.9844 86.0331 86.8483 86.0643 86.7164 86.0515Z" fill="#015CA5"/>
<path d="M87.0489 73.6832C86.939 73.6725 86.8333 73.6179 86.7298 73.5414C86.5051 73.3421 86.4952 72.9862 86.6944 72.7615C88.2861 70.9857 88.8379 68.2661 88.0355 66.0145C87.9313 65.716 88.0929 65.4211 88.3694 65.3147C88.6459 65.2084 88.9628 65.3722 89.0691 65.6487C89.9913 68.2669 89.3751 71.4239 87.5097 73.5059C87.387 73.6272 87.2247 73.7002 87.0489 73.6832Z" fill="#015CA5"/>
<path d="M90.8646 58.5683C90.7767 58.5598 90.7129 58.5314 90.6491 58.503C90.3761 58.3435 90.2982 58.0032 90.4556 57.7522C91.5198 55.9253 91.8929 53.6765 91.4712 51.617C91.4109 51.3228 91.5946 51.03 91.8888 50.9698C92.183 50.9095 92.4758 51.0931 92.536 51.3874C93.0201 53.7191 92.6194 56.2537 91.3999 58.3096C91.295 58.4769 91.0844 58.5895 90.8646 58.5683Z" fill="#015CA5"/>
<path d="M92.1043 43.9366C91.9945 43.926 91.8668 43.8693 91.7853 43.7948C91.5606 43.5956 91.5507 43.2397 91.7499 43.015C93.4338 41.2037 93.719 38.2587 92.4139 36.158C92.2615 35.8992 92.3395 35.5518 92.5983 35.3994C92.857 35.247 93.2044 35.325 93.3568 35.5838C94.9334 38.0879 94.5929 41.6043 92.563 43.7814C92.4404 43.9026 92.2582 43.9515 92.1043 43.9366Z" fill="#015CA5"/>
<path d="M99.6944 36.3307C99.6065 36.3221 99.4987 36.2895 99.4172 36.2151C99.1684 36.0357 99.1365 35.6777 99.3137 35.4508C100.561 33.7969 100.372 31.161 98.8696 29.7288C98.647 29.5076 98.6349 29.1737 98.8561 28.9511C99.0773 28.7285 99.4113 28.7165 99.6339 28.9377C101.54 30.786 101.783 34.004 100.181 36.1116C100.055 36.2768 99.8702 36.3477 99.6944 36.3307Z" fill="#015CA5"/>
<path d="M98.463 52.0281C98.3751 52.0196 98.2674 51.987 98.1858 51.9126C97.937 51.7332 97.9051 51.3751 98.0824 51.1483C99.4565 49.3292 99.5027 46.5607 98.1742 44.7018C97.9977 44.4629 98.0537 44.1133 98.3146 43.939C98.5536 43.7624 98.9031 43.8185 99.0775 44.0794C100.677 46.3418 100.628 49.598 98.9699 51.8332C98.8473 51.9544 98.6608 52.0473 98.463 52.0281Z" fill="#015CA5"/>
<path d="M95.9189 68.6856C95.7871 68.6729 95.6814 68.6183 95.58 68.5197C95.3574 68.2985 95.3695 67.9448 95.5886 67.7441C97.3519 66.0293 97.6697 62.9765 96.3143 60.9375C96.1399 60.6766 96.2158 60.3512 96.4767 60.1768C96.7376 60.0024 97.063 60.0783 97.2374 60.3392C98.9018 62.8518 98.5089 66.4519 96.3535 68.5503C96.233 68.6495 96.0728 68.7005 95.9189 68.6856Z" fill="#015CA5"/>
<path d="M94.8553 82.6473C94.7674 82.6388 94.6597 82.6062 94.576 82.5537C94.3272 82.3743 94.2712 82.0362 94.4506 81.7874C95.4262 80.4177 95.7389 78.5624 95.2505 76.9622C95.1683 76.6659 95.33 76.371 95.6285 76.2668C95.9248 76.1846 96.2197 76.3462 96.3239 76.6447C96.9122 78.5873 96.5435 80.7921 95.3644 82.4304C95.2375 82.5956 95.0311 82.6644 94.8553 82.6473Z" fill="#015CA5"/>
<path d="M105.892 44.029C105.761 44.0162 105.633 43.9595 105.534 43.8389C105.333 43.6199 105.345 43.2661 105.586 43.0676C107.286 41.5463 107.629 38.6956 106.347 36.8189C106.172 36.558 106.248 36.2326 106.487 36.0561C106.748 35.8817 107.073 35.9576 107.25 36.1965C108.863 38.5489 108.417 42.0107 106.305 43.8915C106.185 43.9907 106.024 44.0417 105.892 44.029Z" fill="#015CA5"/>
<path d="M105.125 59.7496C105.037 59.7411 104.929 59.7085 104.847 59.634C104.599 59.4547 104.543 59.1165 104.744 58.8698C106.429 56.5927 106.616 53.2833 105.189 50.838C105.037 50.5793 105.115 50.2319 105.395 50.0816C105.654 49.9292 106.001 50.0072 106.152 50.2879C107.808 53.1104 107.596 56.9054 105.656 59.5348C105.507 59.6979 105.3 59.7666 105.125 59.7496Z" fill="#015CA5"/>
<path d="M103.175 72.0947C103.087 72.0862 103.002 72.0557 102.94 72.0053C102.689 71.8479 102.611 71.5076 102.77 71.2347C103.636 69.8544 103.725 68.0217 103 66.5761C102.871 66.2975 102.969 65.9742 103.248 65.8459C103.526 65.7176 103.85 65.8155 103.978 66.0941C104.869 67.8885 104.762 70.1409 103.688 71.8338C103.581 72.0231 103.373 72.1138 103.175 72.0947Z" fill="#015CA5"/>
<path d="M108.778 69.443C108.646 69.4302 108.496 69.3714 108.419 69.253C108.221 69.0119 108.253 68.6823 108.472 68.4816C110.503 66.7484 111.348 63.7467 110.529 61.2051C110.447 60.9087 110.587 60.6117 110.885 60.5075C111.182 60.4252 111.479 60.5649 111.583 60.8634C112.539 63.8177 111.559 67.2943 109.19 69.3055C109.092 69.4069 108.932 69.4579 108.778 69.443Z" fill="#015CA5"/>
<path d="M110.685 54.7869C110.598 54.7784 110.49 54.7458 110.408 54.6714C110.159 54.492 110.103 54.1538 110.283 53.905C111.838 51.8151 112.044 48.7737 110.778 46.4993C110.626 46.2405 110.726 45.8952 110.984 45.7428C111.243 45.5904 111.589 45.6904 111.741 45.9492C113.213 48.6206 112.988 52.0817 111.153 54.5438C111.07 54.7132 110.861 54.804 110.685 54.7869Z" fill="#015CA5"/>
<path d="M102.439 81.5184C102.307 81.5056 102.158 81.4467 102.081 81.3283C101.882 81.0873 101.914 80.7576 102.133 80.557C102.712 80.0806 103.052 79.315 103.089 78.4756C103.126 77.6362 102.824 76.8528 102.298 76.3359C102.075 76.1147 102.085 75.7829 102.284 75.5582C102.506 75.3356 102.837 75.3455 103.062 75.5448C103.811 76.2828 104.217 77.3647 104.172 78.5139C104.127 79.6631 103.649 80.7039 102.828 81.4007C102.731 81.4801 102.593 81.5333 102.439 81.5184Z" fill="#015CA5"/>
<path d="M117.134 50.5087C117.024 50.4981 116.919 50.4435 116.815 50.3669C116.59 50.1677 116.558 49.8096 116.758 49.5849C118.229 47.9083 118.125 45.081 116.523 43.5283C116.301 43.3071 116.311 42.9753 116.51 42.7506C116.731 42.528 117.063 42.5379 117.288 42.7371C119.273 44.6819 119.396 48.221 117.575 50.3074C117.47 50.4747 117.31 50.5257 117.134 50.5087Z" fill="#015CA5"/>
<path d="M115.819 62.2492C115.709 62.2385 115.623 62.208 115.542 62.1336C115.293 61.9542 115.261 61.5962 115.44 61.3473C116.657 59.7792 116.737 57.3468 115.634 55.6871C115.459 55.4262 115.535 55.1008 115.774 54.9242C116.035 54.7498 116.36 54.8257 116.537 55.0646C117.934 57.1299 117.851 60.0501 116.308 62.0081C116.203 62.1754 116.017 62.2683 115.819 62.2492Z" fill="#015CA5"/>
<path d="M113.415 74.706C113.305 74.6953 113.22 74.6648 113.138 74.5904C112.889 74.411 112.857 74.053 113.037 73.8042C114.201 72.3197 114.561 70.2028 113.936 68.4119C113.832 68.1134 113.993 67.8185 114.27 67.7122C114.568 67.608 114.863 67.7697 114.97 68.0462C115.717 70.1816 115.296 72.692 113.902 74.4869C113.775 74.6521 113.591 74.723 113.415 74.706Z" fill="#015CA5"/>
<path d="M123.056 56.4727C122.946 56.4621 122.818 56.4054 122.737 56.3309C122.512 56.1317 122.502 55.7758 122.701 55.5511C124.361 53.7596 124.726 50.9111 123.581 48.7593C123.428 48.5005 123.528 48.1553 123.809 48.005C124.068 47.8526 124.413 47.9526 124.563 48.2334C125.936 50.7843 125.496 54.1801 123.539 56.2976C123.392 56.4387 123.232 56.4897 123.056 56.4727Z" fill="#015CA5"/>
<path d="M120.661 70.9037C120.551 70.893 120.446 70.8384 120.342 70.7619C120.117 70.5626 120.107 70.2067 120.307 69.982C122.17 67.9219 122.749 64.6948 121.688 62.1297C121.582 61.8532 121.702 61.5321 121.98 61.4038C122.257 61.2974 122.578 61.4173 122.706 61.6959C123.946 64.6998 123.307 68.3204 121.124 70.7045C120.997 70.8696 120.837 70.9207 120.661 70.9037Z" fill="#015CA5"/>
<path d="M128.47 64.7163C128.382 64.7078 128.318 64.6794 128.234 64.627C127.983 64.4696 127.883 64.1271 128.041 63.8762C128.806 62.6192 129.621 61.3006 129.937 59.8671C130.184 58.6931 130.098 57.0654 129.064 56.0557C128.842 55.8345 128.852 55.5027 129.051 55.278C129.272 55.0554 129.626 55.0675 129.829 55.2646C130.964 56.3728 131.404 58.2345 131.002 60.1033C130.644 61.7324 129.75 63.1765 128.983 64.4554C128.876 64.6447 128.667 64.7355 128.47 64.7163Z" fill="#015CA5"/>
</g>
</svg>
